<svg xmlns="http://www.w3.org/2000/svg" viewBox="308 -73.6 511.6 171" class="store-icon"><path fill="#A7A6A6" d="M778.9-73.5H344.1c-1.3 0-2.6 0-3.9.1-2.9 0-5.7.3-8.6.8-2.8.5-5.6 1.4-8.1 2.7-2.6 1.3-4.9 3-6.9 5s-3.7 4.4-5 6.9c-1.3 2.6-2.2 5.3-2.7 8.1s-.7 5.7-.8 8.6c0 1.3 0 2.6-.1 3.9v98.8c0 1.3 0 2.6.1 3.9 0 2.9.3 5.7.8 8.6.5 2.8 1.4 5.6 2.7 8.1 1.3 2.6 3 4.9 5 6.9s4.4 3.7 6.9 5c2.6 1.3 5.3 2.2 8.1 2.7s5.7.7 8.6.8H787.4c2.9 0 5.7-.3 8.6-.8 2.8-.5 5.6-1.4 8.2-2.7 2.6-1.3 4.9-3 6.9-5s3.7-4.4 5.1-6.9c1.3-2.6 2.2-5.3 2.6-8.1.5-2.8.7-5.7.8-8.6v-3.9V-32.7v-4.7-3.9c-.1-2.9-.3-5.7-.8-8.6-.5-2.8-1.4-5.6-2.6-8.1-2.6-5.1-6.8-9.3-12-12-2.6-1.3-5.3-2.2-8.2-2.7-2.8-.5-5.7-.7-8.6-.8-1.3 0-2.6 0-3.9-.1-1.5.1-3 .1-4.6.1z"/><path fill="#010101" d="M344.1 93.8h-3.9c-2.7 0-5.3-.3-8-.7-2.5-.4-4.9-1.2-7.1-2.3-2.2-1.1-4.2-2.6-6-4.3-1.8-1.7-3.2-3.8-4.4-6-1.1-2.2-1.9-4.6-2.3-7.1-.4-2.7-.7-5.3-.7-8 0-.9-.1-3.9-.1-3.9v-98.9s0-3 .1-3.8c0-2.7.3-5.4.7-8 .4-2.5 1.2-4.9 2.3-7.1 1.1-2.2 2.6-4.2 4.3-6 1.8-1.8 3.8-3.2 6-4.4 2.2-1.1 4.6-1.9 7.1-2.3 2.7-.4 5.3-.7 8-.7l3.9-.1h439.4l3.9.1c2.7 0 5.3.3 7.9.7 2.5.4 4.9 1.2 7.1 2.3 4.4 2.3 8 5.9 10.3 10.3 1.1 2.2 1.9 4.6 2.3 7.1.4 2.7.7 5.4.7 8.1V65.4c0 2.7-.3 5.3-.7 7.9-.4 2.5-1.2 4.9-2.3 7.1-1.1 2.2-2.6 4.2-4.3 5.9-1.7 1.8-3.8 3.2-6 4.4-2.2 1.1-4.7 1.9-7.1 2.4-2.6.4-5.3.7-8 .7H344.1z"/><g><g fill="#FFF"><path d="M413.9 13.3C414 6 417.8-.7 424-4.5c-3.9-5.6-10.2-9-17.1-9.2-7.2-.8-14.1 4.3-17.8 4.3-3.7 0-9.4-4.2-15.4-4.1-8 .3-15.2 4.7-19.1 11.7-8.3 14.3-2.1 35.4 5.8 46.9 4 5.7 8.6 12 14.7 11.8 5.9-.2 8.1-3.8 15.3-3.8 7.1 0 9.2 3.8 15.4 3.6 6.4-.1 10.4-5.7 14.2-11.4 2.8-4 5-8.5 6.5-13.2-7.7-3.2-12.6-10.6-12.6-18.8zM402.2-21.3c3.5-4.2 5.2-9.5 4.8-14.9-5.3.6-10.2 3.1-13.7 7.1s-5.2 9.1-4.9 14.4c5.4 0 10.5-2.4 13.8-6.6z"/></g><g fill="#FFF"><path d="M488.9 42.5h-20.2l-4.9 14.4h-8.6l19.2-53.1h8.9l19.2 53.1h-8.7l-4.9-14.4zm-18.2-6.6h16l-7.9-23.3h-.2l-7.9 23.3zM543.9 37.5c0 12-6.4 19.8-16.2 19.8-5 .3-9.8-2.4-12.2-6.8h-.2v19.2h-7.9V18.2h7.7v6.4h.1c2.5-4.4 7.3-7 12.3-6.8 9.9 0 16.4 7.7 16.4 19.7zm-8.2 0c0-7.8-4.1-13-10.2-13s-10.2 5.3-10.2 13c0 7.8 4.1 13 10.2 13s10.2-5.1 10.2-13zM586.5 37.5c0 12-6.4 19.8-16.2 19.8-5 .3-9.8-2.4-12.2-6.8h-.2v19.2H550V18.2h7.7v6.4h.1c2.5-4.4 7.3-7 12.3-6.8 9.9 0 16.4 7.7 16.4 19.7zm-8.2 0c0-7.8-4.1-13-10.2-13s-10.2 5.3-10.2 13c0 7.8 4.1 13 10.2 13s10.2-5.1 10.2-13zM614.6 42.1c.6 5.3 5.7 8.7 12.7 8.7 6.7 0 11.5-3.5 11.5-8.2 0-4.1-2.9-6.6-9.8-8.3l-6.9-1.7c-9.8-2.4-14.3-6.9-14.3-14.3 0-9.2 8-15.5 19.3-15.5 11.2 0 18.9 6.3 19.2 15.5h-8c-.5-5.3-4.9-8.5-11.3-8.5s-10.8 3.2-10.8 7.9c0 3.8 2.8 6 9.6 7.7l5.9 1.4c10.9 2.6 15.4 7 15.4 14.7 0 9.9-7.9 16.2-20.5 16.2-11.8 0-19.7-6.1-20.2-15.7l8.2.1zM664.4 9v9.2h7.4v6.3h-7.4v21.3c0 3.3 1.5 4.9 4.7 4.9.9 0 1.7-.1 2.6-.2v6.3c-1.5.3-2.9.4-4.4.4-7.8 0-10.9-2.9-10.9-10.5V24.5h-5.6v-6.3h5.6V9h8zM676 37.5c0-12.2 7.2-19.8 18.4-19.8s18.4 7.7 18.4 19.8c0 12.2-7.1 19.8-18.4 19.8-11.3.1-18.4-7.6-18.4-19.8zm28.6 0c0-8.4-3.8-13.3-10.3-13.3-6.4 0-10.3 5-10.3 13.3 0 8.4 3.8 13.3 10.3 13.3s10.3-4.9 10.3-13.3zM719.3 18.2h7.6v6.6h.2c1.1-4.2 4.9-7.2 9.3-7 .9 0 1.8.1 2.7.3v7.4c-1.2-.4-2.4-.5-3.6-.5-4.4-.2-8.1 3.3-8.3 7.7v24.2h-7.9V18.2zM775.7 45.5c-1.1 7-7.9 11.9-16.7 11.9-11.3 0-18.3-7.5-18.3-19.7 0-12.1 7-20 17.9-20 10.7 0 17.4 7.4 17.4 19.1v2.7h-27.3v.5c-.5 5.5 3.6 10.4 9.2 10.9h1.3c3.9.4 7.5-1.9 8.9-5.4h7.6zM748.8 34h19.4c.3-5.1-3.6-9.5-8.8-9.8h-.7c-5.4-.1-9.8 4.3-9.9 9.8 0-.1 0-.1 0 0z"/></g></g><g><g fill="#FFF"><path d="M469.7-36.2c6.2-.4 11.6 4.2 12.1 10.4.1.7 0 1.5-.1 2.2 0 8.2-4.4 12.8-12 12.8h-9.2v-25.4h9.2zm-5.2 21.9h4.8c4.4.3 8.2-3.1 8.5-7.5 0-.6 0-1.1-.1-1.6.6-4.4-2.5-8.5-6.9-9.1-.5-.1-1-.1-1.5-.1h-4.8v18.3zM486.2-20.3c-.5-5 3.2-9.5 8.2-9.9 5-.5 9.5 3.2 9.9 8.2.1.6.1 1.2 0 1.7.5 5-3.2 9.5-8.2 10s-9.5-3.2-10-8.2c.1-.6.1-1.2.1-1.8zm14.3 0c0-4.2-1.9-6.6-5.2-6.6-3.3 0-5.2 2.4-5.2 6.6s1.9 6.6 5.2 6.6c3.3 0 5.2-2.4 5.2-6.6zM528.5-10.7h-3.9l-4-14.2h-.3l-4 14.2h-3.9L507.1-30h3.9l3.4 14.7h.3l4-14.7h3.6l4 14.7h.3L530-30h3.8l-5.3 19.3zM538.3-29.9h3.7v3.1h.3c1-2.3 3.3-3.6 5.7-3.4 3.4-.3 6.5 2.3 6.7 5.8v13.9h-3.8v-11.7c0-3.1-1.3-4.6-4.2-4.6-2.4-.1-4.5 1.8-4.6 4.2v12h-3.8v-19.3zM560.7-37.4h3.8v26.8h-3.8v-26.8zM569.8-20.3c-.5-5 3.2-9.5 8.2-9.9 5-.5 9.5 3.2 9.9 8.2.1.6.1 1.2 0 1.7.5 5-3.2 9.5-8.2 10s-9.5-3.2-10-8.2c0-.6 0-1.2.1-1.8zm14.2 0c0-4.2-1.9-6.6-5.2-6.6s-5.2 2.4-5.2 6.6 1.9 6.6 5.2 6.6c3.3 0 5.2-2.4 5.2-6.6zM591.9-16.1c0-3.5 2.6-5.5 7.2-5.7l5.2-.3v-1.7c0-2-1.3-3.2-3.9-3.2-2.1 0-3.6.8-4 2.1h-3.7c.4-3.3 3.5-5.4 7.9-5.4 4.8 0 7.5 2.4 7.5 6.5v13.2h-3.7v-2.7h-.3c-1.2 2-3.5 3.1-5.8 3-3.2.3-6.1-2-6.4-5.2v-.6zm12.4-1.7v-1.6l-4.7.3c-2.7.2-3.9 1.1-3.9 2.8 0 1.7 1.5 2.7 3.6 2.7 2.5.3 4.7-1.6 5-4.1v-.1zM613.1-20.3c0-6.1 3.1-9.9 8-9.9 2.5-.1 4.8 1.2 5.9 3.4h.3v-10.6h3.8v26.8h-3.6v-3h-.3c-1.2 2.2-3.6 3.5-6 3.4-5-.2-8.1-4-8.1-10.1zm3.9 0c0 4.1 1.9 6.5 5.1 6.5s5.2-2.5 5.2-6.5-2-6.5-5.2-6.5-5.1 2.4-5.1 6.5zM646.8-20.3c-.5-5 3.2-9.5 8.2-9.9 5-.5 9.5 3.2 9.9 8.2.1.6.1 1.2 0 1.7.5 5-3.2 9.5-8.2 10s-9.5-3.2-10-8.2c0-.6 0-1.2.1-1.8zm14.2 0c0-4.2-1.9-6.6-5.2-6.6s-5.2 2.4-5.2 6.6 1.9 6.6 5.2 6.6c3.4 0 5.2-2.4 5.2-6.6zM670-29.9h3.7v3.1h.3c1-2.3 3.3-3.6 5.7-3.4 3.4-.3 6.5 2.3 6.7 5.8v13.9h-3.8v-11.7c0-3.1-1.3-4.6-4.2-4.6-2.4-.1-4.5 1.8-4.6 4.2v12H670v-19.3zM707.9-34.7v4.9h4.2v3.2h-4.2v9.9c0 2 .8 2.9 2.7 2.9.5 0 1 0 1.4-.1v3.2c-.7.1-1.4.2-2.1.2-4.2 0-5.9-1.5-5.9-5.2v-10.9h-3v-3.2h3.1v-4.9h3.8zM717.2-37.4h3.8v10.6h.3c1-2.3 3.4-3.7 5.9-3.4 3.5-.2 6.5 2.5 6.7 6v13.6H730v-11.6c0-3.1-1.4-4.6-4.1-4.6-2.5-.2-4.6 1.6-4.9 4.1v12h-3.8v-26.7zM755.9-15.9c-1.1 3.6-4.6 6-8.3 5.6-4.8.1-8.8-3.7-9-8.5 0-.5 0-1 .1-1.4-.7-4.9 2.8-9.3 7.6-10 .4-.1.8-.1 1.3-.1 5.4 0 8.6 3.7 8.6 9.7v1.3h-13.6v.2c-.2 2.8 1.8 5.3 4.6 5.5h.5c1.9.2 3.7-.7 4.6-2.3h3.6zm-13.3-6.2h9.7c.2-2.6-1.7-4.8-4.3-5h-.4c-2.7 0-5 2.1-5 5 0-.1 0 0 0 0z"/></g></g></svg>