<svg xmlns="http://www.w3.org/2000/svg" viewBox="308.7 -63.8 511.5 151.6" class="store-icon"><path d="M801.4 87.8H327.6c-10.4 0-18.9-8.5-18.9-18.9V-44.8c0-10.4 8.5-18.9 18.9-18.9h473.7c10.4 0 18.9 8.5 18.9 18.9V68.9c.1 10.4-8.4 18.9-18.8 18.9z"/><path fill="#A7A6A6" d="M801.4-60.8c8.8 0 15.9 7.1 15.9 15.9V68.8c0 8.8-7.1 15.9-15.9 15.9H327.6c-8.8 0-15.9-7.1-15.9-15.9V-44.8c0-8.8 7.1-15.9 15.9-15.9h473.8m0-3.1H327.6c-10.4 0-18.9 8.5-18.9 18.9V68.8c0 10.4 8.5 18.9 18.9 18.9h473.7c10.4 0 18.9-8.5 18.9-18.9V-44.8c.1-10.5-8.4-19-18.8-19z"/><g fill="#FFF" stroke="#FFF" stroke-width=".2" stroke-miterlimit="10"><path d="M488.4-25c0 3.2-.9 5.7-2.8 7.6-2.1 2.2-4.9 3.4-8.4 3.4-3.3 0-6.1-1.1-8.4-3.4-2.3-2.3-3.4-5.1-3.4-8.5s1.1-6.2 3.4-8.5 5.1-3.4 8.4-3.4c1.6 0 3.2.3 4.7 1 1.5.6 2.7 1.5 3.6 2.5l-2 2c-1.5-1.8-3.6-2.7-6.2-2.7-2.4 0-4.5.8-6.2 2.5-1.7 1.7-2.6 3.9-2.6 6.6 0 2.7.9 4.9 2.6 6.6 1.7 1.7 3.8 2.5 6.2 2.5 2.5 0 4.7-.8 6.4-2.5 1.1-1.1 1.7-2.6 1.9-4.6h-8.3v-2.7h11c0 .5.1 1.1.1 1.6zM505.9-34.5h-10.4v7.2h9.3v2.7h-9.3v7.2h10.4v2.8h-13.3v-22.7h13.3v2.8zM518.2-14.5h-2.9v-20h-6.4v-2.8h15.6v2.8h-6.4l.1 20h0zM535.8-14.5v-22.8h2.9v22.7l-2.9.1h0zM551.7-14.5h-2.9v-20h-6.4v-2.8H558v2.8h-6.4l.1 20h0zM587.7-17.5c-2.2 2.3-5 3.4-8.3 3.4s-6.1-1.1-8.3-3.4-3.3-5.1-3.3-8.4 1.1-6.1 3.3-8.4c2.2-2.3 5-3.4 8.3-3.4s6.1 1.2 8.3 3.5c2.2 2.3 3.4 5.1 3.4 8.4-.1 3.2-1.2 6-3.4 8.3zm-14.6-1.9c1.7 1.7 3.7 2.6 6.2 2.6s4.5-.9 6.2-2.6 2.5-3.9 2.5-6.5-.8-4.8-2.5-6.5c-1.7-1.7-3.7-2.6-6.2-2.6s-4.5.9-6.2 2.6-2.5 3.9-2.5 6.5.9 4.8 2.5 6.5zM595.1-14.5v-22.8h3.6l11.1 17.7h.1l-.1-4.4v-13.3h2.9v22.7h-3L598-33.1h-.1l.1 4.4v14.2h-2.9z"/></g><path fill="#FFF" d="M566.9 18.6c-8.9 0-16.2 6.8-16.2 16.1s7.3 16.1 16.2 16.1c8.9 0 16.2-6.8 16.2-16.1s-7.3-16.1-16.2-16.1zm0 25.9c-4.9 0-9.1-4-9.1-9.8s4.2-9.8 9.1-9.8c4.9 0 9.1 4 9.1 9.8s-4.2 9.8-9.1 9.8zm-35.3-25.9c-8.9 0-16.2 6.8-16.2 16.1s7.3 16.1 16.2 16.1c8.9 0 16.2-6.8 16.2-16.1s-7.3-16.1-16.2-16.1zm0 25.9c-4.9 0-9.1-4-9.1-9.8s4.2-9.8 9.1-9.8c4.9 0 9.1 4 9.1 9.8s-4.2 9.8-9.1 9.8zm-42-20.9v6.8H506c-.5 3.8-1.8 6.7-3.7 8.6-2.4 2.4-6.1 5-12.6 5-10.1 0-17.9-8.1-17.9-18.2s7.9-18.2 17.9-18.2c5.4 0 9.4 2.1 12.3 4.9l4.8-4.8c-4.1-3.9-9.5-6.9-17.2-6.9-13.8 0-25.4 11.2-25.4 25s11.6 25 25.4 25c7.4 0 13.1-2.4 17.5-7 4.5-4.5 5.9-10.9 5.9-16 0-1.6-.1-3.1-.4-4.3l-23 .1zm171.7 5.3c-1.3-3.6-5.4-10.3-13.8-10.3-8.3 0-15.2 6.5-15.2 16.1 0 9 6.8 16.1 16 16.1 7.4 0 11.7-4.5 13.4-7.1l-5.5-3.7c-1.8 2.7-4.3 4.5-7.9 4.5-3.6 0-6.2-1.6-7.8-4.9l21.6-8.9-.8-1.8zm-21.9 5.4c-.2-6.2 4.8-9.4 8.4-9.4 2.8 0 5.2 1.4 6 3.4l-14.4 6zm-17.6 15.6h7.1V2.5h-7.1v47.4zm-11.6-27.7h-.2c-1.6-1.9-4.6-3.6-8.5-3.6-8.1 0-15.4 7.1-15.4 16.2 0 9 7.4 16.1 15.4 16.1 3.8 0 6.9-1.7 8.5-3.7h.2v2.3c0 6.2-3.3 9.5-8.6 9.5-4.3 0-7-3.1-8.1-5.7l-6.2 2.6c1.8 4.3 6.5 9.5 14.3 9.5 8.3 0 15.3-4.9 15.3-16.8V19.7h-6.7v2.5zm-8.1 22.3c-4.9 0-9-4.1-9-9.7 0-5.7 4.1-9.8 9-9.8 4.8 0 8.6 4.2 8.6 9.8 0 5.6-3.8 9.7-8.6 9.7zm92.4-42h-16.9v47.4h7.1V32h9.9c7.8 0 15.5-5.7 15.5-14.7s-7.8-14.8-15.6-14.8zm.2 22.9h-10.1V9.2h10.1c5.3 0 8.3 4.4 8.3 8.1 0 3.6-3 8.1-8.3 8.1zm43.7-6.8c-5.1 0-10.4 2.3-12.6 7.3l6.3 2.6c1.3-2.6 3.8-3.5 6.5-3.5 3.7 0 7.4 2.2 7.4 6.1v.5c-1.3-.7-4-1.8-7.4-1.8-6.8 0-13.7 3.7-13.7 10.7 0 6.3 5.5 10.4 11.8 10.4 4.8 0 7.4-2.1 9-4.6h.2V50h6.8V31.8c.1-8.6-6.2-13.2-14.3-13.2zm-.9 25.9c-2.3 0-5.5-1.2-5.5-4 0-3.7 4-5.1 7.5-5.1 3.1 0 4.6.7 6.5 1.6-.6 4.4-4.4 7.5-8.5 7.5zm40.1-24.9l-8.1 20.5h-.2l-8.4-20.5h-7.6l12.6 28.7-7.2 16h7.4l19.4-44.7h-7.9zM714 49.9h7.1V2.5H714v47.4z"/><linearGradient id="play-store-a" gradientUnits="userSpaceOnUse" x1="391.299" y1="-224.799" x2="327.699" y2="-161.199" gradientTransform="translate(0 194)"><stop offset="0" stop-color="#4998d3"/><stop offset=".007" stop-color="#4a99d3"/><stop offset=".26" stop-color="#42baeb"/><stop offset=".512" stop-color="#41c7f2"/><stop offset=".76" stop-color="#56c9e9"/><stop offset="1" stop-color="#5bcae8"/></linearGradient><path fill="url(#play-store-a)" d="M348.2-35.2c-1.1 1.2-1.8 3-1.8 5.3v83.8c0 2.3.7 4.2 1.8 5.3l.3.3 47-46.9v-1.2l-47-47-.3.4z"/><linearGradient id="play-store-b" gradientUnits="userSpaceOnUse" x1="436.918" y1="-182.05" x2="345.22" y2="-182.05" gradientTransform="translate(0 194)"><stop offset="0" stop-color="#fee000"/><stop offset=".409" stop-color="#febd11"/><stop offset=".775" stop-color="#faa51a"/><stop offset="1" stop-color="#f99b1c"/></linearGradient><path fill="url(#play-store-b)" d="M411.1 28.2l-15.6-15.7v-1.1l15.7-15.7.4.2 18.5 10.5c5.3 3 5.3 7.9 0 10.9L411.5 28l-.4.2z"/><linearGradient id="play-store-c" gradientUnits="userSpaceOnUse" x1="402.791" y1="-173.291" x2="316.544" y2="-87.044" gradientTransform="translate(0 194)"><stop offset="0" stop-color="#ef4149"/><stop offset="1" stop-color="#c31e63"/></linearGradient><path fill="url(#play-store-c)" d="M411.5 28l-16-16-47.2 47.2c1.7 1.8 4.6 2.1 7.9.2L411.5 28"/><linearGradient id="play-store-d" gradientUnits="userSpaceOnUse" x1="336.363" y1="-257.137" x2="374.875" y2="-218.625" gradientTransform="translate(0 194)"><stop offset="0" stop-color="#32a072"/><stop offset=".069" stop-color="#2ca772"/><stop offset=".476" stop-color="#4bba71"/><stop offset=".801" stop-color="#5ebd6b"/><stop offset="1" stop-color="#66be69"/></linearGradient><path fill="url(#play-store-d)" d="M411.5-4l-55.4-31.5c-3.2-1.8-6.1-1.6-7.9.2l47.2 47.2L411.5-4z"/><g fill="#010101"><path opacity=".2" d="M411.1 27.7l-55 31.3c-3.1 1.7-5.8 1.6-7.6 0l-.3.3.3.3c1.8 1.6 4.5 1.7 7.6 0l55.4-31.5-.4-.4z"/><path opacity=".12" d="M348.2 58.7c-1.1-1.2-1.8-3-1.8-5.3v.6c0 2.3.7 4.2 1.8 5.3l.3-.3-.3-.3z"/></g><path opacity=".12" fill="#010101" d="M430 16.9l-18.9 10.7.4.4L430 17.5c2.6-1.5 4-3.5 4-5.5-.2 1.8-1.6 3.6-4 4.9z"/><path opacity=".25" fill="#FFF" d="M356.1-34.9l73.9 42c2.4 1.4 3.7 3.1 4 4.9 0-2-1.3-4-4-5.5l-73.9-42c-5.3-3-9.6-.5-9.6 5.6v.6c0-6.1 4.3-8.6 9.6-5.6z"/></svg>