<?xml version="1.0" encoding="UTF-8"?>
<svg version="1.1" xmlns="http://www.w3.org/2000/svg" width="300" height="168">
<path d="M0 0 C99 0 198 0 300 0 C300 55.44 300 110.88 300 168 C201 168 102 168 0 168 C0 112.56 0 57.12 0 0 Z " fill="#FEFEFE" transform="translate(0,0)"/>
<path d="M0 0 C0.83383209 -0.0033284 1.66766418 -0.0066568 2.52676392 -0.01008606 C4.28655451 -0.01512259 6.04635455 -0.0174954 7.80615234 -0.01733398 C10.43474108 -0.01949684 13.06289284 -0.03762206 15.69140625 -0.05664062 C30.62612276 -0.10757339 45.39173692 0.89924988 59.9765625 4.29296875 C60.88510986 4.50252197 61.79365723 4.7120752 62.72973633 4.92797852 C85.01003861 10.37127521 108.96018431 20.74306447 121.75 40.74609375 C125.95020157 48.27246651 126.45332525 56.97746226 124.296875 65.2578125 C117.85364033 82.52123781 102.76474206 90.85400961 86.98242188 98.28076172 C85.37329628 99.03979111 83.77526007 99.82225431 82.1796875 100.609375 C68.38904032 106.96662421 52.1290123 109.57246173 37.1015625 111.16796875 C36.11929688 111.27882813 35.13703125 111.3896875 34.125 111.50390625 C-4.51704876 115.0516874 -51.24282406 111.17867208 -82.8984375 86.16796875 C-91.25705108 79.14292315 -98.24512231 71.23427903 -99.46875 60.01171875 C-100.04579396 50.70325235 -98.54940793 43.80724359 -92.8984375 36.16796875 C-92.4653125 35.53890625 -92.0321875 34.90984375 -91.5859375 34.26171875 C-74.28601124 11.60705341 -39.56755933 4.41573217 -13.16479492 0.63305664 C-8.77011946 0.09496834 -4.42356009 0.00633387 0 0 Z " fill="#FCFAF9" transform="translate(136.8984375,29.83203125)"/>
<path d="M0 0 C0.83383209 -0.0033284 1.66766418 -0.0066568 2.52676392 -0.01008606 C4.28655451 -0.01512259 6.04635455 -0.0174954 7.80615234 -0.01733398 C10.43474108 -0.01949684 13.06289284 -0.03762206 15.69140625 -0.05664062 C30.62612276 -0.10757339 45.39173692 0.89924988 59.9765625 4.29296875 C60.88510986 4.50252197 61.79365723 4.7120752 62.72973633 4.92797852 C85.01003861 10.37127521 108.96018431 20.74306447 121.75 40.74609375 C125.95020157 48.27246651 126.45332525 56.97746226 124.296875 65.2578125 C117.85364033 82.52123781 102.76474206 90.85400961 86.98242188 98.28076172 C85.37329628 99.03979111 83.77526007 99.82225431 82.1796875 100.609375 C68.38904032 106.96662421 52.1290123 109.57246173 37.1015625 111.16796875 C36.11929688 111.27882813 35.13703125 111.3896875 34.125 111.50390625 C-4.51704876 115.0516874 -51.24282406 111.17867208 -82.8984375 86.16796875 C-91.25705108 79.14292315 -98.24512231 71.23427903 -99.46875 60.01171875 C-100.04579396 50.70325235 -98.54940793 43.80724359 -92.8984375 36.16796875 C-92.4653125 35.53890625 -92.0321875 34.90984375 -91.5859375 34.26171875 C-74.28601124 11.60705341 -39.56755933 4.41573217 -13.16479492 0.63305664 C-8.77011946 0.09496834 -4.42356009 0.00633387 0 0 Z M-42.8984375 15.16796875 C-44.50138672 15.70357422 -44.50138672 15.70357422 -46.13671875 16.25 C-58.97651261 20.84772259 -72.07153437 27.34758484 -80.1484375 38.66796875 C-80.81359375 39.58578125 -81.47875 40.50359375 -82.1640625 41.44921875 C-86.46559989 48.19216925 -86.61904351 54.31617079 -85.8984375 62.16796875 C-83.7444973 71.40533647 -76.28539668 79.04204216 -68.7109375 84.35546875 C-31.9736839 106.89444236 14.32131677 110.08384285 55.6640625 100.54296875 C76.64780672 95.39990988 94.55013297 87.64218051 108.1015625 70.16796875 C111.92378657 63.34256862 113.23256833 57.28042079 111.5234375 49.5546875 C107.22440593 35.73916333 95.87165685 27.65516049 83.6015625 21.10546875 C72.48203067 15.78681513 60.78252603 12.3056256 48.7265625 9.85546875 C47.5519043 9.61642822 47.5519043 9.61642822 46.35351562 9.37255859 C34.95697578 7.21369025 23.42458242 6.8977326 11.8515625 6.85546875 C11.15790588 6.85285034 10.46424927 6.85023193 9.74957275 6.84753418 C-8.22099669 6.84033134 -25.84213685 9.35282949 -42.8984375 15.16796875 Z " fill="#6B1011" transform="translate(136.8984375,29.83203125)"/>
<path d="M0 0 C2.97922593 -0.02683987 5.95821295 -0.04676037 8.9375 -0.0625 C9.78763672 -0.07087891 10.63777344 -0.07925781 11.51367188 -0.08789062 C12.32255859 -0.09111328 13.13144531 -0.09433594 13.96484375 -0.09765625 C14.7137085 -0.10289307 15.46257324 -0.10812988 16.23413086 -0.11352539 C18 0 18 0 19 1 C19.15582303 2.34015221 19.25044142 3.68758903 19.31640625 5.03515625 C19.35830078 5.84404297 19.40019531 6.65292969 19.44335938 7.48632812 C19.48267578 8.33646484 19.52199219 9.18660156 19.5625 10.0625 C19.60568359 10.91650391 19.64886719 11.77050781 19.69335938 12.65039062 C19.79976702 14.76672037 19.90041731 16.88333813 20 19 C20.38857178 18.45996338 20.77714355 17.91992676 21.17749023 17.36352539 C22.92988133 14.929168 24.68367163 12.49582208 26.4375 10.0625 C27.04916016 9.21236328 27.66082031 8.36222656 28.29101562 7.48632812 C28.87431641 6.67744141 29.45761719 5.86855469 30.05859375 5.03515625 C30.59798584 4.2862915 31.13737793 3.53742676 31.69311523 2.76586914 C33 1 33 1 34 0 C36.86267567 -0.07325168 39.700719 -0.09238205 42.5625 -0.0625 C43.36880859 -0.05798828 44.17511719 -0.05347656 45.00585938 -0.04882812 C47.00393756 -0.03700518 49.00197783 -0.01906914 51 0 C50.37574014 3.70001231 48.74941855 6.02312441 46.55078125 9.02734375 C45.86822266 9.98447266 45.18566406 10.94160156 44.48242188 11.92773438 C43.03363599 13.93725647 41.57524099 15.93988493 40.10742188 17.93554688 C39.42873047 18.89396484 38.75003906 19.85238281 38.05078125 20.83984375 C37.41825439 21.70988037 36.78572754 22.57991699 36.1340332 23.47631836 C34.70638291 25.95834449 34.70638291 25.95834449 35.64404297 28.59082031 C36.87076354 30.77038073 38.11260037 32.73334672 39.64453125 34.70703125 C40.15693359 35.37669922 40.66933594 36.04636719 41.19726562 36.73632812 C41.99680664 37.7640332 41.99680664 37.7640332 42.8125 38.8125 C54 53.26359703 54 53.26359703 54 57 C47.99143648 58.0924661 41.88460934 59.07392456 36 57 C30.84695359 52.78321132 27.48992149 46.84217103 24.24829102 41.10644531 C22.82001172 38.60956628 22.82001172 38.60956628 20 35 C19.67 42.26 19.34 49.52 19 57 C13.72 57 8.44 57 3 57 C3 39.51 3 22.02 3 4 C2.01 4 1.02 4 0 4 C0 2.68 0 1.36 0 0 Z " fill="#AC111E" transform="translate(77,57)"/>
<path d="M0 0 C2.84070445 -0.00976942 5.6807019 -0.04097301 8.52124023 -0.07226562 C19.87015172 -0.13666219 30.72063894 0.5348453 41.77709961 3.24023438 C42.10709961 3.57023437 42.43709961 3.90023437 42.77709961 4.24023438 C44.7902141 4.63592546 46.81307169 4.98275628 48.83959961 5.30273438 C49.94432617 5.47933594 51.04905273 5.6559375 52.18725586 5.83789062 C53.0419043 5.97066406 53.89655273 6.1034375 54.77709961 6.24023438 C54.77709961 5.58023438 54.77709961 4.92023437 54.77709961 4.24023438 C55.76709961 4.73523437 55.76709961 4.73523437 56.77709961 5.24023438 C56.77709961 5.90023437 56.77709961 6.56023438 56.77709961 7.24023438 C60.74903108 10.36963492 63.81940165 10.53186367 68.77709961 10.24023438 C68.77709961 10.90023437 68.77709961 11.56023438 68.77709961 12.24023438 C69.58147461 12.36398438 70.38584961 12.48773438 71.21459961 12.61523438 C72.06022461 12.82148437 72.90584961 13.02773438 73.77709961 13.24023438 C74.10709961 13.90023437 74.43709961 14.56023438 74.77709961 15.24023438 C75.89084961 15.39492188 75.89084961 15.39492188 77.02709961 15.55273438 C80.74491455 16.48218811 82.3259073 18.36883767 84.77709961 21.24023438 C84.77709961 21.90023437 84.77709961 22.56023438 84.77709961 23.24023438 C85.61241211 23.39492188 85.61241211 23.39492188 86.46459961 23.55273438 C89.35962059 24.41341629 91.36642562 25.40050949 93.77709961 27.24023438 C94.96459961 30.36523438 94.96459961 30.36523438 95.77709961 33.24023438 C96.43709961 33.57023437 97.09709961 33.90023437 97.77709961 34.24023438 C102.77709961 39.59737723 102.77709961 39.59737723 102.77709961 44.24023438 C103.43709961 44.24023438 104.09709961 44.24023438 104.77709961 44.24023438 C104.95709241 49.46002566 104.74804769 53.31286418 102.77709961 58.24023438 C101.45709961 58.24023438 100.13709961 58.24023438 98.77709961 58.24023438 C98.67655273 59.12839844 98.57600586 60.0165625 98.47241211 60.93164062 C96.53638863 70.14406696 88.13724174 78.21250835 80.63256836 83.42382812 C66.66189878 92.44802724 51.3856201 97.82679708 35.08032227 100.81420898 C33.49138623 101.10811331 31.90765058 101.43110385 30.3293457 101.77758789 C20.95592766 103.65444321 11.58156151 103.57755503 2.06176758 103.5559082 C-0.82127275 103.55276342 -3.70326855 103.57622199 -6.58618164 103.6015625 C-22.21415715 103.65608249 -37.00776018 101.89848005 -52.03540039 97.42773438 C-52.91502441 97.16984131 -53.79464844 96.91194824 -54.70092773 96.64624023 C-66.2263379 93.15898344 -76.2410463 87.98755038 -86.22290039 81.24023438 C-87.70790039 80.25023438 -87.70790039 80.25023438 -89.22290039 79.24023438 C-89.22290039 78.58023438 -89.22290039 77.92023438 -89.22290039 77.24023438 C-89.8068457 77.00820312 -90.39079102 76.77617188 -90.99243164 76.53710938 C-93.77677439 74.91819205 -95.07055519 73.12428607 -96.91040039 70.49023438 C-97.51239258 69.64976563 -98.11438477 68.80929688 -98.73461914 67.94335938 C-100.35881338 64.99337929 -100.85801474 62.56799148 -101.22290039 59.24023438 C-101.84165039 59.13710937 -102.46040039 59.03398438 -103.09790039 58.92773438 C-105.22290039 58.24023438 -105.22290039 58.24023438 -107.22290039 55.24023438 C-107.48050318 52.54570916 -107.31190092 49.95475063 -107.22290039 47.24023438 C-107.88290039 47.24023438 -108.54290039 47.24023438 -109.22290039 47.24023438 C-108.89290039 45.92023438 -108.56290039 44.60023437 -108.22290039 43.24023438 C-107.56290039 43.24023438 -106.90290039 43.24023438 -106.22290039 43.24023438 C-106.22290039 42.25023437 -106.22290039 41.26023438 -106.22290039 40.24023438 C-105.23290039 40.24023438 -104.24290039 40.24023438 -103.22290039 40.24023438 C-102.72790039 37.27023438 -102.72790039 37.27023438 -102.22290039 34.24023438 C-101.56290039 34.24023438 -100.90290039 34.24023438 -100.22290039 34.24023438 C-100.22290039 33.58023438 -100.22290039 32.92023438 -100.22290039 32.24023438 C-97.92013465 30.02275625 -96.69809947 29.27263431 -93.47290039 29.05273438 C-92.35915039 29.14554688 -92.35915039 29.14554688 -91.22290039 29.24023438 C-91.55290039 28.25023438 -91.88290039 27.26023437 -92.22290039 26.24023438 C-91.23290039 25.91023438 -90.24290039 25.58023438 -89.22290039 25.24023438 C-88.48966243 23.22515079 -88.48966243 23.22515079 -88.22290039 21.24023438 C-86.57290039 20.91023438 -84.92290039 20.58023438 -83.22290039 20.24023438 C-83.22290039 19.25023438 -83.22290039 18.26023437 -83.22290039 17.24023438 C-80.58290039 16.58023438 -77.94290039 15.92023437 -75.22290039 15.24023438 C-75.22290039 14.58023438 -75.22290039 13.92023437 -75.22290039 13.24023438 C-69.37115284 10.83069126 -63.5762169 9.35898353 -57.40258789 7.99023438 C-51.9356044 6.70072476 -46.77005902 4.88311764 -41.5871582 2.72949219 C-37.45232763 1.18557786 -33.49510031 0.70200283 -29.10180664 0.56835938 C-28.33340958 0.53575012 -27.56501251 0.50314087 -26.77333069 0.46954346 C-17.85320573 0.12454502 -8.92609419 0.01847893 0 0 Z M-57.22290039 12.24023438 C-58.82584961 12.77583984 -58.82584961 12.77583984 -60.46118164 13.32226562 C-73.3009755 17.91998822 -86.39599726 24.41985046 -94.47290039 35.74023438 C-95.13805664 36.65804687 -95.80321289 37.57585937 -96.48852539 38.52148438 C-100.79006278 45.26443487 -100.9435064 51.38843641 -100.22290039 59.24023438 C-98.06896019 68.47760209 -90.60985958 76.11430778 -83.03540039 81.42773438 C-46.29814679 103.96670799 -0.00314613 107.15610848 41.33959961 97.61523438 C62.32334383 92.47217551 80.22567008 84.71444614 93.77709961 67.24023438 C97.59932368 60.41483425 98.90810544 54.35268641 97.19897461 46.62695312 C92.89994304 32.81142895 81.54719396 24.72742612 69.27709961 18.17773438 C58.15756778 12.85908076 46.45806314 9.37789122 34.40209961 6.92773438 C33.22744141 6.68869385 33.22744141 6.68869385 32.02905273 6.44482422 C20.63251289 4.28595587 9.10011953 3.96999822 -2.47290039 3.92773438 C-3.16655701 3.92511597 -3.86021362 3.92249756 -4.57489014 3.9197998 C-22.54545958 3.91259697 -40.16659974 6.42509512 -57.22290039 12.24023438 Z " fill="#BD6660" transform="translate(151.222900390625,32.759765625)"/>
<path d="M0 0 C7.59 0 15.18 0 23 0 C27.48684211 11.21710526 27.48684211 11.21710526 29.25 16.625 C29.66757905 17.8998673 30.0855806 19.17459624 30.50390625 20.44921875 C30.85026123 21.50761963 30.85026123 21.50761963 31.20361328 22.58740234 C32.13278028 25.40224853 33.07944869 28.21093704 34.02734375 31.01953125 C34.38344727 32.07769043 34.73955078 33.13584961 35.10644531 34.22607422 C35.81335749 36.32605677 36.52226014 38.4253706 37.23339844 40.52392578 C39.06330439 45.97869441 40.69733256 51.39518985 42 57 C36.72 57 31.44 57 26 57 C24.58988805 52.83876219 23.18266444 48.67676268 21.7824707 44.51220703 C21.30592234 43.09759041 20.82775539 41.68351793 20.34790039 40.27001953 C19.65598756 38.23092439 18.97003877 36.18990311 18.28515625 34.1484375 C17.87144775 32.92302246 17.45773926 31.69760742 17.03149414 30.43505859 C16.08518984 27.28369728 15.45526638 24.25439223 15 21 C14.34 21 13.68 21 13 21 C12.74802856 22.07749512 12.74802856 22.07749512 12.4909668 23.17675781 C10.64263842 30.84728962 8.36051077 38.28566466 5.8125 45.75 C5.44447266 46.84054688 5.07644531 47.93109375 4.69726562 49.0546875 C3.80235897 51.70454098 2.90178493 54.3524794 2 57 C-3.28 57 -8.56 57 -14 57 C-11.44308413 47.06633729 -8.21008783 37.40186728 -4.9375 27.6875 C-4.38969125 26.05413125 -3.8421633 24.42066829 -3.29492188 22.78710938 C-2.29201345 19.79458125 -1.28751204 16.80259921 -0.28100586 13.8112793 C0.81853149 10.54279997 1.91122646 7.27208303 3 4 C2.01 4 1.02 4 0 4 C0 2.68 0 1.36 0 0 Z " fill="#B31526" transform="translate(182,57)"/>
<path d="M0 0 C0.83383209 -0.0033284 1.66766418 -0.0066568 2.52676392 -0.01008606 C4.28655451 -0.01512259 6.04635455 -0.0174954 7.80615234 -0.01733398 C10.43474108 -0.01949684 13.06289284 -0.03762206 15.69140625 -0.05664062 C30.33086611 -0.10647628 44.82340722 0.76630377 59.1015625 4.23046875 C59.86210937 4.40384766 60.62265625 4.57722656 61.40625 4.75585938 C66.7668968 6.0006359 66.7668968 6.0006359 69.1015625 7.16796875 C69.1015625 7.82796875 69.1015625 8.48796875 69.1015625 9.16796875 C67.18424332 9.05341194 65.267695 8.92590617 63.3515625 8.79296875 C62.28421875 8.72335938 61.216875 8.65375 60.1171875 8.58203125 C57.1015625 8.16796875 57.1015625 8.16796875 55.28125 7.21166992 C45.18957624 2.37946727 31.15387042 3.89074078 20.23535156 3.9621582 C17.37035087 3.98034945 14.50567741 3.98266742 11.640625 3.98242188 C-10.33450402 3.40872563 -10.33450402 3.40872563 -31.6484375 7.60546875 C-32.59589844 7.9312793 -32.59589844 7.9312793 -33.5625 8.26367188 C-35.34752115 8.88028188 -37.12332571 9.5233863 -38.8984375 10.16796875 C-42.90807372 11.55552734 -46.90173489 12.72376134 -51.0234375 13.73046875 C-52.03664062 13.97925781 -53.04984375 14.22804688 -54.09375 14.484375 C-55.01929688 14.70996094 -55.94484375 14.93554688 -56.8984375 15.16796875 C-58.23202933 15.50026638 -59.56548018 15.83313497 -60.8984375 16.16796875 C-60.8984375 16.82796875 -60.8984375 17.48796875 -60.8984375 18.16796875 C-63.98653445 19.93259558 -65.13155886 20.16796875 -68.8984375 20.16796875 C-68.8984375 21.15796875 -68.8984375 22.14796875 -68.8984375 23.16796875 C-69.7028125 23.43609375 -70.5071875 23.70421875 -71.3359375 23.98046875 C-72.1815625 24.37234375 -73.0271875 24.76421875 -73.8984375 25.16796875 C-74.2284375 26.15796875 -74.5584375 27.14796875 -74.8984375 28.16796875 C-75.5584375 28.82796875 -76.2184375 29.48796875 -76.8984375 30.16796875 C-76.8984375 30.82796875 -76.8984375 31.48796875 -76.8984375 32.16796875 C-79.8984375 33.16796875 -82.8984375 34.16796875 -85.8984375 35.16796875 C-85.8984375 35.82796875 -85.8984375 36.48796875 -85.8984375 37.16796875 C-86.5584375 37.16796875 -87.2184375 37.16796875 -87.8984375 37.16796875 C-88.2284375 39.14796875 -88.5584375 41.12796875 -88.8984375 43.16796875 C-89.8884375 43.16796875 -90.8784375 43.16796875 -91.8984375 43.16796875 C-91.8984375 44.15796875 -91.8984375 45.14796875 -91.8984375 46.16796875 C-92.5584375 46.16796875 -93.2184375 46.16796875 -93.8984375 46.16796875 C-94.2284375 47.48796875 -94.5584375 48.80796875 -94.8984375 50.16796875 C-94.2384375 50.16796875 -93.5784375 50.16796875 -92.8984375 50.16796875 C-92.80046875 50.86664063 -92.7025 51.5653125 -92.6015625 52.28515625 C-92.45203125 53.19523437 -92.3025 54.1053125 -92.1484375 55.04296875 C-92.00921875 55.94789062 -91.87 56.8528125 -91.7265625 57.78515625 C-91.14607105 60.31878908 -91.14607105 60.31878908 -88.9375 61.23046875 C-88.26460937 61.53984375 -87.59171875 61.84921875 -86.8984375 62.16796875 C-85.84375 64.05078125 -85.84375 64.05078125 -85.0234375 66.29296875 C-82.95628276 71.36241965 -79.99463154 77.61987173 -74.8984375 80.16796875 C-74.8984375 80.82796875 -74.8984375 81.48796875 -74.8984375 82.16796875 C-74.07666016 82.5546875 -74.07666016 82.5546875 -73.23828125 82.94921875 C-69.54390517 84.87350145 -66.13194053 87.22747719 -62.65234375 89.51171875 C-60.11352661 91.03861019 -57.67711303 92.15937509 -54.8984375 93.16796875 C-55.2284375 93.82796875 -55.5584375 94.48796875 -55.8984375 95.16796875 C-61.34771286 96.44333107 -61.34771286 96.44333107 -63.8984375 95.16796875 C-64.2284375 95.82796875 -64.5584375 96.48796875 -64.8984375 97.16796875 C-73.90052004 92.40750147 -81.69064933 87.49544344 -88.8984375 80.16796875 C-89.79175781 79.27271484 -89.79175781 79.27271484 -90.703125 78.359375 C-97.57414829 70.95849668 -99.56407513 63.56491608 -99.51171875 53.55175781 C-99.20754756 46.66228036 -97.00180423 41.71511266 -92.8984375 36.16796875 C-92.4653125 35.53890625 -92.0321875 34.90984375 -91.5859375 34.26171875 C-74.28601124 11.60705341 -39.56755933 4.41573217 -13.16479492 0.63305664 C-8.77011946 0.09496834 -4.42356009 0.00633387 0 0 Z " fill="#86151D" transform="translate(136.8984375,29.83203125)"/>
<path d="M0 0 C6.27 0 12.54 0 19 0 C19 18.81 19 37.62 19 57 C13.72 57 8.44 57 3 57 C3 39.51 3 22.02 3 4 C2.01 4 1.02 4 0 4 C0 2.68 0 1.36 0 0 Z " fill="#AD0E1C" transform="translate(139,57)"/>
<path d="M0 0 C2.84070445 -0.00976942 5.6807019 -0.04097301 8.52124023 -0.07226562 C19.87015172 -0.13666219 30.72063894 0.5348453 41.77709961 3.24023438 C42.10709961 3.57023437 42.43709961 3.90023437 42.77709961 4.24023438 C44.7902141 4.63592546 46.81307169 4.98275628 48.83959961 5.30273438 C49.94432617 5.47933594 51.04905273 5.6559375 52.18725586 5.83789062 C53.0419043 5.97066406 53.89655273 6.1034375 54.77709961 6.24023438 C54.77709961 5.58023438 54.77709961 4.92023437 54.77709961 4.24023438 C55.76709961 4.73523437 55.76709961 4.73523437 56.77709961 5.24023438 C56.77709961 5.90023437 56.77709961 6.56023438 56.77709961 7.24023438 C60.74903108 10.36963492 63.81940165 10.53186367 68.77709961 10.24023438 C68.77709961 10.90023437 68.77709961 11.56023438 68.77709961 12.24023438 C69.58147461 12.36398438 70.38584961 12.48773438 71.21459961 12.61523438 C72.06022461 12.82148437 72.90584961 13.02773438 73.77709961 13.24023438 C74.10709961 13.90023437 74.43709961 14.56023438 74.77709961 15.24023438 C75.89084961 15.39492188 75.89084961 15.39492188 77.02709961 15.55273438 C80.70746481 16.47282567 82.28658971 18.46509477 84.77709961 21.24023438 C84.44709961 22.23023437 84.11709961 23.22023438 83.77709961 24.24023438 C79.50843052 23.76593781 77.66776813 21.2050226 74.77709961 18.24023438 C73.78709961 17.91023438 72.79709961 17.58023438 71.77709961 17.24023438 C71.77709961 16.58023438 71.77709961 15.92023437 71.77709961 15.24023438 C71.1828418 15.43875 70.58858398 15.63726562 69.97631836 15.84179688 C66.86783319 16.40496826 65.1889024 14.94079548 62.51147461 13.48632812 C56.91176261 10.93445937 50.85914971 9.53079769 44.94140625 7.8894043 C42.73104714 7.22642123 40.59641782 6.43343161 38.43334961 5.63085938 C33.23574284 3.87209312 28.16456673 3.6854754 22.71459961 3.55273438 C21.75360352 3.51857422 20.79260742 3.48441406 19.80249023 3.44921875 C17.46081034 3.36766771 15.11946098 3.29822472 12.77709961 3.24023438 C12.77709961 3.57023437 12.77709961 3.90023437 12.77709961 4.24023438 C11.9334082 4.24958008 11.0897168 4.25892578 10.22045898 4.26855469 C-12.73003242 4.58610082 -35.28940334 5.76227404 -57.22290039 13.24023438 C-58.82584961 13.77583984 -58.82584961 13.77583984 -60.46118164 14.32226562 C-70.47595005 17.90839228 -80.70651242 22.5874947 -88.22290039 30.24023438 C-88.88290039 30.24023438 -89.54290039 30.24023438 -90.22290039 30.24023438 C-90.49102539 30.81257813 -90.75915039 31.38492188 -91.03540039 31.97460938 C-92.26173605 34.31432873 -93.68121324 36.34728923 -95.22290039 38.49023438 C-98.08915122 42.70572036 -99.31508907 46.24727213 -100.22290039 51.24023438 C-100.55290039 51.24023438 -100.88290039 51.24023438 -101.22290039 51.24023438 C-101.55290039 53.88023438 -101.88290039 56.52023438 -102.22290039 59.24023438 C-106.09790039 57.49023438 -106.09790039 57.49023438 -107.22290039 55.24023438 C-107.35705511 52.56787228 -107.2660858 49.91772949 -107.22290039 47.24023438 C-107.88290039 47.24023438 -108.54290039 47.24023438 -109.22290039 47.24023438 C-108.89290039 45.92023438 -108.56290039 44.60023437 -108.22290039 43.24023438 C-107.56290039 43.24023438 -106.90290039 43.24023438 -106.22290039 43.24023438 C-106.22290039 42.25023437 -106.22290039 41.26023438 -106.22290039 40.24023438 C-105.23290039 40.24023438 -104.24290039 40.24023438 -103.22290039 40.24023438 C-102.72790039 37.27023438 -102.72790039 37.27023438 -102.22290039 34.24023438 C-101.56290039 34.24023438 -100.90290039 34.24023438 -100.22290039 34.24023438 C-100.22290039 33.58023438 -100.22290039 32.92023438 -100.22290039 32.24023438 C-97.92013465 30.02275625 -96.69809947 29.27263431 -93.47290039 29.05273438 C-92.35915039 29.14554688 -92.35915039 29.14554688 -91.22290039 29.24023438 C-91.55290039 28.25023438 -91.88290039 27.26023437 -92.22290039 26.24023438 C-91.23290039 25.91023438 -90.24290039 25.58023438 -89.22290039 25.24023438 C-88.48966243 23.22515079 -88.48966243 23.22515079 -88.22290039 21.24023438 C-86.57290039 20.91023438 -84.92290039 20.58023438 -83.22290039 20.24023438 C-83.22290039 19.25023438 -83.22290039 18.26023437 -83.22290039 17.24023438 C-80.58290039 16.58023438 -77.94290039 15.92023437 -75.22290039 15.24023438 C-75.22290039 14.58023438 -75.22290039 13.92023437 -75.22290039 13.24023438 C-69.37115284 10.83069126 -63.5762169 9.35898353 -57.40258789 7.99023438 C-51.9356044 6.70072476 -46.77005902 4.88311764 -41.5871582 2.72949219 C-37.45232763 1.18557786 -33.49510031 0.70200283 -29.10180664 0.56835938 C-28.33340958 0.53575012 -27.56501251 0.50314087 -26.77333069 0.46954346 C-17.85320573 0.12454502 -8.92609419 0.01847893 0 0 Z " fill="#C35452" transform="translate(151.222900390625,32.759765625)"/>
<path d="M0 0 C0.83383209 -0.0033284 1.66766418 -0.0066568 2.52676392 -0.01008606 C4.28655451 -0.01512259 6.04635455 -0.0174954 7.80615234 -0.01733398 C10.43474108 -0.01949684 13.06289284 -0.03762206 15.69140625 -0.05664062 C30.33086611 -0.10647628 44.82340722 0.76630377 59.1015625 4.23046875 C59.86210937 4.40384766 60.62265625 4.57722656 61.40625 4.75585938 C66.7668968 6.0006359 66.7668968 6.0006359 69.1015625 7.16796875 C69.1015625 7.82796875 69.1015625 8.48796875 69.1015625 9.16796875 C67.18424332 9.05341194 65.267695 8.92590617 63.3515625 8.79296875 C62.28421875 8.72335938 61.216875 8.65375 60.1171875 8.58203125 C57.1015625 8.16796875 57.1015625 8.16796875 55.28125 7.21166992 C45.18957624 2.37946727 31.15387042 3.89074078 20.23535156 3.9621582 C17.37035087 3.98034945 14.50567741 3.98266742 11.640625 3.98242188 C-10.33450402 3.40872563 -10.33450402 3.40872563 -31.6484375 7.60546875 C-32.28007813 7.82267578 -32.91171875 8.03988281 -33.5625 8.26367188 C-35.34752115 8.88028188 -37.12332571 9.5233863 -38.8984375 10.16796875 C-42.90807372 11.55552734 -46.90173489 12.72376134 -51.0234375 13.73046875 C-52.03664062 13.97925781 -53.04984375 14.22804688 -54.09375 14.484375 C-55.01929688 14.70996094 -55.94484375 14.93554688 -56.8984375 15.16796875 C-58.23202933 15.50026638 -59.56548018 15.83313497 -60.8984375 16.16796875 C-60.8984375 16.82796875 -60.8984375 17.48796875 -60.8984375 18.16796875 C-63.98653445 19.93259558 -65.13155886 20.16796875 -68.8984375 20.16796875 C-68.8984375 21.15796875 -68.8984375 22.14796875 -68.8984375 23.16796875 C-69.7028125 23.43609375 -70.5071875 23.70421875 -71.3359375 23.98046875 C-72.1815625 24.37234375 -73.0271875 24.76421875 -73.8984375 25.16796875 C-74.2284375 26.15796875 -74.5584375 27.14796875 -74.8984375 28.16796875 C-75.5584375 28.82796875 -76.2184375 29.48796875 -76.8984375 30.16796875 C-76.8984375 30.82796875 -76.8984375 31.48796875 -76.8984375 32.16796875 C-81.3984375 33.66796875 -81.3984375 33.66796875 -85.8984375 35.16796875 C-85.8984375 35.82796875 -85.8984375 36.48796875 -85.8984375 37.16796875 C-86.5584375 37.16796875 -87.2184375 37.16796875 -87.8984375 37.16796875 C-88.2284375 39.14796875 -88.5584375 41.12796875 -88.8984375 43.16796875 C-89.5584375 42.83796875 -90.2184375 42.50796875 -90.8984375 42.16796875 C-90.58013719 38.66666529 -90.30503226 36.65588246 -88.0234375 33.91796875 C-85.8984375 32.16796875 -85.8984375 32.16796875 -82.8984375 30.16796875 C-82.6303125 29.52859375 -82.3621875 28.88921875 -82.0859375 28.23046875 C-80.36755766 25.24591429 -77.98296872 24.50906928 -74.8984375 23.16796875 C-74.8984375 22.17796875 -74.8984375 21.18796875 -74.8984375 20.16796875 C-51.99400386 7.69525736 -26.22315887 0.03754758 0 0 Z " fill="#8D1920" transform="translate(136.8984375,29.83203125)"/>
<path d="M0 0 C6.27561622 1.17967565 11.93135479 2.94119424 17.75 5.5625 C18.52351807 5.90821045 19.29703613 6.2539209 20.09399414 6.61010742 C30.29701177 11.32949061 40.18361826 17.15689243 46 27 C46.6199585 27.72014282 46.6199585 27.72014282 47.25244141 28.45483398 C50.81217732 32.68644911 51.53776082 35.74075137 51.23706055 41.22094727 C51.15883057 42.07615967 51.08060059 42.93137207 51 43.8125 C50.93530518 44.69671631 50.87061035 45.58093262 50.80395508 46.49194336 C49.74037926 59.18582022 49.74037926 59.18582022 47 64 C44.89453125 65.74609375 44.89453125 65.74609375 43 67 C42.01 66.505 42.01 66.505 41 66 C41.33 66.99 41.66 67.98 42 69 C40.02 69.99 38.04 70.98 36 72 C35.67 71.67 35.34 71.34 35 71 C34.82984375 71.62648438 34.6596875 72.25296875 34.484375 72.8984375 C34.24203125 73.71570313 33.9996875 74.53296875 33.75 75.375 C33.51796875 76.18710938 33.2859375 76.99921875 33.046875 77.8359375 C31.76252336 80.49090321 30.70124464 80.95944273 28 82 C27.071875 82.495 27.071875 82.495 26.125 83 C23.4826367 84.24346508 20.78030246 85.11266943 18 86 C16.515 86.495 16.515 86.495 15 87 C15 87.66 15 88.32 15 89 C13.35 88.67 11.7 88.34 10 88 C10 87.01 10 86.02 10 85 C10.60585937 84.72027344 11.21171875 84.44054687 11.8359375 84.15234375 C24.70616393 77.99443541 35.59040674 70.07557026 42 57 C42.76040572 54.73014106 42.76040572 54.73014106 43 53 C44.32 53 45.64 53 47 53 C46.979375 52.195625 46.95875 51.39125 46.9375 50.5625 C47 48 47 48 48 47 C48.23075082 45.65252916 48.41153063 44.29622435 48.5625 42.9375 C48.706875 41.638125 48.85125 40.33875 49 39 C48.34 39 47.68 39 47 39 C46.5875 37.906875 46.175 36.81375 45.75 35.6875 C44.35888702 32.41969686 42.99829147 30.96762878 40 29 C37 25.57142857 37 25.57142857 37 22 C36.48050781 21.76925781 35.96101563 21.53851563 35.42578125 21.30078125 C30.71724934 19.09882455 27.65587499 16.75208222 24 13 C20.83354526 11.20679176 20.83354526 11.20679176 18 10 C18 9.34 18 8.68 18 8 C16.8553125 7.7834375 16.8553125 7.7834375 15.6875 7.5625 C13 7 13 7 10 6 C8.33378384 5.96125079 6.66605828 5.9549714 5 6 C5 5.34 5 4.68 5 4 C2.525 3.01 2.525 3.01 0 2 C0 1.34 0 0.68 0 0 Z " fill="#952626" transform="translate(207,38)"/>
<path d="M0 0 C1.74366433 3.07832098 2.35382021 5.69447698 2.8125 9.1875 C4.78829214 20.30501696 10.96400879 27.41041072 20 34 C51.77122231 55.21465004 97.46115692 58.22347692 133.98925781 51.4453125 C157.08487206 46.79605558 180.46090569 39.87009556 195 20 C196.80825506 16.71835192 198.29042047 13.68981358 199 10 C199.66 10 200.32 10 201 10 C200.84446872 17.15443866 197.37395447 21.53698399 193 27 C192.50757813 27.62003906 192.01515625 28.24007812 191.5078125 28.87890625 C178.39597631 43.51932438 155.97458392 50.15305906 137.30322266 53.57397461 C135.71428662 53.86787893 134.13055097 54.19086947 132.55224609 54.53735352 C123.17882805 56.41420883 113.8044619 56.33732066 104.28466797 56.31567383 C101.40162764 56.31252905 98.51963184 56.33598762 95.63671875 56.36132812 C80.00874324 56.41584812 65.21514022 54.65824567 50.1875 50.1875 C49.30787598 49.92960693 48.42825195 49.67171387 47.52197266 49.40600586 C35.99656249 45.91874906 25.98185409 40.747316 16 34 C15.01 33.34 14.02 32.68 13 32 C13 31.34 13 30.68 13 30 C12.41476563 29.76796875 11.82953125 29.5359375 11.2265625 29.296875 C6.19084993 26.36379329 3.1124779 20.2249558 0.5625 15.125 C-0.34124155 10.10421363 -0.14812976 5.0857883 0 0 Z " fill="#BB716D" transform="translate(49,80)"/>
<path d="M0 0 C2.84070445 -0.00976942 5.6807019 -0.04097301 8.52124023 -0.07226562 C19.87015172 -0.13666219 30.72063894 0.5348453 41.77709961 3.24023438 C42.27209961 3.73523437 42.27209961 3.73523437 42.77709961 4.24023438 C44.7902141 4.63592546 46.81307169 4.98275628 48.83959961 5.30273438 C49.94432617 5.47933594 51.04905273 5.6559375 52.18725586 5.83789062 C53.0419043 5.97066406 53.89655273 6.1034375 54.77709961 6.24023438 C54.77709961 5.58023438 54.77709961 4.92023437 54.77709961 4.24023438 C55.76709961 4.73523437 55.76709961 4.73523437 56.77709961 5.24023438 C56.77709961 5.90023437 56.77709961 6.56023438 56.77709961 7.24023438 C60.74903108 10.36963492 63.81940165 10.53186367 68.77709961 10.24023438 C68.77709961 10.90023437 68.77709961 11.56023438 68.77709961 12.24023438 C69.58147461 12.36398438 70.38584961 12.48773438 71.21459961 12.61523438 C72.06022461 12.82148437 72.90584961 13.02773438 73.77709961 13.24023438 C74.27209961 14.23023438 74.27209961 14.23023438 74.77709961 15.24023438 C75.89084961 15.39492188 75.89084961 15.39492188 77.02709961 15.55273438 C80.70746481 16.47282567 82.28658971 18.46509477 84.77709961 21.24023438 C84.28209961 22.72523437 84.28209961 22.72523437 83.77709961 24.24023438 C79.50843052 23.76593781 77.66776813 21.2050226 74.77709961 18.24023438 C73.29209961 17.74523438 73.29209961 17.74523438 71.77709961 17.24023438 C71.77709961 16.58023438 71.77709961 15.92023437 71.77709961 15.24023438 C71.1828418 15.43875 70.58858398 15.63726562 69.97631836 15.84179688 C66.86783319 16.40496826 65.1889024 14.94079548 62.51147461 13.48632812 C56.91176261 10.93445937 50.85914971 9.53079769 44.94140625 7.8894043 C42.73104714 7.22642123 40.59641782 6.43343161 38.43334961 5.63085938 C33.23574284 3.87209312 28.16456673 3.6854754 22.71459961 3.55273438 C21.75360352 3.51857422 20.79260742 3.48441406 19.80249023 3.44921875 C17.46081034 3.36766771 15.11946098 3.29822472 12.77709961 3.24023438 C12.77709961 3.57023437 12.77709961 3.90023437 12.77709961 4.24023438 C-5.37290039 4.24023438 -23.52290039 4.24023438 -42.22290039 4.24023438 C-37.82044152 1.3052618 -34.66132753 0.95540214 -29.47680664 0.69335938 C-28.68133926 0.65172668 -27.88587189 0.61009399 -27.06629944 0.56719971 C-18.04702189 0.13207895 -9.02868615 0.01869132 0 0 Z " fill="#C33536" transform="translate(151.222900390625,32.759765625)"/>
<path d="M0 0 C1.125 3.75 1.125 3.75 0 6 C-1.65584832 6.50689234 -3.31588187 7.00321178 -4.99212646 7.43792725 C-7.31096791 8.052079 -7.31096791 8.052079 -10.68847656 9.43066406 C-26.71253035 15.49125044 -43.35635311 15.5204208 -60.25 15.25 C-62.47133776 15.22987095 -64.69269348 15.2116317 -66.9140625 15.1953125 C-72.27644353 15.15190192 -77.63813337 15.08551529 -83 15 C-83 14.34 -83 13.68 -83 13 C-78.83602081 12.00150242 -74.90450579 11.86104767 -70.62890625 11.82421875 C-69.16315016 11.80428405 -67.69741096 11.78307542 -66.23168945 11.76074219 C-65.46909821 11.74958374 -64.70650696 11.73842529 -63.92080688 11.72692871 C-41.64541451 11.35450474 -20.75692374 8.55389296 0 0 Z " fill="#780F0F" transform="translate(215,124)"/>
<path d="M0 0 C1.58206057 0.00667536 3.16410534 0.0186375 4.74609375 0.03515625 C5.55240234 0.03966797 6.35871094 0.04417969 7.18945312 0.04882812 C9.18753131 0.06065107 11.18557158 0.07858711 13.18359375 0.09765625 C12.43378098 3.43327196 11.59954049 5.59223 9.18359375 8.09765625 C7.86359375 8.09765625 6.54359375 8.09765625 5.18359375 8.09765625 C5.18359375 9.41765625 5.18359375 10.73765625 5.18359375 12.09765625 C4.52359375 12.09765625 3.86359375 12.09765625 3.18359375 12.09765625 C2.85359375 13.08765625 2.52359375 14.07765625 2.18359375 15.09765625 C0.74619862 15.12477691 -0.69134488 15.14410692 -2.12890625 15.16015625 C-3.32966797 15.17755859 -3.32966797 15.17755859 -4.5546875 15.1953125 C-6.81640625 15.09765625 -6.81640625 15.09765625 -9.81640625 14.09765625 C-9.94015625 14.86078125 -10.06390625 15.62390625 -10.19140625 16.41015625 C-10.81640625 19.09765625 -10.81640625 19.09765625 -12.81640625 22.09765625 C-13.80640625 21.43765625 -14.79640625 20.77765625 -15.81640625 20.09765625 C-15.34943321 14.99986718 -12.78198651 11.81823871 -9.81640625 7.84765625 C-9.35234375 7.21085937 -8.88828125 6.5740625 -8.41015625 5.91796875 C-4.15655333 0.10636012 -4.15655333 0.10636012 0 0 Z " fill="#C4172A" transform="translate(114.81640625,56.90234375)"/>
<path d="M0 0 C0.33 0 0.66 0 1 0 C1.09796875 0.69867188 1.1959375 1.39734375 1.296875 2.1171875 C1.44640625 3.02726562 1.5959375 3.93734375 1.75 4.875 C1.88921875 5.77992187 2.0284375 6.68484375 2.171875 7.6171875 C2.75236645 10.15082033 2.75236645 10.15082033 4.9609375 11.0625 C5.63382813 11.371875 6.30671875 11.68125 7 12 C8.0546875 13.8828125 8.0546875 13.8828125 8.875 16.125 C10.94215474 21.1944509 13.90380596 27.45190298 19 30 C19 30.66 19 31.32 19 32 C19.82177734 32.38671875 19.82177734 32.38671875 20.66015625 32.78125 C24.35453233 34.7055327 27.76649697 37.05950844 31.24609375 39.34375 C33.78491089 40.87064144 36.22132447 41.99140634 39 43 C38.505 43.99 38.505 43.99 38 45 C32.55072464 46.27536232 32.55072464 46.27536232 30 45 C29.67 45.66 29.34 46.32 29 47 C27.02 46.01 25.04 45.02 23 44 C23.66 43.34 24.32 42.68 25 42 C24.48050781 41.69707031 23.96101563 41.39414063 23.42578125 41.08203125 C19.04212581 38.44859683 15.4947506 35.78597982 12 32 C11.236875 31.34 10.47375 30.68 9.6875 30 C8 28 8 28 8.0625 25.4375 C8.041875 24.633125 8.02125 23.82875 8 23 C5.55503957 21.28288757 5.55503957 21.28288757 3 20 C3 19.34 3 18.68 3 18 C2.01 17.67 1.02 17.34 0 17 C0 11.39 0 5.78 0 0 Z " fill="#7E1B1C" transform="translate(43,80)"/>
<path d="M0 0 C2.97922593 -0.02683987 5.95821295 -0.04676037 8.9375 -0.0625 C9.78763672 -0.07087891 10.63777344 -0.07925781 11.51367188 -0.08789062 C12.32255859 -0.09111328 13.13144531 -0.09433594 13.96484375 -0.09765625 C14.7137085 -0.10289307 15.46257324 -0.10812988 16.23413086 -0.11352539 C18 0 18 0 19 1 C19.15655027 2.48638992 19.25066943 3.97949127 19.31640625 5.47265625 C19.35830078 6.37177734 19.40019531 7.27089844 19.44335938 8.19726562 C19.48267578 9.14279297 19.52199219 10.08832031 19.5625 11.0625 C19.60568359 12.01189453 19.64886719 12.96128906 19.69335938 13.93945312 C19.79979276 16.29281353 19.90181008 18.64628354 20 21 C19.01 21 18.02 21 17 21 C17 15.06 17 9.12 17 3 C16.34 4.32 15.68 5.64 15 7 C12.32209537 7.83886169 9.8262059 7.81766414 7 8 C7.01160156 8.66386719 7.02320312 9.32773438 7.03515625 10.01171875 C7.08126342 14.52363434 6.93075846 18.5788973 6 23 C5.91442088 25.67308898 5.95465142 28.3244337 6 31 C5.67 31 5.34 31 5 31 C4.67 39.58 4.34 48.16 4 57 C3.67 57 3.34 57 3 57 C3 39.51 3 22.02 3 4 C2.01 4 1.02 4 0 4 C0 2.68 0 1.36 0 0 Z " fill="#AB1E2B" transform="translate(77,57)"/>
<path d="M0 0 C5.72456446 3.92541563 8.75420379 8.9151713 11.3125 15.25 C13.4594989 26.96090311 11.68806743 36.12832702 4.9453125 46.01171875 C-0.48381395 52.74646558 -0.48381395 52.74646558 -4.359375 53.39453125 C-6.5625 53.125 -6.5625 53.125 -10 52 C-9.34 50.35 -8.68 48.7 -8 47 C-7.01 47 -6.02 47 -5 47 C-4.01 46.34 -3.02 45.68 -2 45 C-2 44.34 -2 43.68 -2 43 C-0.02 42.34 1.96 41.68 4 41 C4.144375 39.72125 4.28875 38.4425 4.4375 37.125 C4.70642746 34.74307106 4.92226346 33.15547309 6 31 C7.95606071 19.14333061 7.95606071 19.14333061 5.50390625 7.74609375 C3.78230605 5.64345527 1.98221798 3.84875193 0 2 C0 1.34 0 0.68 0 0 Z " fill="#781115" transform="translate(250,61)"/>
<path d="M0 0 C2.9719385 1.12451727 5.33440687 2.22293791 8 4 C8.69100553 5.99172182 9.35902703 7.99161804 10 10 C10.66 10.33 11.32 10.66 12 11 C17 16.35714286 17 16.35714286 17 21 C17.66 21 18.32 21 19 21 C19.1799928 26.21979128 18.97094808 30.07262981 17 35 C15.35 34.67 13.7 34.34 12 34 C11.87882813 32.98679688 11.75765625 31.97359375 11.6328125 30.9296875 C11.46386217 29.5780849 11.29457331 28.22652458 11.125 26.875 C11.04636719 26.20984375 10.96773437 25.5446875 10.88671875 24.859375 C10.02321724 18.08420931 8.65767094 13.09432759 4 8 C3.34 7.67 2.68 7.34 2 7 C2 6.01 2 5.02 2 4 C1.34 4 0.68 4 0 4 C0 2.68 0 1.36 0 0 Z " fill="#C35451" transform="translate(237,56)"/>
<path d="M0 0 C6.27561622 1.17967565 11.93135479 2.94119424 17.75 5.5625 C18.52351807 5.90821045 19.29703613 6.2539209 20.09399414 6.61010742 C30.29701177 11.32949061 40.18361826 17.15689243 46 27 C47.31915066 28.79848168 48.65433321 30.58175598 50.01171875 32.3515625 C51 34 51 34 51 37 C50.34 37 49.68 37 49 37 C47.21694476 34.36107824 46.00940379 32.02821137 45 29 C44.34 29 43.68 29 43 29 C43 28.34 43 27.68 43 27 C42.34 26.67 41.68 26.34 41 26 C40.7525 25.175 40.505 24.35 40.25 23.5 C39.8375 22.675 39.425 21.85 39 21 C36.10615338 20.2397871 36.10615338 20.2397871 33 20 C30.10371343 18.94680488 28.81567602 17.81082539 26.625 15.5625 C23.91051984 12.91265032 21.44806867 11.52356523 18 10 C18 9.34 18 8.68 18 8 C16.8553125 7.7834375 16.8553125 7.7834375 15.6875 7.5625 C13 7 13 7 10 6 C8.33378384 5.96125079 6.66605828 5.9549714 5 6 C5 5.34 5 4.68 5 4 C2.525 3.01 2.525 3.01 0 2 C0 1.34 0 0.68 0 0 Z " fill="#8E1521" transform="translate(207,38)"/>
<path d="M0 0 C6.27 0 12.54 0 19 0 C19 18.81 19 37.62 19 57 C18.67 57 18.34 57 18 57 C17.12550434 38.64722007 16.88106008 20.36961004 17 2 C10.565 2.495 10.565 2.495 4 3 C4 12.24 4 21.48 4 31 C3.67 31 3.34 31 3 31 C3 22.09 3 13.18 3 4 C2.01 4 1.02 4 0 4 C0 2.68 0 1.36 0 0 Z " fill="#AB4A53" transform="translate(139,57)"/>
<path d="M0 0 C1.00627441 -0.00459229 2.01254883 -0.00918457 3.04931641 -0.01391602 C8.58516675 -0.00237338 13.89907359 0.30556208 19.375 1.125 C19.375 2.115 19.375 3.105 19.375 4.125 C1.225 4.125 -16.925 4.125 -35.625 4.125 C-31.25938454 1.21458969 -28.1414279 0.83158615 -23 0.5625 C-22.21963379 0.5207666 -21.43926758 0.4790332 -20.63525391 0.43603516 C-13.75785011 0.10828493 -6.88456279 0.01749504 0 0 Z " fill="#B34946" transform="translate(144.625,32.875)"/>
<path d="M0 0 C0.33 0 0.66 0 1 0 C1.03738281 0.85722656 1.07476562 1.71445313 1.11328125 2.59765625 C1.67150646 12.30639662 2.96698096 18.96698096 10 26 C11.32 26 12.64 26 14 26 C14 27.65 14 29.3 14 31 C14.556875 31.2475 15.11375 31.495 15.6875 31.75 C18.42053967 33.22731874 20.59281178 35.03048237 23 37 C25.65426607 39.01664908 28.32608824 41.00949497 31 43 C29.3203125 43.67578125 29.3203125 43.67578125 27 44 C15.79210448 39.04059575 6.11386129 29.36785565 0.984375 18.31640625 C-0.81704664 12.24733095 -0.46301255 6.27639238 0 0 Z " fill="#670F11" transform="translate(38,79)"/>
<path d="M0 0 C0.66 0.66 1.32 1.32 2 2 C1.360625 2.433125 0.72125 2.86625 0.0625 3.3125 C-3.90326085 8.48000656 -3.0457643 15.69596745 -3 22 C-3.33 22 -3.66 22 -4 22 C-4.33 24.64 -4.66 27.28 -5 30 C-8.875 28.25 -8.875 28.25 -10 26 C-10.13415472 23.3276379 -10.04318541 20.67749512 -10 18 C-10.66 18 -11.32 18 -12 18 C-11.67 16.68 -11.34 15.36 -11 14 C-10.34 14 -9.68 14 -9 14 C-9 13.01 -9 12.02 -9 11 C-8.01 11 -7.02 11 -6 11 C-5.67 9.02 -5.34 7.04 -5 5 C-4.34 5 -3.68 5 -3 5 C-3 4.34 -3 3.68 -3 3 C-1.5 1.375 -1.5 1.375 0 0 Z " fill="#C0403F" transform="translate(54,62)"/>
<path d="M0 0 C1.58206057 0.00667536 3.16410534 0.0186375 4.74609375 0.03515625 C5.55240234 0.03966797 6.35871094 0.04417969 7.18945312 0.04882812 C9.18753131 0.06065107 11.18557158 0.07858711 13.18359375 0.09765625 C12.4481861 3.43150429 11.484899 5.52019437 9.18359375 8.09765625 C8.52359375 8.09765625 7.86359375 8.09765625 7.18359375 8.09765625 C6.85359375 6.11765625 6.52359375 4.13765625 6.18359375 2.09765625 C3.21359375 2.09765625 0.24359375 2.09765625 -2.81640625 2.09765625 C-2.81640625 3.08765625 -2.81640625 4.07765625 -2.81640625 5.09765625 C-3.45578125 5.32453125 -4.09515625 5.55140625 -4.75390625 5.78515625 C-5.43453125 6.21828125 -6.11515625 6.65140625 -6.81640625 7.09765625 C-7.18511713 8.75685521 -7.51235947 10.42539896 -7.81640625 12.09765625 C-8.46537451 13.88297055 -9.1532773 15.65460233 -9.87890625 17.41015625 C-10.24113281 18.29316406 -10.60335937 19.17617187 -10.9765625 20.0859375 C-11.39228516 21.08173828 -11.39228516 21.08173828 -11.81640625 22.09765625 C-13.13640625 21.43765625 -14.45640625 20.77765625 -15.81640625 20.09765625 C-15.34943321 14.99986718 -12.78198651 11.81823871 -9.81640625 7.84765625 C-9.35234375 7.21085937 -8.88828125 6.5740625 -8.41015625 5.91796875 C-4.15655333 0.10636012 -4.15655333 0.10636012 0 0 Z " fill="#B11C31" transform="translate(114.81640625,56.90234375)"/>
<path d="M0 0 C0.99 0.33 1.98 0.66 3 1 C3.9140625 3.328125 3.9140625 3.328125 4.625 6.25 C4.86476562 7.20390625 5.10453125 8.1578125 5.3515625 9.140625 C5.94413347 11.75364882 6.49118153 14.36950453 7 17 C9.64 17 12.28 17 15 17 C14.67 16.34 14.34 15.68 14 15 C13.8125 11.5 13.8125 11.5 14 8 C14.66 7.34 15.32 6.68 16 6 C15.67 5.67 15.34 5.34 15 5 C14.95936168 3.33382885 14.957279 1.66611905 15 0 C17.14642449 3.21963674 18.35881354 6.44429859 19.625 10.0625 C19.96917969 11.01866211 19.96917969 11.01866211 20.3203125 11.99414062 C22 16.738258 22 16.738258 22 19 C16.72 19 11.44 19 6 19 C4.02 12.73 2.04 6.46 0 0 Z " fill="#83161D" transform="translate(202,95)"/>
<path d="M0 0 C0.33 0 0.66 0 1 0 C1.09796875 0.69867188 1.1959375 1.39734375 1.296875 2.1171875 C1.44640625 3.02726562 1.5959375 3.93734375 1.75 4.875 C1.88921875 5.77992187 2.0284375 6.68484375 2.171875 7.6171875 C2.75277703 10.15054517 2.75277703 10.15054517 4.9609375 11.06640625 C5.63382813 11.37449219 6.30671875 11.68257812 7 12 C8.0546875 13.84765625 8.0546875 13.84765625 8.875 16.0625 C10.95170373 21.17949799 13.81525351 25.50950745 17 30 C13.61976483 30 11.16531063 29.12544378 8 28 C8.103125 27.236875 8.20625 26.47375 8.3125 25.6875 C8.209375 24.800625 8.10625 23.91375 8 23 C5.55503957 21.28288757 5.55503957 21.28288757 3 20 C3 19.34 3 18.68 3 18 C2.01 17.67 1.02 17.34 0 17 C0 11.39 0 5.78 0 0 Z " fill="#A03137" transform="translate(43,80)"/>
<path d="M0 0 C7.59 0 15.18 0 23 0 C23 0.99 23 1.98 23 3 C22.01 3.66 21.02 4.32 20 5 C19.34 4.67 18.68 4.34 18 4 C16.62657169 3.9310528 15.24997898 3.91532292 13.875 3.9375 C12.59625 3.958125 11.3175 3.97875 10 4 C9.67 4.99 9.34 5.98 9 7 C7.35 7 5.7 7 4 7 C3.01 10.3 2.02 13.6 1 17 C0.34 17 -0.32 17 -1 17 C-0.52140759 15.39566191 -0.04210442 13.79153584 0.4375 12.1875 C0.70433594 11.29417969 0.97117188 10.40085937 1.24609375 9.48046875 C1.80387873 7.64526945 2.39344575 5.81966274 3 4 C2.01 4 1.02 4 0 4 C0 2.68 0 1.36 0 0 Z " fill="#B83844" transform="translate(182,57)"/>
<path d="M0 0 C0.66 0 1.32 0 2 0 C6 5.41176471 6 5.41176471 6 8 C6.66 8 7.32 8 8 8 C12.49514936 13.04001595 13.1996025 16.866926 13.25 23.4375 C13.28867187 25.41556641 13.28867187 25.41556641 13.328125 27.43359375 C12.98491188 31.16399349 12.46173053 32.31615844 10 35 C9.28837557 36.64797236 8.60968047 38.31165408 8 40 C7.34 40 6.68 40 6 40 C6 40.66 6 41.32 6 42 C4.68 41.67 3.36 41.34 2 41 C2.474375 40.2575 2.94875 39.515 3.4375 38.75 C4.77869327 36.38949985 5.512312 34.63351523 6 32 C7.32 32 8.64 32 10 32 C9.979375 31.195625 9.95875 30.39125 9.9375 29.5625 C10 27 10 27 11 26 C11.23075082 24.65252916 11.41153063 23.29622435 11.5625 21.9375 C11.706875 20.638125 11.85125 19.33875 12 18 C11.34 18 10.68 18 10 18 C9.38125 16.3603125 9.38125 16.3603125 8.75 14.6875 C7.35888702 11.41969686 5.99829147 9.96762878 3 8 C0.24016044 4.94446335 0 4.3384957 0 0 Z " fill="#AF262D" transform="translate(244,59)"/>
<path d="M0 0 C4.88891238 -0.02503974 9.77778603 -0.0430178 14.66674805 -0.05493164 C16.32398124 -0.05990735 17.98121017 -0.06669032 19.63842773 -0.07543945 C47.18239548 -0.21703227 47.18239548 -0.21703227 58 4 C50.07458976 7.96270512 36.5185352 4.03929841 28 3 C28 2.34 28 1.68 28 1 C18.76 1 9.52 1 0 1 C0 0.67 0 0.34 0 0 Z " fill="#BF5D5B" transform="translate(136,35)"/>
<path d="M0 0 C5.45889611 2.40833652 8.20209628 6.93300598 11 12 C11 12.66 11 13.32 11 14 C5.39 14 -0.22 14 -6 14 C-4 12 -4 12 -1 10 C0.06246527 8.03247172 1.07137808 6.03412421 2 4 C1.34 4 0.68 4 0 4 C0 2.68 0 1.36 0 0 Z " fill="#9A1425" transform="translate(120,100)"/>
<path d="M0 0 C1.35865782 4.07597347 -0.05431183 6.81762578 -1.4375 10.6875 C-2.283125 13.100625 -3.12875 15.51375 -4 18 C-9.28 18 -14.56 18 -20 18 C-17.05357143 6.88392857 -17.05357143 6.88392857 -15 2 C-14.34 2.33 -13.68 2.66 -13 3 C-12.1875 6.375 -12.1875 6.375 -12 10 C-13.375 11.6875 -13.375 11.6875 -15 13 C-15.33 14.32 -15.66 15.64 -16 17 C-12.7 16.67 -9.4 16.34 -6 16 C-5.566875 14.659375 -5.13375 13.31875 -4.6875 11.9375 C-3.32851036 7.84758831 -1.75751346 3.93348251 0 0 Z " fill="#961720" transform="translate(188,96)"/>
<path d="M0 0 C-0.33 0.66 -0.66 1.32 -1 2 C-3.17382812 2.5625 -3.17382812 2.5625 -6.03125 3 C-7.07023437 3.165 -8.10921875 3.33 -9.1796875 3.5 C-10.27539062 3.665 -11.37109375 3.83 -12.5 4 C-14.63578439 4.33096901 -16.77120902 4.66426874 -18.90625 5 C-19.9375 5.15984375 -20.96875 5.3196875 -22.03125 5.484375 C-24.78019648 5.9618236 -27.45069606 6.57361152 -30.15625 7.25 C-31.4246875 7.4975 -32.693125 7.745 -34 8 C-34.66 7.34 -35.32 6.68 -36 6 C-34.35 5.34 -32.7 4.68 -31 4 C-31 3.67 -31 3.34 -31 3 C-29.35 3 -27.7 3 -26 3 C-26 2.34 -26 1.68 -26 1 C-17.31008699 0.20354316 -8.72542301 -0.12852505 0 0 Z " fill="#C05E5C" transform="translate(133,36)"/>
<path d="M0 0 C1.84754883 -0.01836914 1.84754883 -0.01836914 3.73242188 -0.03710938 C5.50649414 -0.04000977 5.50649414 -0.04000977 7.31640625 -0.04296875 C8.3947876 -0.04707764 9.47316895 -0.05118652 10.58422852 -0.05541992 C13.40291496 0.18455552 15.0453535 0.72982522 17.4375 2.1875 C13.64212369 3.4062375 10.00958379 3.30088128 6.046875 3.28515625 C5.34226135 3.2837413 4.63764771 3.28232635 3.91168213 3.28086853 C1.67024416 3.27528933 -0.57109243 3.26274073 -2.8125 3.25 C-4.33593605 3.24498231 -5.85937368 3.24041987 -7.3828125 3.23632812 C-11.10940772 3.22532674 -14.83594396 3.20807646 -18.5625 3.1875 C-18.5625 2.5275 -18.5625 1.8675 -18.5625 1.1875 C-12.41395372 -0.23949795 -6.28075038 0.00329698 0 0 Z " fill="#841C15" transform="translate(150.5625,135.8125)"/>
<path d="M0 0 C13.46183624 -0.71268545 27.29117146 1.49762607 40 6 C40 6.66 40 7.32 40 8 C38.08268082 7.88544319 36.1661325 7.75793742 34.25 7.625 C33.18265625 7.55539063 32.1153125 7.48578125 31.015625 7.4140625 C28 7 28 7 26.1640625 6.04101562 C23.56283329 4.78970229 21.20857668 4.38434734 18.359375 3.9296875 C16.75449219 3.66865234 16.75449219 3.66865234 15.1171875 3.40234375 C14.00601563 3.22832031 12.89484375 3.05429687 11.75 2.875 C10.62335938 2.69324219 9.49671875 2.51148438 8.3359375 2.32421875 C5.558175 1.87695191 2.77958424 1.4357769 0 1 C0 0.67 0 0.34 0 0 Z " fill="#861519" transform="translate(166,31)"/>
<path d="M0 0 C0.66 1.65 1.32 3.3 2 5 C-0.66866119 7.19211455 -2.64989313 8.26716412 -6 9 C-6.680625 9.350625 -7.36125 9.70125 -8.0625 10.0625 C-10 11 -10 11 -13 11 C-13 11.66 -13 12.32 -13 13 C-14.65 12.67 -16.3 12.34 -18 12 C-18 11.01 -18 10.02 -18 9 C-17.02160156 8.52820313 -17.02160156 8.52820313 -16.0234375 8.046875 C-10.09546957 5.15775494 -10.09546957 5.15775494 -4.5 1.6875 C-2 0 -2 0 0 0 Z " fill="#82191B" transform="translate(235,114)"/>
<path d="M0 0 C1.65 0 3.3 0 5 0 C5.33 0.99 5.66 1.98 6 3 C4.7934375 3.4021875 4.7934375 3.4021875 3.5625 3.8125 C2.716875 4.204375 1.87125 4.59625 1 5 C0.67 5.99 0.34 6.98 0 8 C-0.66 8.66 -1.32 9.32 -2 10 C-2 10.66 -2 11.32 -2 12 C-5 13 -8 14 -11 15 C-11 15.66 -11 16.32 -11 17 C-11.66 17 -12.32 17 -13 17 C-13.33 18.98 -13.66 20.96 -14 23 C-14.66 22.67 -15.32 22.34 -16 22 C-15.68169969 18.49869654 -15.40659476 16.48791371 -13.125 13.75 C-11 12 -11 12 -8 10 C-7.731875 9.360625 -7.46375 8.72125 -7.1875 8.0625 C-5.46912016 5.07794554 -3.08453122 4.34110053 0 3 C0 2.01 0 1.02 0 0 Z " fill="#B5222C" transform="translate(62,50)"/>
<path d="M0 0 C1.125 3.75 1.125 3.75 0 6 C-6.25389494 8.04454258 -12.26463482 9.09951963 -18.8125 9.5625 C-19.97394531 9.64628906 -21.13539063 9.73007813 -22.33203125 9.81640625 C-23.21246094 9.87699219 -24.09289062 9.93757812 -25 10 C-25 9.34 -25 8.68 -25 8 C-23.78183594 7.67386719 -22.56367188 7.34773437 -21.30859375 7.01171875 C-19.68482345 6.57057884 -18.06112956 6.12915761 -16.4375 5.6875 C-15.63763672 5.47416016 -14.83777344 5.26082031 -14.01367188 5.04101562 C-9.1337205 3.70649831 -4.60119753 2.10605149 0 0 Z " fill="#821211" transform="translate(215,124)"/>
<path d="M0 0 C3.375 -0.1875 3.375 -0.1875 7 0 C7.66 0.99 8.32 1.98 9 3 C12.08365871 3.2502157 12.08365871 3.2502157 15 3 C15 3.99 15 4.98 15 6 C16.155 6.103125 17.31 6.20625 18.5 6.3125 C23.01171519 6.86035113 26.80605749 8.2774879 31 10 C31 10.66 31 11.32 31 12 C9.09612179 7.30443808 9.09612179 7.30443808 1 3 C0.67 2.01 0.34 1.02 0 0 Z " fill="#611317" transform="translate(73,125)"/>
<path d="M0 0 C0.66 0 1.32 0 2 0 C1.76665963 5.71683898 0.38564218 8.10350192 -3.5 12.22265625 C-5.77001718 14.91239015 -6.79269657 17.71345178 -8 21 C-8.66 21 -9.32 21 -10 21 C-9.67 17.37 -9.34 13.74 -9 10 C-8.01 9.67 -7.02 9.34 -6 9 C-5.690625 8.34 -5.38125 7.68 -5.0625 7 C-4 5 -4 5 -1.875 4.25 C-1.25625 4.1675 -0.6375 4.085 0 4 C-0.33 3.01 -0.66 2.02 -1 1 C-0.67 0.67 -0.34 0.34 0 0 Z " fill="#C95A57" transform="translate(60,58)"/>
<path d="M0 0 C6.45267998 4.42469484 9.78419337 9.90151773 11.3125 17.5 C11.55830221 18.9973639 11.79360398 20.49669762 12 22 C11.01 22.33 10.02 22.66 9 23 C8.67 26.3 8.34 29.6 8 33 C7.01 33 6.02 33 5 33 C5.33 32.34 5.66 31.68 6 31 C7.95606071 19.14333061 7.95606071 19.14333061 5.50390625 7.74609375 C3.78230605 5.64345527 1.98221798 3.84875193 0 2 C0 1.34 0 0.68 0 0 Z " fill="#81161F" transform="translate(250,61)"/>
<path d="M0 0 C0.66 0.66 1.32 1.32 2 2 C-12.52 2.33 -27.04 2.66 -42 3 C-39.0990022 0.0990022 -35.97445811 0.51872532 -32.0703125 0.33203125 C-31.28357147 0.28809738 -30.49683044 0.24416351 -29.68624878 0.19889832 C-28.02040193 0.10798836 -26.35429673 0.02171264 -24.68798828 -0.06030273 C-22.14147804 -0.18668222 -19.59628363 -0.32946892 -17.05078125 -0.47460938 C-15.43234366 -0.56087677 -13.8138551 -0.64619441 -12.1953125 -0.73046875 C-11.4347757 -0.77310349 -10.67423889 -0.81573822 -9.89065552 -0.85966492 C-2.9789183 -1.18552471 -2.9789183 -1.18552471 0 0 Z " fill="#AA2225" transform="translate(168,31)"/>
<path d="M0 0 C4.56937788 0.62031707 8.93313716 2.16533062 13.3125 3.5625 C14.05306641 3.79646484 14.79363281 4.03042969 15.55664062 4.27148438 C17.37183405 4.84531972 19.18602006 5.42234011 21 6 C20.67 6.99 20.34 7.98 20 9 C18.20793453 8.85915204 16.41635083 8.71216299 14.625 8.5625 C13.62726563 8.48128906 12.62953125 8.40007812 11.6015625 8.31640625 C9 8 9 8 7 7 C7 6.01 7 5.02 7 4 C5.02 4.33 3.04 4.66 1 5 C0.34 3.68 -0.32 2.36 -1 1 C-0.67 0.67 -0.34 0.34 0 0 Z " fill="#811617" transform="translate(81,124)"/>
<path d="M0 0 C2.97922593 -0.02683987 5.95821295 -0.04676037 8.9375 -0.0625 C9.78763672 -0.07087891 10.63777344 -0.07925781 11.51367188 -0.08789062 C12.32255859 -0.09111328 13.13144531 -0.09433594 13.96484375 -0.09765625 C14.7137085 -0.10289307 15.46257324 -0.10812988 16.23413086 -0.11352539 C18 0 18 0 19 1 C19.15655027 2.48638992 19.25066943 3.97949127 19.31640625 5.47265625 C19.35830078 6.37177734 19.40019531 7.27089844 19.44335938 8.19726562 C19.48267578 9.14279297 19.52199219 10.08832031 19.5625 11.0625 C19.60568359 12.01189453 19.64886719 12.96128906 19.69335938 13.93945312 C19.79979276 16.29281353 19.90181008 18.64628354 20 21 C19.01 21 18.02 21 17 21 C17 14.73 17 8.46 17 2 C11.72 2 6.44 2 1 2 C0.67 1.34 0.34 0.68 0 0 Z " fill="#AF4B52" transform="translate(77,57)"/>
<path d="M0 0 C3.20792369 1.60396185 4.8849773 4.16141691 7 7 C7 8.32 7 9.64 7 11 C7.66 11 8.32 11 9 11 C9.1799928 16.21979128 8.97094808 20.07262981 7 25 C5.35 24.67 3.7 24.34 2 24 C2 21.36 2 18.72 2 16 C2.66 17.32 3.32 18.64 4 20 C4.66 20 5.32 20 6 20 C6 17.03 6 14.06 6 11 C5.34 10.67 4.68 10.34 4 10 C3.855625 9.195625 3.71125 8.39125 3.5625 7.5625 C3.23497283 4.65559342 3.23497283 4.65559342 0 3 C0 2.01 0 1.02 0 0 Z " fill="#C24442" transform="translate(247,66)"/>
<path d="M0 0 C3.06967651 3.06967651 3.01984365 7.23840399 3.59179688 11.4140625 C4.20652093 15.06645805 4.77348025 16.78484174 7.4921875 19.3671875 C8.31976563 19.90601562 9.14734375 20.44484375 10 21 C11.0173873 21.98230498 12.02596117 22.97469597 13 24 C12.67 24.66 12.34 25.32 12 26 C10.68 26 9.36 26 8 26 C5.57338309 22.85967224 3.67499602 19.58927718 2 16 C1.65453125 15.43023437 1.3090625 14.86046875 0.953125 14.2734375 C-0.28441152 11.32160859 -0.19431436 8.93846064 -0.125 5.75 C-0.10695312 4.67234375 -0.08890625 3.5946875 -0.0703125 2.484375 C-0.04710937 1.66453125 -0.02390625 0.8446875 0 0 Z " fill="#7F0911" transform="translate(39,80)"/>
<path d="M0 0 C3.5219721 -0.08004482 6.61981469 -0.04005702 10 1 C10 1.66 10 2.32 10 3 C10.556875 3.268125 11.11375 3.53625 11.6875 3.8125 C14.22621704 5.11616551 16.65291559 6.37008027 19 8 C19 8.99 19 9.98 19 11 C18.34 11 17.68 11 17 11 C17 10.34 17 9.68 17 9 C16.01 9.33 15.02 9.66 14 10 C11.9375 9.125 11.9375 9.125 10 8 C9.34 7.67 8.68 7.34 8 7 C6.61162284 6.01865711 5.23807277 5.01619762 3.875 4 C3.15054688 3.46375 2.42609375 2.9275 1.6796875 2.375 C1.12539063 1.92125 0.57109375 1.4675 0 1 C0 0.67 0 0.34 0 0 Z " fill="#912420" transform="translate(52,109)"/>
<path d="M0 0 C0.55171875 0.71800781 1.1034375 1.43601562 1.671875 2.17578125 C4.8289505 6.00558928 8.38315143 9.35196821 11.953125 12.79296875 C14 15 14 15 14 17 C13.01 17.33 12.02 17.66 11 18 C8.47411298 15.63707344 7.11179163 14.33537489 6 11 C4.68 11 3.36 11 2 11 C1.01 7.7 0.02 4.4 -1 1 C-0.67 0.67 -0.34 0.34 0 0 Z " fill="#EDECE3" transform="translate(41,101)"/>
<path d="M0 0 C5.77513082 0.58663857 11.07424136 1.69779235 16.625 3.375 C17.34945312 3.58382812 18.07390625 3.79265625 18.8203125 4.0078125 C23.1310215 5.28853039 27.02362099 6.85501321 31 9 C30.01 9.66 29.02 10.32 28 11 C25.42495839 10.21904476 23.09056208 9.35718065 20.625 8.3125 C13.49550852 5.44733154 6.55663387 3.47509634 -1 2 C-0.67 1.34 -0.34 0.68 0 0 Z " fill="#B86C6A" transform="translate(188,39)"/>
<path d="M0 0 C5.61 0 11.22 0 17 0 C16.07689062 3.69243752 15.45048444 5.25545743 13 8 C12.34 8 11.68 8 11 8 C10.67 6.02 10.34 4.04 10 2 C6.7 2 3.4 2 0 2 C0 1.34 0 0.68 0 0 Z " fill="#AE3A49" transform="translate(111,57)"/>
<path d="M0 0 C2.78478096 3.26491561 3.99473292 6.41569816 5.25 10.5 C5.60578125 11.6240625 5.9615625 12.748125 6.328125 13.90625 C6.96531293 16.84027816 7.05275565 18.24663906 6 21 C4 19 4 19 3.0625 16.0625 C2.04912821 13.14160484 1.33927607 11.91395315 -1 10 C-0.34 9.34 0.32 8.68 1 8 C0.34 8 -0.32 8 -1 8 C-0.67 7.01 -0.34 6.02 0 5 C-0.31478446 3.66216607 -0.64587656 2.32796291 -1 1 C-0.67 0.67 -0.34 0.34 0 0 Z " fill="#AC2232" transform="translate(205,59)"/>
<path d="M0 0 C-8.67067185 2.62384386 -17.29032105 4.53587765 -26.25 5.875 C-27.62514771 6.09119995 -27.62514771 6.09119995 -29.02807617 6.31176758 C-30.32128784 6.49388794 -30.32128784 6.49388794 -31.640625 6.6796875 C-32.40922852 6.79038574 -33.17783203 6.90108398 -33.96972656 7.01513672 C-36 7 -36 7 -39 5 C-35.57471007 4.24360743 -32.31193079 3.86423893 -28.8125 3.6875 C-22.41649213 3.21755671 -16.34816392 1.84033052 -10.14379883 0.28393555 C-6.36804538 -0.6302376 -3.7148123 -1.1559719 0 0 Z " fill="#550F12" transform="translate(208,134)"/>
<path d="M0 0 C7.59 0 15.18 0 23 0 C23 0.99 23 1.98 23 3 C22.40985107 2.99476318 21.81970215 2.98952637 21.21166992 2.98413086 C18.53695745 2.96333953 15.86226199 2.95033299 13.1875 2.9375 C11.7943457 2.92493164 11.7943457 2.92493164 10.37304688 2.91210938 C9.48037109 2.90888672 8.58769531 2.90566406 7.66796875 2.90234375 C6.84578857 2.89710693 6.0236084 2.89187012 5.17651367 2.88647461 C2.81827404 2.91258476 2.81827404 2.91258476 0 4 C0 2.68 0 1.36 0 0 Z " fill="#AD5058" transform="translate(182,57)"/>
<path d="M0 0 C5.09031755 -0.04936158 10.18049643 -0.08570105 15.27099609 -0.10986328 C17.00344265 -0.11993376 18.73587216 -0.13359089 20.46826172 -0.15087891 C22.95544639 -0.17508162 25.44240675 -0.18647239 27.9296875 -0.1953125 C28.70682098 -0.20563507 29.48395447 -0.21595764 30.28463745 -0.22659302 C32.19125493 -0.22699271 34.09731036 -0.1223214 36 0 C36.66 0.66 37.32 1.32 38 2 C34.7 2.33 31.4 2.66 28 3 C28 2.34 28 1.68 28 1 C18.76 1 9.52 1 0 1 C0 0.67 0 0.34 0 0 Z " fill="#EA847E" transform="translate(136,35)"/>
<path d="M0 0 C0 0.66 0 1.32 0 2 C0.99 2.33 1.98 2.66 3 3 C-3.25461856 5.26616615 -9.45150687 6.83795007 -16 8 C-14.49400979 4.98801958 -11.97413004 4.42758242 -9 3 C-8.01 2.34 -7.02 1.68 -6 1 C-3 0 -3 0 0 0 Z " fill="#A42328" transform="translate(98,36)"/>
<path d="M0 0 C1.35814777 4.0744433 -0.05254238 6.81468116 -1.4375 10.6875 C-1.68048828 11.38939453 -1.92347656 12.09128906 -2.17382812 12.81445312 C-2.7744944 14.54578532 -3.38619719 16.27328137 -4 18 C-8.29 18 -12.58 18 -17 18 C-17 17.67 -17 17.34 -17 17 C-13.37 16.67 -9.74 16.34 -6 16 C-5.566875 14.659375 -5.13375 13.31875 -4.6875 11.9375 C-3.32851036 7.84758831 -1.75751346 3.93348251 0 0 Z " fill="#7E1116" transform="translate(188,96)"/>
<path d="M0 0 C0.99 0 1.98 0 3 0 C1.51364884 4.21654356 -0.61249159 7.62478605 -3.125 11.3125 C-3.84945312 12.38113281 -4.57390625 13.44976562 -5.3203125 14.55078125 C-6.15175781 15.76314453 -6.15175781 15.76314453 -7 17 C-7.94314127 13.58389775 -8.08065117 10.54865136 -8 7 C-5.525 7.495 -5.525 7.495 -3 8 C-2.67 6.68 -2.34 5.36 -2 4 C-1.34 4 -0.68 4 0 4 C0 2.68 0 1.36 0 0 Z " fill="#A92931" transform="translate(120,65)"/>
<path d="M0 0 C1.32 0 2.64 0 4 0 C4 8.25 4 16.5 4 25 C3.34 25 2.68 25 2 25 C1.87890689 17.92278069 2.14626761 11.02804699 3 4 C2.01 4 1.02 4 0 4 C0 2.68 0 1.36 0 0 Z " fill="#B71A28" transform="translate(152,59)"/>
<path d="M0 0 C2.87579207 4.31368811 4.70935192 8.7507958 4 14 C2.5 15.8125 2.5 15.8125 1 17 C1 16.34 1 15.68 1 15 C0.34 15 -0.32 15 -1 15 C-1.125 11.625 -1.125 11.625 -1 8 C-0.34 7.34 0.32 6.68 1 6 C0.67 5.67 0.34 5.34 0 5 C-0.04063832 3.33382885 -0.042721 1.66611905 0 0 Z " fill="#900A12" transform="translate(217,95)"/>
<path d="M0 0 C-19.8 -0.495 -19.8 -0.495 -40 -1 C-40 -1.33 -40 -1.66 -40 -2 C-34.94687931 -2.21733443 -29.89352993 -2.41413463 -24.83886719 -2.59204102 C-23.11990047 -2.65542427 -21.40113007 -2.72438984 -19.68261719 -2.79907227 C-17.21059227 -2.90552652 -14.7385538 -2.99180558 -12.265625 -3.07421875 C-11.11540863 -3.1302552 -11.11540863 -3.1302552 -9.94195557 -3.18742371 C-5.12724975 -3.32273593 -4.06162513 -3.04621885 0 0 Z " fill="#E1B7AF" transform="translate(176,31)"/>
<path d="M0 0 C0.33 1.32 0.66 2.64 1 4 C-4.61 4 -10.22 4 -16 4 C-14 2 -14 2 -12.0546875 1.8046875 C-10.03645833 1.86979167 -8.01822917 1.93489583 -6 2 C-6 1.34 -6 0.68 -6 0 C-3 -1 -3 -1 0 0 Z " fill="#7F0910" transform="translate(130,110)"/>
<path d="M0 0 C0.33 0 0.66 0 1 0 C1.18175781 1.20398438 1.36351562 2.40796875 1.55078125 3.6484375 C1.80400754 5.22406776 2.05795109 6.79958287 2.3125 8.375 C2.43044922 9.1690625 2.54839844 9.963125 2.66992188 10.78125 C2.79560547 11.54179688 2.92128906 12.30234375 3.05078125 13.0859375 C3.16075439 13.7876709 3.27072754 14.4894043 3.3840332 15.21240234 C3.93356998 17.39334262 3.93356998 17.39334262 7 19 C7 19.66 7 20.32 7 21 C5.68 20.67 4.36 20.34 3 20 C3 19.34 3 18.68 3 18 C2.01 17.67 1.02 17.34 0 17 C0 11.39 0 5.78 0 0 Z " fill="#A5272D" transform="translate(43,80)"/>
<path d="M0 0 C2 2 2 2 2.125 4.625 C2.08375 5.40875 2.0425 6.1925 2 7 C1.67 7 1.34 7 1 7 C0.67 9.64 0.34 12.28 0 15 C-0.99 14.67 -1.98 14.34 -3 14 C-3.02698189 12.37509046 -3.04638757 10.75005367 -3.0625 9.125 C-3.07410156 8.22007813 -3.08570313 7.31515625 -3.09765625 6.3828125 C-3 4 -3 4 -2 2 C-1.34 2 -0.68 2 0 2 C0 1.34 0 0.68 0 0 Z " fill="#C24F4D" transform="translate(49,77)"/>
<path d="M0 0 C1.98 0 3.96 0 6 0 C6 0.66 6 1.32 6 2 C6.66 2 7.32 2 8 2 C7.67 3.98 7.34 5.96 7 8 C8.32 8.33 9.64 8.66 11 9 C8.70703125 9.24609375 8.70703125 9.24609375 6 9 C4.19921875 7.28515625 4.19921875 7.28515625 2.6875 5.0625 C2.17574219 4.33160156 1.66398437 3.60070312 1.13671875 2.84765625 C0 1 0 1 0 0 Z " fill="#F9F6F2" transform="translate(120,96)"/>
<path d="M0 0 C0.33 0 0.66 0 1 0 C1.38281159 5.23175837 0.21854707 8.37802694 -2 13 C-2.66 13 -3.32 13 -4 13 C-4 13.66 -4 14.32 -4 15 C-5.32 14.67 -6.64 14.34 -8 14 C-7.525625 13.2575 -7.05125 12.515 -6.5625 11.75 C-5.22130673 9.38949985 -4.487688 7.63351523 -4 5 C-2.68 5 -1.36 5 0 5 C0 3.35 0 1.7 0 0 Z " fill="#A03235" transform="translate(254,86)"/>
<path d="M0 0 C1.77669223 3.06156654 2.24050818 5.24036215 2.1953125 8.765625 C2.18886719 9.65507813 2.18242187 10.54453125 2.17578125 11.4609375 C2.15902344 12.38132812 2.14226562 13.30171875 2.125 14.25 C2.11597656 15.18585938 2.10695312 16.12171875 2.09765625 17.0859375 C2.07413636 19.39088657 2.04126853 21.6953116 2 24 C-1.93351526 16.53313871 -1.20035952 8.13577006 0 0 Z " fill="#9B1218" transform="translate(155,84)"/>
<path d="M0 0 C1.61648437 0.43119141 1.61648437 0.43119141 3.265625 0.87109375 C4.08546875 1.09925781 4.9053125 1.32742187 5.75 1.5625 C5.75 2.2225 5.75 2.8825 5.75 3.5625 C3.83249714 3.47506669 1.91593335 3.3668811 0 3.25 C-1.06734375 3.19199219 -2.1346875 3.13398437 -3.234375 3.07421875 C-6.4321068 2.53159846 -7.87598691 1.71178855 -10.25 -0.4375 C-6.48331402 -1.8180087 -3.80210827 -1.03318159 0 0 Z " fill="#961925" transform="translate(200.25,35.4375)"/>
<path d="M0 0 C2.9375 0.75 2.9375 0.75 6 2 C6.875 4.125 6.875 4.125 7 6 C5.68 6.99 4.36 7.98 3 9 C0.9375 6.75 0.9375 6.75 -1 4 C-0.75 1.6875 -0.75 1.6875 0 0 Z " fill="#910C15" transform="translate(106,99)"/>
<path d="M0 0 C0.66 0.66 1.32 1.32 2 2 C1.37609375 2.54140625 0.7521875 3.0828125 0.109375 3.640625 C-2.30510288 6.34126322 -2.91762917 8.25404252 -3.75 11.75 C-3.99234375 12.73484375 -4.2346875 13.7196875 -4.484375 14.734375 C-4.65453125 15.48203125 -4.8246875 16.2296875 -5 17 C-5.66 16.67 -6.32 16.34 -7 16 C-6.34 12.37 -5.68 8.74 -5 5 C-4.34 5 -3.68 5 -3 5 C-3 4.34 -3 3.68 -3 3 C-1.5 1.375 -1.5 1.375 0 0 Z " fill="#CB4543" transform="translate(54,62)"/>
<path d="M0 0 C1.28132813 0.00902344 2.56265625 0.01804688 3.8828125 0.02734375 C4.87023437 0.03894531 5.85765625 0.05054688 6.875 0.0625 C3.13540472 3.80209528 -1.97700021 3.11853539 -7 3.125 C-8.70838595 3.10905506 -10.41675867 3.08985618 -12.125 3.0625 C-7.63412831 0.06858554 -5.41982037 -0.04927109 0 0 Z " fill="#BD3733" transform="translate(121.125,33.9375)"/>
<path d="M0 0 C0.33 0 0.66 0 1 0 C1.12117188 0.81984375 1.24234375 1.6396875 1.3671875 2.484375 C1.53476562 3.56203125 1.70234375 4.6396875 1.875 5.75 C2.03742187 6.81734375 2.19984375 7.8846875 2.3671875 8.984375 C2.84995962 11.94736919 2.84995962 11.94736919 4.1328125 14.203125 C5 16 5 16 4 19 C3.34 19 2.68 19 2 19 C0.27706865 14.53665816 -0.22240791 10.89798769 -0.125 6.125 C-0.10695312 4.97257812 -0.08890625 3.82015625 -0.0703125 2.6328125 C-0.04710937 1.76398438 -0.02390625 0.89515625 0 0 Z " fill="#FCF0EA" transform="translate(51,79)"/>
<path d="M0 0 C3.13726165 0.29676799 3.99689155 0.99651717 6.140625 3.3984375 C6.83671875 4.38070312 7.5328125 5.36296875 8.25 6.375 C8.95640625 7.35210937 9.6628125 8.32921875 10.390625 9.3359375 C12 12 12 12 12 15 C11.34 15 10.68 15 10 15 C8.21694476 12.36107824 7.00940379 10.02821137 6 7 C5.34 7 4.68 7 4 7 C4 6.34 4 5.68 4 5 C3.34 4.67 2.68 4.34 2 4 C0.875 1.9375 0.875 1.9375 0 0 Z " fill="#A0111B" transform="translate(246,60)"/>
<path d="M0 0 C3.38023517 0 5.83468937 0.87455622 9 2 C7.4375 4.0625 7.4375 4.0625 5 6 C1.25 5.75 1.25 5.75 -2 5 C-1.34 3.35 -0.68 1.7 0 0 Z " fill="#851C1B" transform="translate(242,108)"/>
<path d="M0 0 C0.66 0.33 1.32 0.66 2 1 C1.4375 3.3125 1.4375 3.3125 0 6 C-2.27962623 7.34776978 -4.48087772 8.11364216 -7 9 C-7.66 8.34 -8.32 7.68 -9 7 C-7.87720538 6.01830524 -6.75168527 5.03972702 -5.625 4.0625 C-4.68527344 3.24458984 -4.68527344 3.24458984 -3.7265625 2.41015625 C-2 1 -2 1 0 0 Z " fill="#F9F2ED" transform="translate(72,55)"/>
<path d="M0 0 C4.14264168 -0.2436848 7.11826113 0.58167234 11 2 C12.62366422 2.54565765 14.24872999 3.08715835 15.875 3.625 C17.25 4.08333333 18.625 4.54166667 20 5 C20 5.66 20 6.32 20 7 C13.04223041 5.63125844 6.61396893 3.5466871 0 1 C0 0.67 0 0.34 0 0 Z " fill="#CA4644" transform="translate(189,37)"/>
<path d="M0 0 C0.66 0 1.32 0 2 0 C1.72405803 6.48463627 -0.78610069 11.07074377 -5 16 C-5.66 16 -6.32 16 -7 16 C-6.00101675 13.99307401 -4.99532635 11.99097016 -3.96484375 10 C-3.62582031 9.34 -3.28679687 8.68 -2.9375 8 C-2.59589844 7.34 -2.25429687 6.68 -1.90234375 6 C-1.00591154 4.01310263 -0.46035098 2.12615708 0 0 Z " fill="#AE6B64" transform="translate(248,90)"/>
<path d="M0 0 C3.20792369 1.60396185 4.8849773 4.16141691 7 7 C7 8.32 7 9.64 7 11 C7.66 11 8.32 11 9 11 C9 13.64 9 16.28 9 19 C8.67 19 8.34 19 8 19 C7.71125 17.88625 7.4225 16.7725 7.125 15.625 C6.30758671 11.99708908 6.30758671 11.99708908 4 10 C3.855625 9.175 3.71125 8.35 3.5625 7.5 C3.2234444 4.65063471 3.2234444 4.65063471 0 3 C0 2.01 0 1.02 0 0 Z " fill="#C13D3D" transform="translate(247,66)"/>
<path d="M0 0 C0.99 0.33 1.98 0.66 3 1 C2.05066101 4.35433109 1.10251165 7.69246505 0 11 C-0.66 11 -1.32 11 -2 11 C-2.33 11.66 -2.66 12.32 -3 13 C-3.14021422 7.95228817 -2.38224256 4.44685278 0 0 Z " fill="#9F1520" transform="translate(45,65)"/>
<path d="M0 0 C1.65 0 3.3 0 5 0 C5.33 0.99 5.66 1.98 6 3 C5.21625 3.28875 4.4325 3.5775 3.625 3.875 C0.90328368 4.84912254 0.90328368 4.84912254 -1 7 C-2.32 7 -3.64 7 -5 7 C-4.67 7.99 -4.34 8.98 -4 10 C-5.32 10 -6.64 10 -8 10 C-6.86500606 6.70851757 -6.00716624 6.0040131 -2.875 4.25 C-1.92625 3.8375 -0.9775 3.425 0 3 C0 2.01 0 1.02 0 0 Z " fill="#AB1F28" transform="translate(62,50)"/>
<path d="M0 0 C2.78637633 4.1795645 1.79562512 6.14668677 1 11 C-0.32 11.33 -1.64 11.66 -3 12 C-4 10 -4 10 -3.22265625 7.6171875 C-2.83980469 6.71226563 -2.45695312 5.80734375 -2.0625 4.875 C-1.68222656 3.96492188 -1.30195313 3.05484375 -0.91015625 2.1171875 C-0.60980469 1.41851562 -0.30945313 0.71984375 0 0 Z " fill="#F5EADF" transform="translate(261,92)"/>
<path d="M0 0 C0.66 0 1.32 0 2 0 C2 2.97 2 5.94 2 9 C1.34 9 0.68 9 0 9 C-0.33 9.99 -0.66 10.98 -1 12 C-1 9.69 -1 7.38 -1 5 C-1.66 5 -2.32 5 -3 5 C-1.125 1.125 -1.125 1.125 0 0 Z " fill="#D3615A" transform="translate(251,77)"/>
<path d="M0 0 C0.66 0 1.32 0 2 0 C2.66 2.64 3.32 5.28 4 8 C2.35 7.67 0.7 7.34 -1 7 C-0.67 7.99 -0.34 8.98 0 10 C-0.99 10.33 -1.98 10.66 -3 11 C-2.01 7.37 -1.02 3.74 0 0 Z " fill="#FADEDC" transform="translate(195,78)"/>
<path d="M0 0 C1.32 0 2.64 0 4 0 C4 0.66 4 1.32 4 2 C4.66 2 5.32 2 6 2 C6 2.66 6 3.32 6 4 C0.06 4.495 0.06 4.495 -6 5 C-6 4.34 -6 3.68 -6 3 C-4.02 2.34 -2.04 1.68 0 1 C0 0.67 0 0.34 0 0 Z " fill="#6F0B08" transform="translate(180,134)"/>
<path d="M0 0 C2 2 2 2 2.125 4.625 C2.08375 5.40875 2.0425 6.1925 2 7 C1.01 7.495 1.01 7.495 0 8 C-0.72693904 9.97888961 -1.39816251 11.97954558 -2 14 C-2.66 14 -3.32 14 -4 14 C-3.44661458 12.01432292 -2.89322917 10.02864583 -2.33984375 8.04296875 C-1.80436183 5.80755841 -1.80436183 5.80755841 -3 3 C-2.01 3 -1.02 3 0 3 C0 2.01 0 1.02 0 0 Z " fill="#A30E15" transform="translate(188,89)"/>
<path d="M0 0 C0.33 0 0.66 0 1 0 C1 4.62 1 9.24 1 14 C2.32 14.33 3.64 14.66 5 15 C2.92446352 15.5534764 1.15634036 16 -1 16 C-1.02725341 14.2709226 -1.04650987 12.54171824 -1.0625 10.8125 C-1.07410156 9.84957031 -1.08570312 8.88664062 -1.09765625 7.89453125 C-1.00486622 5.14423487 -0.62111685 2.67520409 0 0 Z " fill="#B81625" transform="translate(93,64)"/>
<path d="M0 0 C0.99 0.33 1.98 0.66 3 1 C2.401875 1.721875 1.80375 2.44375 1.1875 3.1875 C-0.77422196 5.70971395 -2.41723983 8.2301697 -4 11 C-5.32 10.67 -6.64 10.34 -8 10 C-7.360625 9.4225 -6.72125 8.845 -6.0625 8.25 C-3.93623241 5.93043536 -3.68373069 4.93027437 -3 2 C-2.01 1.34 -1.02 0.68 0 0 Z " fill="#F2E3DF" transform="translate(44,63)"/>
<path d="M0 0 C-2.83738101 2.83738101 -6.13599356 3.43471017 -10 4 C-13.5 3.625 -13.5 3.625 -16 3 C-16 2.67 -16 2.34 -16 2 C-13.89829344 1.46932659 -11.79352402 0.95077143 -9.6875 0.4375 C-7.92986328 0.00244141 -7.92986328 0.00244141 -6.13671875 -0.44140625 C-3 -1 -3 -1 0 0 Z " fill="#C27E78" transform="translate(200,129)"/>
<path d="M0 0 C0 0.99 0 1.98 0 3 C-0.99 3 -1.98 3 -3 3 C-3 3.66 -3 4.32 -3 5 C-4.65 4.67 -6.3 4.34 -8 4 C-8 3.01 -8 2.02 -8 1 C-3.375 -1.125 -3.375 -1.125 0 0 Z " fill="#821C16" transform="translate(225,122)"/>
<path d="M0 0 C0.66 0.66 1.32 1.32 2 2 C1.65066406 2.54269531 1.30132812 3.08539063 0.94140625 3.64453125 C0.48636719 4.35996094 0.03132813 5.07539062 -0.4375 5.8125 C-0.88996094 6.52019531 -1.34242187 7.22789063 -1.80859375 7.95703125 C-3.14086339 10.08134552 -3.14086339 10.08134552 -4 13 C-4.66 13 -5.32 13 -6 13 C-6.25 10.25 -6.25 10.25 -6 7 C-4.125 4.8125 -4.125 4.8125 -2 3 C-1.34 2.01 -0.68 1.02 0 0 Z " fill="#BB6C6B" transform="translate(56,66)"/>
<path d="M0 0 C-0.33 1.65 -0.66 3.3 -1 5 C-1.66 5 -2.32 5 -3 5 C-3 5.66 -3 6.32 -3 7 C-3.99 7 -4.98 7 -6 7 C-6 6.34 -6 5.68 -6 5 C-6.99 4.67 -7.98 4.34 -9 4 C-2.25 0 -2.25 0 0 0 Z " fill="#FAF0F0" transform="translate(83,50)"/>
<path d="M0 0 C2 0 2 0 3.4375 1.3125 C4.2109375 2.1478125 4.2109375 2.1478125 5 3 C5.556875 3.556875 6.11375 4.11375 6.6875 4.6875 C7.3371875 5.3371875 7.3371875 5.3371875 8 6 C7.67 6.66 7.34 7.32 7 8 C5.68 8 4.36 8 3 8 C1.02 4.535 1.02 4.535 -1 1 C-0.67 0.67 -0.34 0.34 0 0 Z " fill="#8B181C" transform="translate(44,98)"/>
<path d="M0 0 C0.66 0 1.32 0 2 0 C6 5.41176471 6 5.41176471 6 8 C6.66 8 7.32 8 8 8 C7.67 8.99 7.34 9.98 7 11 C4.06785691 8.97783235 1.85660372 7.06339613 0 4 C0 2.68 0 1.36 0 0 Z " fill="#BF2B33" transform="translate(244,59)"/>
<path d="M0 0 C1.18851563 0.00902344 2.37703125 0.01804688 3.6015625 0.02734375 C4.51679688 0.03894531 5.43203125 0.05054688 6.375 0.0625 C6.045 0.7225 5.715 1.3825 5.375 2.0625 C3.23046875 2.546875 3.23046875 2.546875 0.5625 2.8125 C-0.31019531 2.91046875 -1.18289062 3.0084375 -2.08203125 3.109375 C-4.83301558 3.05866561 -6.29626574 2.47385409 -8.625 1.0625 C-5.74084117 -0.37957941 -3.20778472 -0.03144887 0 0 Z " fill="#C96C67" transform="translate(126.625,35.9375)"/>
<path d="M0 0 C-1.5552912 0.70365602 -3.11964827 1.38729378 -4.6875 2.0625 C-5.55761719 2.44535156 -6.42773438 2.82820312 -7.32421875 3.22265625 C-10.32213864 4.0935848 -12.03280153 3.85006226 -15 3 C-10.83253875 -0.99381703 -5.4473208 -1.8157736 0 0 Z " fill="#651D1B" transform="translate(220,130)"/>
<path d="M0 0 C1.20628008 2.33214148 2.1654738 4.49642139 3 7 C2.38125 7.4125 1.7625 7.825 1.125 8.25 C-1.06768281 10.05573879 -1.92788417 11.4090534 -3 14 C-2.48594831 9.03083364 -1.76615118 4.70973649 0 0 Z " fill="#AB0D1D" transform="translate(178,87)"/>
<path d="M0 0 C0.66 0 1.32 0 2 0 C1.32584613 5.2584002 -0.24265549 10.02638346 -2 15 C-2.66 14.01 -3.32 13.02 -4 12 C-3.3203125 9.08203125 -3.3203125 9.08203125 -2.125 5.8125 C-1.73570312 4.72582031 -1.34640625 3.63914062 -0.9453125 2.51953125 C-0.63335937 1.68808594 -0.32140625 0.85664062 0 0 Z " fill="#FAE5E5" transform="translate(174,88)"/>
<path d="M0 0 C2.9719385 1.12451727 5.33440687 2.22293791 8 4 C8 4.66 8 5.32 8 6 C4.28400809 6.20086443 3.22791555 6.1519437 0 4 C0 2.68 0 1.36 0 0 Z " fill="#C63D43" transform="translate(237,56)"/>
<path d="M0 0 C0.99 0.99 1.98 1.98 3 3 C2.67 3.33 2.34 3.66 2 4 C1.84379445 5.41327947 1.74943827 6.8335459 1.68359375 8.25390625 C1.64169922 9.10791016 1.59980469 9.96191406 1.55664062 10.84179688 C1.51732422 11.73962891 1.47800781 12.63746094 1.4375 13.5625 C1.39431641 14.46419922 1.35113281 15.36589844 1.30664062 16.29492188 C1.20021858 18.52978485 1.09820012 20.76476308 1 23 C0.67 23 0.34 23 0 23 C0 15.41 0 7.82 0 0 Z " fill="#FEEDF1" transform="translate(96,91)"/>
<path d="M0 0 C2.62187494 1.04874998 3.79371361 1.64931313 5.25 4.125 C5.4975 4.74375 5.745 5.3625 6 6 C5.01 6.33 4.02 6.66 3 7 C1.68 5.68 0.36 4.36 -1 3 C-0.67 2.01 -0.34 1.02 0 0 Z " fill="#F4F1EB" transform="translate(49,112)"/>
<path d="M0 0 C0.66 0.33 1.32 0.66 2 1 C1.04663979 2.31611677 0.08714226 3.62778961 -0.875 4.9375 C-1.40867188 5.66839844 -1.94234375 6.39929688 -2.4921875 7.15234375 C-4 9 -4 9 -6 10 C-5.67 8.02 -5.34 6.04 -5 4 C-4.34 4 -3.68 4 -3 4 C-3 3.34 -3 2.68 -3 2 C-2.01 1.34 -1.02 0.68 0 0 Z " fill="#F7F3E5" transform="translate(245,96)"/>
<path d="M0 0 C0.66 0 1.32 0 2 0 C0.9318153 5.11365014 -0.23107476 10.07227969 -2 15 C-2.33 15 -2.66 15 -3 15 C-2.88529863 13.24929483 -2.75780972 11.49942464 -2.625 9.75 C-2.55539063 8.77546875 -2.48578125 7.8009375 -2.4140625 6.796875 C-2.01534751 4.10366811 -1.36492937 2.33036721 0 0 Z " fill="#F9EAE8" transform="translate(183,61)"/>
<path d="M0 0 C0.33 0 0.66 0 1 0 C1.04898438 0.69867188 1.09796875 1.39734375 1.1484375 2.1171875 C1.22320312 3.02726562 1.29796875 3.93734375 1.375 4.875 C1.44460937 5.77992187 1.51421875 6.68484375 1.5859375 7.6171875 C1.79568132 10.17941903 1.79568132 10.17941903 4 12 C2.68 13.32 1.36 14.64 0 16 C0 10.72 0 5.44 0 0 Z " fill="#FEEDF1" transform="translate(96,61)"/>
<path d="M0 0 C1.9375 0.8125 1.9375 0.8125 4 2 C4.33 2.99 4.66 3.98 5 5 C4.34 5 3.68 5 3 5 C3 5.66 3 6.32 3 7 C2.01 7 1.02 7 0 7 C-1.125 2.25 -1.125 2.25 0 0 Z " fill="#C41625" transform="translate(201,60)"/>
<path d="M0 0 C0.66 0.99 1.32 1.98 2 3 C-0.31 4.32 -2.62 5.64 -5 7 C-5.625 5.125 -5.625 5.125 -6 3 C-3.8614515 0.8614515 -2.86724686 0.57344937 0 0 Z " fill="#C84546" transform="translate(68,52)"/>
<path d="M0 0 C2.50037734 2.17424117 3.43628586 3.73045798 4 7 C3.01 7.33 2.02 7.66 1 8 C0.34 7.67 -0.32 7.34 -1 7 C-0.67 4.69 -0.34 2.38 0 0 Z " fill="#A90B16" transform="translate(203,88)"/>
<path d="M0 0 C0.66 0 1.32 0 2 0 C2.66 1.65 3.32 3.3 4 5 C2.68 6.65 1.36 8.3 0 10 C0 6.7 0 3.4 0 0 Z " fill="#B31D2E" transform="translate(112,72)"/>
<path d="M0 0 C2.875 0.3125 2.875 0.3125 6 1 C8.1519437 4.22791555 8.20086443 5.28400809 8 9 C5.06799526 6.14723863 2.35684596 3.34920216 0 0 Z " fill="#F4DEDB" transform="translate(248,58)"/>
<path d="M0 0 C1.2065625 0.0309375 1.2065625 0.0309375 2.4375 0.0625 C2.4375 1.3825 2.4375 2.7025 2.4375 4.0625 C3.0975 4.3925 3.7575 4.7225 4.4375 5.0625 C3.4475 5.3925 2.4575 5.7225 1.4375 6.0625 C-0.2125 4.4125 -1.8625 2.7625 -3.5625 1.0625 C-2.5625 0.0625 -2.5625 0.0625 0 0 Z " fill="#F3E8E0" transform="translate(245.5625,51.9375)"/>
<path d="M0 0 C4.56454251 0.54339792 7.9728176 1.79463821 12 4 C11.01 4.66 10.02 5.32 9 6 C5.3125 4.625 5.3125 4.625 2 3 C2 2.34 2 1.68 2 1 C1.34 0.67 0.68 0.34 0 0 Z " fill="#C2726B" transform="translate(207,44)"/>
<path d="M0 0 C2.31 0 4.62 0 7 0 C7 0.66 7 1.32 7 2 C8.65 2.33 10.3 2.66 12 3 C11.67 3.66 11.34 4.32 11 5 C9.53890937 4.74445946 8.08111904 4.46999628 6.625 4.1875 C5.81289062 4.03667969 5.00078125 3.88585938 4.1640625 3.73046875 C2 3 2 3 0 0 Z " fill="#BF2D34" transform="translate(213,43)"/>
<path d="M0 0 C6.0546875 -0.1953125 6.0546875 -0.1953125 8 0 C8.66 0.66 9.32 1.32 10 2 C6.7 2.33 3.4 2.66 0 3 C0 2.01 0 1.02 0 0 Z " fill="#CA7972" transform="translate(164,35)"/>
<path d="M0 0 C0 0.66 0 1.32 0 2 C-2.76452033 3.38226016 -5.0461363 3.09525387 -8.125 3.0625 C-9.22070312 3.05347656 -10.31640625 3.04445312 -11.4453125 3.03515625 C-12.70988281 3.01775391 -12.70988281 3.01775391 -14 3 C-14 2.67 -14 2.34 -14 2 C-12.22978678 1.663389 -10.45880326 1.33082707 -8.6875 1 C-7.70136719 0.814375 -6.71523437 0.62875 -5.69921875 0.4375 C-3 0 -3 0 0 0 Z " fill="#EAD3CE" transform="translate(196,137)"/>
<path d="M0 0 C1.98 0.66 3.96 1.32 6 2 C6 2.66 6 3.32 6 4 C7.32 4.33 8.64 4.66 10 5 C6.05272412 5.17942163 3.4019487 5.09350689 0 3 C0 2.01 0 1.02 0 0 Z " fill="#F9F2ED" transform="translate(85,132)"/>
<path d="M0 0 C0.33 1.32 0.66 2.64 1 4 C-1.64 4.33 -4.28 4.66 -7 5 C-7 4.34 -7 3.68 -7 3 C-4.69 2.01 -2.38 1.02 0 0 Z " fill="#831B14" transform="translate(215,124)"/>
<path d="M0 0 C2.31 0 4.62 0 7 0 C7 1.32 7 2.64 7 4 C4.03 3.505 4.03 3.505 1 3 C0.67 2.01 0.34 1.02 0 0 Z " fill="#60100E" transform="translate(73,125)"/>
<path d="M0 0 C5.75 -0.125 5.75 -0.125 8 1 C8 2.65 8 4.3 8 6 C4.942048 4.26440562 2.36620011 2.61527381 0 0 Z " fill="#8E1616" transform="translate(52,109)"/>
<path d="M0 0 C1.65 0.99 3.3 1.98 5 3 C4.6875 4.9375 4.6875 4.9375 4 7 C3.01 7.33 2.02 7.66 1 8 C1.33 6.68 1.66 5.36 2 4 C1.34 4 0.68 4 0 4 C0 2.68 0 1.36 0 0 Z " fill="#910D12" transform="translate(120,100)"/>
<path d="M0 0 C3.67033927 3.27708863 5.69281189 6.71522208 8 11 C7.01 11.495 7.01 11.495 6 12 C5.0234375 10.2421875 4.046875 8.484375 3.0703125 6.7265625 C1.99102726 4.8387386 1.99102726 4.8387386 0 3 C0 2.01 0 1.02 0 0 Z " fill="#F5DED6" transform="translate(100,96)"/>
<path d="M0 0 C0.7425 0.45375 1.485 0.9075 2.25 1.375 C4.46930578 2.68640796 6.67967822 3.88280803 9 5 C8.67 5.66 8.34 6.32 8 7 C4.2089881 5.55049545 0.6125362 3.84827434 -3 2 C-2.01 1.34 -1.02 0.68 0 0 Z " fill="#F7E0DE" transform="translate(231,44)"/>
<path d="M0 0 C-5.28 -0.33 -10.56 -0.66 -16 -1 C-16 -1.33 -16 -1.66 -16 -2 C-14.08591243 -2.24979445 -12.16848389 -2.47408014 -10.25 -2.6875 C-9.18265625 -2.81511719 -8.1153125 -2.94273438 -7.015625 -3.07421875 C-4 -3 -4 -3 0 0 Z " fill="#F4D1D7" transform="translate(176,31)"/>
<path d="M0 0 C0.78375 0.33 1.5675 0.66 2.375 1 C4.84332497 2.11866511 4.84332497 2.11866511 7 2 C7 2.66 7 3.32 7 4 C7.66 4 8.32 4 9 4 C9.33 3.34 9.66 2.68 10 2 C10.33 2.99 10.66 3.98 11 5 C8.875 5.75 8.875 5.75 6 6 C2.6875 4.1875 2.6875 4.1875 0 2 C0 1.34 0 0.68 0 0 Z " fill="#801511" transform="translate(62,116)"/>
<path d="M0 0 C0.33 0.99 0.66 1.98 1 3 C0.01 4.485 0.01 4.485 -1 6 C-1.66 6 -2.32 6 -3 6 C-3.66 4.35 -4.32 2.7 -5 1 C-3 0 -3 0 0 0 Z " fill="#9D1922" transform="translate(107,96)"/>
<path d="M0 0 C2.0625 1.75 2.0625 1.75 4 4 C3.75 6.25 3.75 6.25 3 8 C2.34 8 1.68 8 1 8 C0.67 8.99 0.34 9.98 0 11 C0 7.37 0 3.74 0 0 Z " fill="#89121D" transform="translate(258,76)"/>
<path d="M0 0 C-0.66 1.32 -1.32 2.64 -2 4 C-2.66 4 -3.32 4 -4 4 C-4.33 4.66 -4.66 5.32 -5 6 C-5.99 5.67 -6.98 5.34 -8 5 C-8 4.34 -8 3.68 -8 3 C-5.09451118 0.95830515 -3.59857954 0 0 0 Z " fill="#8B1515" transform="translate(72,46)"/>
<path d="M0 0 C1.98 0.66 3.96 1.32 6 2 C3.04288438 3.64284201 0.37991574 4.6442194 -3 5 C-3.66 4.34 -4.32 3.68 -5 3 C-3.35 2.34 -1.7 1.68 0 1 C0 0.67 0 0.34 0 0 Z " fill="#C6736E" transform="translate(102,39)"/>
<path d="M0 0 C0.33 0.99 0.66 1.98 1 3 C-0.8125 4.0625 -0.8125 4.0625 -3 5 C-3.99 4.67 -4.98 4.34 -6 4 C-6 3.34 -6 2.68 -6 2 C-3 0 -3 0 0 0 Z " fill="#972825" transform="translate(234,115)"/>
<path d="M0 0 C2.3125 -0.25 2.3125 -0.25 5 0 C6.8125 2 6.8125 2 8 4 C4.61976483 4 2.16531063 3.12544378 -1 2 C-0.67 1.34 -0.34 0.68 0 0 Z " fill="#9A2426" transform="translate(52,106)"/>
<path d="M0 0 C0.99 0 1.98 0 3 0 C3.433125 0.9590625 3.433125 0.9590625 3.875 1.9375 C4.82823451 4.15206079 4.82823451 4.15206079 7 5 C7 5.66 7 6.32 7 7 C5.68 6.67 4.36 6.34 3 6 C3 5.34 3 4.68 3 4 C2.01 3.67 1.02 3.34 0 3 C0 2.01 0 1.02 0 0 Z " fill="#962026" transform="translate(43,94)"/>
<path d="M0 0 C0.33 0 0.66 0 1 0 C1.36666667 5.5 1.36666667 5.5 -0.375 7.875 C-2 9 -2 9 -4 9 C-4 7.68 -4 6.36 -4 5 C-2.68 5 -1.36 5 0 5 C0 3.35 0 1.7 0 0 Z " fill="#A73839" transform="translate(254,86)"/>
<path d="M0 0 C0.66 0 1.32 0 2 0 C4.27678571 8.03571429 4.27678571 8.03571429 3 12 C2.49440092 10.56445975 1.9957251 9.1264798 1.5 7.6875 C1.2215625 6.88699219 0.943125 6.08648437 0.65625 5.26171875 C0 3 0 3 0 0 Z " fill="#F3D4D4" transform="translate(216,88)"/>
<path d="M0 0 C1.98 0 3.96 0 6 0 C5.67 1.65 5.34 3.3 5 5 C4.01 5 3.02 5 2 5 C2.33 3.68 2.66 2.36 3 1 C2.34 1 1.68 1 1 1 C0.67 1.66 0.34 2.32 0 3 C0 2.01 0 1.02 0 0 Z " fill="#BD1424" transform="translate(105,80)"/>
<path d="M0 0 C2.97 0 5.94 0 9 0 C9 1.32 9 2.64 9 4 C6.03 3.01 3.06 2.02 0 1 C0 0.67 0 0.34 0 0 Z " fill="#F3E0DA" transform="translate(219,41)"/>
<path d="M0 0 C0 0.66 0 1.32 0 2 C-1.32 2.33 -2.64 2.66 -4 3 C-4 3.66 -4 4.32 -4 5 C-5.32 5.33 -6.64 5.66 -8 6 C-8.33 5.01 -8.66 4.02 -9 3 C-2.25 0 -2.25 0 0 0 Z " fill="#F3DFDB" transform="translate(224,128)"/>
<path d="M0 0 C7.42857143 -0.28571429 7.42857143 -0.28571429 11 2 C11 2.66 11 3.32 11 4 C9.35232753 3.71890887 7.70686855 3.42481474 6.0625 3.125 C4.68771484 2.88136719 4.68771484 2.88136719 3.28515625 2.6328125 C2.53105469 2.42398438 1.77695313 2.21515625 1 2 C0.67 1.34 0.34 0.68 0 0 Z " fill="#FBECEA" transform="translate(105,128)"/>
<path d="M0 0 C1.36125 0.12375 1.36125 0.12375 2.75 0.25 C1.125 2.25 1.125 2.25 -1.25 4.25 C-4.5 4.5 -4.5 4.5 -7.25 4.25 C-4.83923194 1.28290085 -3.90322061 0.30024774 0 0 Z " fill="#5F0D0C" transform="translate(239.25,116.75)"/>
<path d="M0 0 C5.53846154 -0.36923077 5.53846154 -0.36923077 7.875 1.5 C8.24625 1.995 8.6175 2.49 9 3 C8.34 3.66 7.68 4.32 7 5 C3.535 3.02 3.535 3.02 0 1 C0 0.67 0 0.34 0 0 Z " fill="#FCF0EC" transform="translate(71,115)"/>
<path d="M0 0 C2.12508244 3.18762365 2.5020163 5.26512223 3 9 C1.68 8.34 0.36 7.68 -1 7 C-1.04254356 5.00045254 -1.04080783 2.99958364 -1 1 C-0.67 0.67 -0.34 0.34 0 0 Z " fill="#F6E0DE" transform="translate(205,105)"/>
<path d="M0 0 C0.99 0 1.98 0 3 0 C2.49396008 2.16874252 2.00016187 3.99967627 1 6 C0.34 6 -0.32 6 -1 6 C-1.625 4.125 -1.625 4.125 -2 2 C-1.34 1.34 -0.68 0.68 0 0 Z " fill="#9B3029" transform="translate(246,101)"/>
<path d="M0 0 C0.66 1.32 1.32 2.64 2 4 C1.01 4.495 1.01 4.495 0 5 C0.33 6.65 0.66 8.3 1 10 C-0.32 8.68 -1.64 7.36 -3 6 C-1.125 1.125 -1.125 1.125 0 0 Z " fill="#F3D9D9" transform="translate(114,79)"/>
<path d="M0 0 C0.33 0.66 0.66 1.32 1 2 C0.34 2.66 -0.32 3.32 -1 4 C-1 4.66 -1 5.32 -1 6 C-2.32 6.33 -3.64 6.66 -5 7 C-5.33 6.01 -5.66 5.02 -6 4 C-5.34 3.67 -4.68 3.34 -4 3 C-4 2.34 -4 1.68 -4 1 C-2.68 0.67 -1.36 0.34 0 0 Z " fill="#CA363C" transform="translate(61,56)"/>
<path d="M0 0 C1.670625 0.061875 1.670625 0.061875 3.375 0.125 C3.705 1.115 4.035 2.105 4.375 3.125 C1.075 2.795 -2.225 2.465 -5.625 2.125 C-3.625 0.125 -3.625 0.125 0 0 Z " fill="#C5534B" transform="translate(131.625,33.875)"/>
<path d="M0 0 C4.62 0 9.24 0 14 0 C14 0.99 14 1.98 14 3 C13.34 3 12.68 3 12 3 C12 2.34 12 1.68 12 1 C8.04 1 4.08 1 0 1 C0 0.67 0 0.34 0 0 Z " fill="#DBC0C2" transform="translate(160,141)"/>
<path d="M0 0 C2.97 1.65 5.94 3.3 9 5 C8.34 5.66 7.68 6.32 7 7 C4.36 5.35 1.72 3.7 -1 2 C-0.67 1.34 -0.34 0.68 0 0 Z " fill="#BE7872" transform="translate(66,112)"/>
<path d="M0 0 C2.12038635 2.61514317 4.13091744 5.19637616 6 8 C4.35 7.67 2.7 7.34 1 7 C0.34 5.02 -0.32 3.04 -1 1 C-0.67 0.67 -0.34 0.34 0 0 Z " fill="#F8E6E3" transform="translate(41,101)"/>
<path d="M0 0 C1 2 1 2 0.8125 3.9375 C-0.22687271 6.57590764 -1.6538835 7.48637645 -4 9 C-4 4.31908701 -3.00354129 3.37898396 0 0 Z " fill="#941D22" transform="translate(254,96)"/>
<path d="M0 0 C0.66 1.32 1.32 2.64 2 4 C2.66 4 3.32 4 4 4 C3.67 5.65 3.34 7.3 3 9 C2.01 8.67 1.02 8.34 0 8 C0 5.36 0 2.72 0 0 Z " fill="#B54A4A" transform="translate(249,82)"/>
<path d="M0 0 C1.485 0.99 1.485 0.99 3 2 C3.1875 5.625 3.1875 5.625 3 9 C2.34 9 1.68 9 1 9 C0.67 6.03 0.34 3.06 0 0 Z " fill="#C4162A" transform="translate(208,77)"/>
<path d="M0 0 C0.66 0.33 1.32 0.66 2 1 C1.625 2.9375 1.625 2.9375 1 5 C0.01 5.495 0.01 5.495 -1 6 C-1.99 7.485 -1.99 7.485 -3 9 C-3 8.34 -3 7.68 -3 7 C-3.66 6.67 -4.32 6.34 -5 6 C-3.35 4.02 -1.7 2.04 0 0 Z " fill="#F9EDE8" transform="translate(61,63)"/>
<path d="M0 0 C0.66 0 1.32 0 2 0 C2 1.65 2 3.3 2 5 C0.68 5.33 -0.64 5.66 -2 6 C-1.34 4.02 -0.68 2.04 0 0 Z " fill="#8B1319" transform="translate(170,108)"/>
<path d="M0 0 C1.98 0 3.96 0 6 0 C6 0.66 6 1.32 6 2 C5.34 2 4.68 2 4 2 C3.67 3.32 3.34 4.64 3 6 C2.01 4.02 1.02 2.04 0 0 Z " fill="#F4ECE8" transform="translate(120,96)"/>
<path d="M0 0 C0.99 0.33 1.98 0.66 3 1 C2.34 1 1.68 1 1 1 C0.67 3.31 0.34 5.62 0 8 C-0.99 7.67 -1.98 7.34 -3 7 C-2.67 5.68 -2.34 4.36 -2 3 C-1.34 3 -0.68 3 0 3 C0 2.01 0 1.02 0 0 Z " fill="#BE3338" transform="translate(45,73)"/>
<path d="M0 0 C1.99097846 2.98646769 2.94124926 5.59687262 4 9 C3.34 9 2.68 9 2 9 C-1.11450382 4.84732824 -1.11450382 4.84732824 -0.6875 1.6875 C-0.460625 1.130625 -0.23375 0.57375 0 0 Z " fill="#C16D6E" transform="translate(244,66)"/>
<path d="M0 0 C1.98 0 3.96 0 6 0 C5.67 1.32 5.34 2.64 5 4 C3.35 4 1.7 4 0 4 C0 2.68 0 1.36 0 0 Z " fill="#C01A36" transform="translate(186,60)"/>
<path d="M0 0 C1.65 0 3.3 0 5 0 C5 0.99 5 1.98 5 3 C5.99 3 6.98 3 8 3 C8 3.66 8 4.32 8 5 C7.236875 4.690625 6.47375 4.38125 5.6875 4.0625 C3.81210323 3.32106407 1.91315348 2.63771783 0 2 C0 1.34 0 0.68 0 0 Z " fill="#B12029" transform="translate(236,54)"/>
<path d="M0 0 C0.61875 0.33 1.2375 0.66 1.875 1 C3.91018344 2.14193235 3.91018344 2.14193235 6 2 C5.67 2.99 5.34 3.98 5 5 C2.83125748 4.49396008 1.00032373 4.00016187 -1 3 C-0.67 2.01 -0.34 1.02 0 0 Z " fill="#CA4B46" transform="translate(230,52)"/>
<path d="M0 0 C4.95 1.98 4.95 1.98 10 4 C9.34 4.66 8.68 5.32 8 6 C5.36 4.68 2.72 3.36 0 2 C0 1.34 0 0.68 0 0 Z " fill="#CA4F48" transform="translate(211,43)"/>
<path d="M0 0 C0 0.66 0 1.32 0 2 C1.65 2 3.3 2 5 2 C5 2.33 5 2.66 5 3 C-3.57142857 3.28571429 -3.57142857 3.28571429 -7 1 C-2.25 0 -2.25 0 0 0 Z " fill="#520605" transform="translate(115,136)"/>
<path d="M0 0 C0.66 0 1.32 0 2 0 C3.38232443 1.62626404 4.71937515 3.2925002 6 5 C3.69 4.67 1.38 4.34 -1 4 C-0.67 2.68 -0.34 1.36 0 0 Z " fill="#750C0F" transform="translate(89,127)"/>
</svg>
