<?xml version="1.0" encoding="UTF-8"?>
<svg version="1.1" xmlns="http://www.w3.org/2000/svg" width="225" height="225">
<path d="M0 0 C74.25 0 148.5 0 225 0 C225 74.25 225 148.5 225 225 C150.75 225 76.5 225 0 225 C0 150.75 0 76.5 0 0 Z " fill="#FDFDFD" transform="translate(0,0)"/>
<path d="M0 0 C3.63 1.98 7.26 3.96 11 6 C11 18.54 11 31.08 11 44 C1.43 44 -8.14 44 -18 44 C-18 31.46 -18 18.92 -18 6 C-5 -1 -5 -1 0 0 Z " fill="#9B090F" transform="translate(127,89)"/>
<path d="M0 0 C4.62 0 9.24 0 14 0 C17.63700773 8.51233 20.33285955 17.22988841 23.00146484 26.08032227 C23.75813055 28.5894613 24.52111548 31.0966135 25.28515625 33.60351562 C25.76858994 35.19520297 26.251676 36.78699595 26.734375 38.37890625 C26.96243835 39.12983047 27.19050171 39.8807547 27.42547607 40.6544342 C29 45.88261696 29 45.88261696 29 47 C25.04 47 21.08 47 17 47 C16.01 43.04 15.02 39.08 14 35 C9.38 35 4.76 35 0 35 C-0.33 36.98 -0.66 38.96 -1 41 C-1.63305821 43.01089078 -2.29094062 45.01463373 -3 47 C-6.63 47 -10.26 47 -14 47 C-9.58680364 31.25291299 -4.85607654 15.61586034 0 0 Z " fill="#0B0722" transform="translate(195,86)"/>
<path d="M0 0 C9.24 0 18.48 0 28 0 C28 2.64 28 5.28 28 8 C22.06 8 16.12 8 10 8 C10 11.3 10 14.6 10 18 C15.61 18 21.22 18 27 18 C27 20.64 27 23.28 27 26 C21.39 26 15.78 26 10 26 C10 29.96 10 33.92 10 38 C16.27 38 22.54 38 29 38 C29 40.64 29 43.28 29 46 C19.43 46 9.86 46 0 46 C0 30.82 0 15.64 0 0 Z " fill="#05001B" transform="translate(42,87)"/>
<path d="M0 0 C0.72832031 -0.00386719 1.45664062 -0.00773437 2.20703125 -0.01171875 C7.62157931 -0.00171034 7.62157931 -0.00171034 9.875 1.125 C9.545 4.095 9.215 7.065 8.875 10.125 C8.05 9.96 7.225 9.795 6.375 9.625 C0.07498811 8.7249983 -4.68309845 8.28365773 -10.125 12.125 C-10.785 12.125 -11.445 12.125 -12.125 12.125 C-14.9430643 18.17820211 -15.65692438 25.86088058 -13.3671875 32.234375 C-11.46656383 35.25741422 -9.41971498 36.91144665 -6.125 38.125 C-3.50073495 38.26458857 -0.99207253 38.31431369 1.625 38.25 C2.32238281 38.24097656 3.01976563 38.23195312 3.73828125 38.22265625 C5.45066958 38.19919888 7.16288004 38.16333104 8.875 38.125 C9.37 42.085 9.37 42.085 9.875 46.125 C2.00214858 49.43988481 -6.16884823 48.77705059 -14.125 46.125 C-19.63397951 43.0526845 -23.79928585 39.05754201 -26.125 33.125 C-27.09496135 24.15285751 -27.44447888 15.68787702 -21.9765625 8.08203125 C-15.50339864 1.24014286 -9.13065976 -0.04900175 0 0 Z " fill="#0C0722" transform="translate(28.125,85.875)"/>
<path d="M0 0 C0.78052734 -0.00386719 1.56105469 -0.00773437 2.36523438 -0.01171875 C8.18414502 -0.00167749 8.18414502 -0.00167749 10.4375 1.125 C10.1075 4.095 9.7775 7.065 9.4375 10.125 C8.1175 9.795 6.7975 9.465 5.4375 9.125 C-1.41985059 8.42433269 -5.99359879 8.94832409 -11.5625 13.125 C-14.88829289 18.10252896 -14.14475353 24.40897448 -13.5625 30.125 C-12.41220982 33.33276797 -10.75096946 35.30932874 -7.90625 37.26171875 C-4.56343922 38.49298739 -1.32128825 38.33622731 2.1875 38.25 C2.88488281 38.24097656 3.58226562 38.23195312 4.30078125 38.22265625 C6.01316958 38.19919888 7.72538004 38.16333104 9.4375 38.125 C9.9325 42.085 9.9325 42.085 10.4375 46.125 C1.34647554 48.76966166 -6.83364654 49.37792678 -15.5625 45.125 C-20.47437401 41.898013 -23.33694932 38.63372458 -25.5625 33.125 C-26.70076548 24.19535145 -26.84540145 15.64949679 -21.41796875 8.08203125 C-15.17560611 1.49798139 -8.85414359 -0.04408702 0 0 Z " fill="#0B0722" transform="translate(168.5625,85.875)"/>
<path d="M0 0 C3.63 0 7.26 0 11 0 C11 12.54 11 25.08 11 38 C17.27 38 23.54 38 30 38 C30 40.97 30 43.94 30 47 C20.1 47 10.2 47 0 47 C0 31.49 0 15.98 0 0 Z " fill="#110D28" transform="translate(75,86)"/>
<path d="M0 0 C3.04684614 1.59113076 6.02336642 3.28178062 9 5 C9.63808594 5.30292969 10.27617187 5.60585937 10.93359375 5.91796875 C12.5625 6.875 12.5625 6.875 15 10 C15.50251783 15.05219539 15.34355862 19.94205359 15 25 C11.26800841 23.85169489 8.19029132 22.52817822 4.875 20.5 C1.52500299 18.92487364 0.39511299 18.8658657 -3.17578125 20.078125 C-5.31440889 21.17433174 -7.4240086 22.32955805 -9.49609375 23.546875 C-12 25 -12 25 -14 25 C-14.84071305 19.99575566 -15.66673654 14.89097578 -14 10 C-10.34167935 5.49535144 -5.03037885 2.72692731 0 0 Z " fill="#C9081B" transform="translate(123,63)"/>
<path d="M0 0 C0 13.86 0 27.72 0 42 C0.66 42.33 1.32 42.66 2 43 C-1.96 43 -5.92 43 -10 43 C-10 30.46 -10 17.92 -10 5 C-1 0 -1 0 0 0 Z " fill="#C7071B" transform="translate(119,90)"/>
<path d="M0 0 C4.62 2.31 9.24 4.62 14 7 C14 16.9 14 26.8 14 37 C13.67 37 13.34 37 13 37 C13 33.37 13 29.74 13 26 C11.39125 26.66 9.7825 27.32 8.125 28 C3.25 30 3.25 30 1 30 C0.67 30.66 0.34 31.32 0 32 C0 21.44 0 10.88 0 0 Z " fill="#D6041A" transform="translate(124,88)"/>
<path d="M0 0 C0.33 0 0.66 0 1 0 C1.33 9.9 1.66 19.8 2 30 C5.3 28.68 8.6 27.36 12 26 C12.66 26 13.32 26 14 26 C14 29.96 14 33.92 14 38 C12.411875 38.66 10.82375 39.32 9.1875 40 C8.29417969 40.37125 7.40085938 40.7425 6.48046875 41.125 C4 42 4 42 1 42 C-0.25327816 33.32573622 -0.11200681 24.6777872 -0.0625 15.9375 C-0.05747503 14.38867332 -0.05291388 12.83984507 -0.04882812 11.29101562 C-0.03790138 7.52730424 -0.02069175 3.76366985 0 0 Z " fill="#B9091A" transform="translate(123,88)"/>
<path d="M0 0 C0 12.87 0 25.74 0 39 C2.64 39 5.28 39 8 39 C8 39.33 8 39.66 8 40 C4.04 40 0.08 40 -4 40 C-4.0740324 34.62486811 -4.12854569 29.25003146 -4.16479492 23.87451172 C-4.17990251 22.04503207 -4.20038968 20.21558875 -4.22631836 18.38623047 C-4.26261585 15.76000008 -4.27970615 13.13424751 -4.29296875 10.5078125 C-4.30845261 9.68693146 -4.32393646 8.86605042 -4.33988953 8.02029419 C-4.34057617 5.71533203 -4.34057617 5.71533203 -4 2 C-1 0 -1 0 0 0 Z " fill="#DD0112" transform="translate(113,93)"/>
<path d="M0 0 C1.60875 -0.04125 3.2175 -0.0825 4.875 -0.125 C5.77992188 -0.14820313 6.68484375 -0.17140625 7.6171875 -0.1953125 C10 0 10 0 12 2 C12.23779528 5.0913386 11.98965019 7.03104944 11 10 C11.27769908 12.3406065 11.60539977 14.67624308 12 17 C11.01 17 10.02 17 9 17 C8.7525 16.030625 8.505 15.06125 8.25 14.0625 C7.8375 13.051875 7.425 12.04125 7 11 C4.96756452 10.03122943 4.96756452 10.03122943 3 10 C3 12.31 3 14.62 3 17 C2.01 17 1.02 17 0 17 C0 11.39 0 5.78 0 0 Z " fill="#131222" transform="translate(124,141)"/>
<path d="M0 0 C0.33 5.61 0.66 11.22 1 17 C-6.75 21 -6.75 21 -9 21 C-10.22426622 7.63509381 -10.22426622 7.63509381 -7.25390625 3.66796875 C-2.24726277 0 -2.24726277 0 0 0 Z " fill="#D3041A" transform="translate(118,67)"/>
<path d="M0 0 C1.423125 -0.061875 2.84625 -0.12375 4.3125 -0.1875 C5.51326172 -0.23970703 5.51326172 -0.23970703 6.73828125 -0.29296875 C9 0 9 0 10.796875 1.3203125 C12 3 12 3 11.9375 6.0625 C11 9 11 9 9.1875 10.375 C7 11 7 11 3 11 C3 12.98 3 14.96 3 17 C2.01 17 1.02 17 0 17 C0 11.39 0 5.78 0 0 Z " fill="#0E0C1F" transform="translate(42,141)"/>
<path d="M0 0 C1.65 0 3.3 0 5 0 C6.65 5.61 8.3 11.22 10 17 C8.68 16.67 7.36 16.34 6 16 C5.67 15.01 5.34 14.02 5 13 C2.03 12.505 2.03 12.505 -1 12 C-1.33 13.65 -1.66 15.3 -2 17 C-2.99 17 -3.98 17 -5 17 C-3.83348574 11.07136283 -2.24480642 5.61201606 0 0 Z " fill="#141423" transform="translate(87,141)"/>
<path d="M0 0 C0.66 0 1.32 0 2 0 C2 14.19 2 28.38 2 43 C1.01 43 0.02 43 -1 43 C-1.02464574 37.03686834 -1.042834 31.07376605 -1.05493164 25.1105957 C-1.05997278 23.08031702 -1.06680557 21.05004198 -1.07543945 19.01977539 C-1.08751467 16.10822653 -1.09323034 13.1967255 -1.09765625 10.28515625 C-1.10281754 9.3716188 -1.10797882 8.45808136 -1.11329651 7.51686096 C-1.11349168 5.34424573 -1.06211805 3.17172704 -1 1 C-0.67 0.67 -0.34 0.34 0 0 Z " fill="#B10B19" transform="translate(120,89)"/>
<path d="M0 0 C0.33 0 0.66 0 1 0 C1 9.9 1 19.8 1 30 C0.67 30 0.34 30 0 30 C0 26.37 0 22.74 0 19 C-1.60875 19.66 -3.2175 20.32 -4.875 21 C-9.75 23 -9.75 23 -12 23 C-12.33 23.66 -12.66 24.32 -13 25 C-13.23384561 22.14708357 -13.42616116 19.79495307 -13 17 C-9.45021083 13.67207265 -4.64417846 13.02329356 0 12 C0 8.04 0 4.08 0 0 Z " fill="#C60514" transform="translate(137,95)"/>
<path d="M0 0 C0.66 0 1.32 0 2 0 C2 13.2 2 26.4 2 40 C1.01 40 0.02 40 -1 40 C-1.02464775 34.46411467 -1.04283496 28.928261 -1.05493164 23.39233398 C-1.05997244 21.5075627 -1.06680498 19.62279535 -1.07543945 17.73803711 C-1.08751617 15.03498364 -1.09323068 12.33198169 -1.09765625 9.62890625 C-1.10281754 8.78099014 -1.10797882 7.93307404 -1.11329651 7.0594635 C-1.11349195 5.03928932 -1.06206211 3.01922066 -1 1 C-0.67 0.67 -0.34 0.34 0 0 Z " fill="#D4031A" transform="translate(114,92)"/>
<path d="M0 0 C0.99 0 1.98 0 3 0 C3.33 1.98 3.66 3.96 4 6 C5.1446875 4.515 5.1446875 4.515 6.3125 3 C7.61328125 1.3125 7.61328125 1.3125 9 0 C9.99 0 10.98 0 12 0 C10 4 10 4 8.78125 5.84375 C7.72063855 8.03839429 7.72063855 8.03839429 8.8984375 10.359375 C9.38570312 11.14828125 9.87296875 11.9371875 10.375 12.75 C10.85710937 13.54921875 11.33921875 14.3484375 11.8359375 15.171875 C12.22007812 15.77515625 12.60421875 16.3784375 13 17 C11.68 17 10.36 17 9 17 C7.02 13.535 7.02 13.535 5 10 C4.34 12.31 3.68 14.62 3 17 C2.01 17 1.02 17 0 17 C0 11.39 0 5.78 0 0 Z " fill="#0E0C1D" transform="translate(165,141)"/>
<path d="M0 0 C0.66 0 1.32 0 2 0 C2.67126129 2.4363189 3.33716354 4.87388883 4 7.3125 C4.19078125 8.00279297 4.3815625 8.69308594 4.578125 9.40429688 C5.37716184 12.35787949 6 14.92559219 6 18 C2.7 18 -0.6 18 -4 18 C-2.82307733 11.94725482 -1.54736698 5.9684155 0 0 Z " fill="#EBEBEC" transform="translate(201,95)"/>
<path d="M0 0 C1.65 0.99 3.3 1.98 5 3 C5.38060051 5.78599571 5.47962905 7.93372751 5.3125 10.6875 C5.28994141 11.38939453 5.26738281 12.09128906 5.24414062 12.81445312 C5.18531647 14.5438833 5.09563389 16.27221438 5 18 C2.525 17.01 2.525 17.01 0 16 C0 10.72 0 5.44 0 0 Z " fill="#AF0813" transform="translate(133,70)"/>
<path d="M0 0 C1.98 0.99 1.98 0.99 4 2 C4.33 7.94 4.66 13.88 5 20 C2.525 19.01 2.525 19.01 0 18 C0 12.06 0 6.12 0 0 Z " fill="#DA0218" transform="translate(123,63)"/>
<path d="M0 0 C2.64 0 5.28 0 8 0 C8 0.66 8 1.32 8 2 C6.35 2 4.7 2 3 2 C3 3.98 3 5.96 3 8 C4.32 8 5.64 8 7 8 C7 8.66 7 9.32 7 10 C5.68 10 4.36 10 3 10 C3 12.31 3 14.62 3 17 C2.01 17 1.02 17 0 17 C0 11.39 0 5.78 0 0 Z " fill="#121121" transform="translate(124,141)"/>
<path d="M0 0 C1.54897985 3.0979597 0.83239539 6.26216552 0.5625 9.625 C0.51029297 10.33140625 0.45808594 11.0378125 0.40429688 11.765625 C0.27458793 13.51079987 0.13795046 15.25545725 0 17 C-1.32 17.33 -2.64 17.66 -4 18 C-4.1079859 15.56131832 -4.18726589 13.12740867 -4.25 10.6875 C-4.28351563 9.99720703 -4.31703125 9.30691406 -4.3515625 8.59570312 C-4.390625 6.57421875 -4.390625 6.57421875 -4 3 C-1.984375 1.01953125 -1.984375 1.01953125 0 0 Z " fill="#DD0112" transform="translate(113,70)"/>
<path d="M0 0 C0.33 0 0.66 0 1 0 C1 2.97 1 5.94 1 9 C1.77085938 8.71125 2.54171875 8.4225 3.3359375 8.125 C4.33882813 7.75375 5.34171875 7.3825 6.375 7 C7.37273437 6.62875 8.37046875 6.2575 9.3984375 5.875 C12 5 12 5 14 5 C14 6.98 14 8.96 14 11 C11.85423363 11.02685938 9.70837355 11.04633088 7.5625 11.0625 C6.36753906 11.07410156 5.17257813 11.08570313 3.94140625 11.09765625 C1 11 1 11 0 10 C-0.07205511 8.31391034 -0.08386068 6.62499341 -0.0625 4.9375 C-0.05347656 4.01839844 -0.04445313 3.09929687 -0.03515625 2.15234375 C-0.02355469 1.44207031 -0.01195313 0.73179688 0 0 Z " fill="#A50D18" transform="translate(123,121)"/>
<path d="M0 0 C2.6855594 2.6855594 3.06049974 5.37621328 4 9 C2.0625 8.6875 2.0625 8.6875 0 8 C-0.33 7.01 -0.66 6.02 -1 5 C-3.97 4.505 -3.97 4.505 -7 4 C-7.33 5.65 -7.66 7.3 -8 9 C-8.99 9 -9.98 9 -11 9 C-10.125 3.125 -10.125 3.125 -9 2 C-6.9427083 1.68076508 -4.88386479 1.48838648 -2.8125 1.28125 C-0.9832467 1.18001957 -0.9832467 1.18001957 0 0 Z " fill="#0C0A18" transform="translate(93,149)"/>
<path d="M0 0 C0.99 0 1.98 0 3 0 C3 2.64 3 5.28 3 8 C2.34 8 1.68 8 1 8 C1.99 9.485 1.99 9.485 3 11 C3.125 14.1875 3.125 14.1875 3 17 C2.01 17 1.02 17 0 17 C0 11.39 0 5.78 0 0 Z " fill="#00000F" transform="translate(165,141)"/>
<path d="M0 0 C2.97 0.495 2.97 0.495 6 1 C5.67 2.65 5.34 4.3 5 6 C3.35 6.33 1.7 6.66 0 7 C0 4.69 0 2.38 0 0 Z " fill="#DFDFE1" transform="translate(45,143)"/>
<path d="M0 0 C1.65 0 3.3 0 5 0 C5.625 1.875 5.625 1.875 6 4 C5.34 4.66 4.68 5.32 4 6 C2.68 6 1.36 6 0 6 C0 4.02 0 2.04 0 0 Z " fill="#E2E2E4" transform="translate(127,143)"/>
<path d="M0 0 C2.64 0 5.28 0 8 0 C8.33 0.99 8.66 1.98 9 3 C6.03 2.505 6.03 2.505 3 2 C3 3.98 3 5.96 3 8 C2.34 8 1.68 8 1 8 C0.67 5.36 0.34 2.72 0 0 Z " fill="#03030D" transform="translate(42,141)"/>
<path d="M0 0 C2 3 2 3 2 7 C0.68 7 -0.64 7 -2 7 C-1.125 1.125 -1.125 1.125 0 0 Z " fill="#DBDADD" transform="translate(89,144)"/>
<path d="M0 0 C2.31 0 4.62 0 7 0 C7 0.66 7 1.32 7 2 C5.35 2 3.7 2 2 2 C2 3.65 2 5.3 2 7 C0.5393715 4.35261084 0 3.10551666 0 0 Z " fill="#000008" transform="translate(125,141)"/>
</svg>
