<?xml version="1.0" encoding="UTF-8"?>
<svg version="1.1" xmlns="http://www.w3.org/2000/svg" width="690" height="138">
<path d="M0 0 C11.22 0 22.44 0 34 0 C34.33 26.73 34.66 53.46 35 81 C39.28331342 83.14165671 41.3052857 83.5030051 46 83 C48.34171641 81.52487744 48.34171641 81.52487744 50 79 C50.37433085 76.29171794 50.50776209 73.99664359 50.45410156 71.29394531 C50.45468567 70.52282913 50.45526978 69.75171295 50.45587158 68.95722961 C50.45308947 66.41373347 50.42199291 63.87141586 50.390625 61.328125 C50.38316303 59.56264893 50.37746989 57.79716457 50.37347412 56.03167725 C50.35821428 51.38886579 50.3189296 46.74655626 50.2746582 42.10394287 C50.23371297 37.36493723 50.21546471 32.62585035 50.1953125 27.88671875 C50.15243541 18.59089002 50.08208283 9.29556531 50 0 C61.22 0 72.44 0 84 0 C84.029729 3.6194458 84.029729 3.6194458 84.06005859 7.31201172 C84.12686757 15.27093307 84.20450818 23.22972195 84.28752708 31.18848991 C84.33754286 36.01544172 84.38387225 40.84237107 84.421875 45.66943359 C84.45866132 50.32496522 84.50500275 54.98031136 84.55806351 59.63568497 C84.57664296 61.41471234 84.59173769 63.19377953 84.60334396 64.97286606 C84.62014598 67.45850505 84.64916548 69.9437159 84.68115234 72.42919922 C84.68331253 73.17006775 84.68547272 73.91093628 84.68769836 74.67425537 C84.63261429 78.79005148 84.63261429 78.79005148 87 82 C89.40545638 83.20272819 90.94996953 83.10071472 93.625 83.0625 C94.44226563 83.05347656 95.25953125 83.04445313 96.1015625 83.03515625 C96.72804688 83.02355469 97.35453125 83.01195313 98 83 C100.07861592 78.74705131 100.27397859 74.9149154 100.22705078 70.2722168 C100.22734283 69.51070816 100.22763489 68.74919952 100.22793579 67.96461487 C100.22654768 65.45936502 100.21101112 62.95441634 100.1953125 60.44921875 C100.19158052 58.70758731 100.18873442 56.96595376 100.18673706 55.22431946 C100.17911516 50.64910038 100.15947908 46.07400907 100.1373291 41.49884033 C100.11323463 36.00470368 100.10408282 30.51052421 100.09242249 25.01634979 C100.07305383 16.67747777 100.03472125 8.33888589 100 0 C111.22 0 122.44 0 134 0 C134.06791395 10.92717983 134.12289575 21.8542183 134.15543652 32.78156185 C134.17105843 37.85616365 134.19223305 42.93061292 134.22631836 48.00512695 C134.25903594 52.90697786 134.27687912 57.80868252 134.28463173 62.71063423 C134.29015303 64.57603824 134.30093461 66.4414347 134.31719017 68.30677605 C134.33912952 70.92986915 134.34196009 73.55236628 134.34057617 76.17553711 C134.351362 76.9379924 134.36214783 77.70044769 134.3732605 78.48600769 C134.33841931 84.632861 133.50156438 91.49843562 129 96 C128.566875 96.78375 128.13375 97.5675 127.6875 98.375 C125.78813888 101.32956175 123.90293073 103.04052175 121 105 C120.01 105 119.02 105 118 105 C118 105.66 118 106.32 118 107 C113.01953125 109.1484375 113.01953125 109.1484375 111 110 C110.25878906 110.34933594 109.51757812 110.69867188 108.75390625 111.05859375 C105.23346136 112.26203661 101.80897267 112.49813692 98.125 112.6875 C97.44308594 112.73455078 96.76117188 112.78160156 96.05859375 112.83007812 C89.61786022 113.20425407 83.81030336 112.58939649 77.8125 110.0625 C76.58466797 109.55396484 76.58466797 109.55396484 75.33203125 109.03515625 C73.18629023 108.08269164 71.08880081 107.07081053 69 106 C69 105.34 69 104.68 69 104 C67.68 104 66.36 104 65 104 C65 104.66 65 105.32 65 106 C63.71349294 106.69710731 62.42059335 107.38242876 61.125 108.0625 C60.40570313 108.44535156 59.68640625 108.82820313 58.9453125 109.22265625 C58.30335938 109.47917969 57.66140625 109.73570313 57 110 C56.01 109.505 56.01 109.505 55 109 C54.67 109.66 54.34 110.32 54 111 C44.62474203 114.56259803 32.63168884 113.73056425 23.4375 110.125 C21.9495829 109.43523711 20.46908221 108.72901824 19 108 C17.906875 107.54625 16.81375 107.0925 15.6875 106.625 C12.24627889 104.54426165 10.47327738 102.16029888 8 99 C7.34 98.67 6.68 98.34 6 98 C6 97.01 6 96.02 6 95 C5.34 94.67 4.68 94.34 4 94 C2.8125 92.0625 2.8125 92.0625 2 90 C2.495 89.01 2.495 89.01 3 88 C2.34 88 1.68 88 1 88 C0.05637245 83.23889177 -0.13685483 78.62697066 -0.11352539 73.79150391 C-0.11367142 72.99083496 -0.11381744 72.19016602 -0.1139679 71.36523438 C-0.1132748 68.73564891 -0.10551076 66.1061355 -0.09765625 63.4765625 C-0.09578993 61.64667805 -0.09436704 59.81679309 -0.09336853 57.98690796 C-0.08956023 53.18323372 -0.0797444 48.37958997 -0.06866455 43.57592773 C-0.05841411 38.66911227 -0.05386314 33.76229185 -0.04882812 28.85546875 C-0.03812056 19.23696365 -0.02053747 9.61848914 0 0 Z " fill="#01893A" transform="translate(313,14)"/>
<path d="M0 0 C0.86625 0.144375 1.7325 0.28875 2.625 0.4375 C2.625 1.0975 2.625 1.7575 2.625 2.4375 C3.57375 2.581875 4.5225 2.72625 5.5 2.875 C8.625 3.4375 8.625 3.4375 10.625 4.4375 C10.625 5.0975 10.625 5.7575 10.625 6.4375 C11.38296875 6.66566406 12.1409375 6.89382812 12.921875 7.12890625 C16.22493427 8.72793061 17.10413583 10.201425 18.875 13.375 C19.37515625 14.25027344 19.8753125 15.12554688 20.390625 16.02734375 C21.625 18.4375 21.625 18.4375 22.625 21.4375 C22.295 22.0975 21.965 22.7575 21.625 23.4375 C22.285 23.4375 22.945 23.4375 23.625 23.4375 C23.625 27.3975 23.625 31.3575 23.625 35.4375 C22.965 35.4375 22.305 35.4375 21.625 35.4375 C21.955 36.4275 22.285 37.4175 22.625 38.4375 C21.55245123 40.95448632 20.07696548 43.10555545 18.625 45.4375 C17.965 45.4375 17.305 45.4375 16.625 45.4375 C15.965 46.7575 15.305 48.0775 14.625 49.4375 C13.965 49.4375 13.305 49.4375 12.625 49.4375 C14.34443091 52.87636181 16.21313779 55.02649317 19.1875 57.375 C22.50512454 60.10019158 23.6493133 62.17995804 24.625 66.4375 C24.99625 67.365625 25.3675 68.29375 25.75 69.25 C28.19434065 78.15438381 25.77385732 85.32117304 22.3125 93.5625 C20.18599168 97.1854401 17.79500944 100.64723128 14.625 103.4375 C13.635 103.4375 12.645 103.4375 11.625 103.4375 C11.625 104.0975 11.625 104.7575 11.625 105.4375 C1.55318978 110.25445271 -8.20534568 110.72529872 -19.2578125 110.6328125 C-20.40757568 110.63079834 -21.55733887 110.62878418 -22.74194336 110.62670898 C-26.99467009 110.61632621 -31.24733949 110.5884043 -35.5 110.5625 C-45.02875 110.52125 -54.5575 110.48 -64.375 110.4375 C-64.375 73.8075 -64.375 37.1775 -64.375 -0.5625 C-9.375 -1.5625 -9.375 -1.5625 0 0 Z M-32.375 24.4375 C-32.375 30.7075 -32.375 36.9775 -32.375 43.4375 C-28.5696875 43.499375 -28.5696875 43.499375 -24.6875 43.5625 C-23.89770752 43.58070801 -23.10791504 43.59891602 -22.29418945 43.61767578 C-18.21454922 43.64965678 -14.95966286 43.46066199 -11.375 41.4375 C-9.4737567 37.45394261 -8.8160004 33.81633021 -9.375 29.4375 C-10.68833941 26.59739048 -10.68833941 26.59739048 -13.375 24.4375 C-16.64838669 23.81517018 -19.80826683 23.96699374 -23.125 24.125 C-27.70375 24.2796875 -27.70375 24.2796875 -32.375 24.4375 Z M-32.375 64.4375 C-32.375 71.0375 -32.375 77.6375 -32.375 84.4375 C-27.486875 84.4684375 -27.486875 84.4684375 -22.5 84.5 C-20.96110107 84.51365601 -20.96110107 84.51365601 -19.39111328 84.52758789 C-18.58399902 84.53008545 -17.77688477 84.53258301 -16.9453125 84.53515625 C-16.11789551 84.54039307 -15.29047852 84.54562988 -14.43798828 84.55102539 C-12.31088243 84.57102138 -12.31088243 84.57102138 -10.375 83.4375 C-10.375 82.7775 -10.375 82.1175 -10.375 81.4375 C-9.715 81.1075 -9.055 80.7775 -8.375 80.4375 C-6.49024414 76.66798828 -6.94792918 72.0603691 -8 68.0625 C-10.10838739 65.57076945 -12.23091763 65.25892693 -15.375 64.4375 C-18.34102937 64.21158963 -21.27774864 64.24752333 -24.25 64.3125 C-26.93125 64.35375 -29.6125 64.395 -32.375 64.4375 Z " fill="#F1B701" transform="translate(281.375,14.5625)"/>
<path d="M0 0 C0 0.66 0 1.32 0 2 C0.721875 2.103125 1.44375 2.20625 2.1875 2.3125 C5.27793421 3.06793947 7.41743841 4.15531315 10 6 C10 6.66 10 7.32 10 8 C10.66 8 11.32 8 12 8 C14.125 9.8125 14.125 9.8125 16 12 C16 12.99 16 13.98 16 15 C16.66 15.33 17.32 15.66 18 16 C21.28399418 22.83070789 22.15143226 28.59115282 22.02172852 36.18676758 C22.01212097 36.99704407 22.00251343 37.80732056 21.99261475 38.64215088 C21.95973929 41.30970261 21.91936365 43.97708465 21.87890625 46.64453125 C21.85459393 48.49825957 21.83075093 50.3519941 21.80735779 52.20573425 C21.74462752 57.07688488 21.67552968 61.94792511 21.60510254 66.81896973 C21.53431908 71.79267361 21.46956208 76.76645556 21.40429688 81.74023438 C21.27542707 91.49357777 21.13927278 101.2467996 21 111 C10.44 111 -0.12 111 -11 111 C-11 100.44 -11 89.88 -11 79 C-18.59 79.33 -26.18 79.66 -34 80 C-34.33 90.23 -34.66 100.46 -35 111 C-45.56 111 -56.12 111 -67 111 C-67.22171699 100.10762992 -67.42550365 89.21531906 -67.59840012 78.32206249 C-67.67939969 73.26300967 -67.76801842 68.20433744 -67.87451172 63.14575195 C-67.97714034 58.25706189 -68.05915103 53.36840782 -68.12732697 48.47912025 C-68.15677488 46.62084382 -68.19344843 44.76266634 -68.2377243 42.90468407 C-68.47115713 32.90411436 -68.64674668 24.16987496 -64 15 C-63.34 15 -62.68 15 -62 15 C-62 14.01 -62 13.02 -62 12 C-60.03814584 10.28859531 -58.03697617 8.62126675 -56 7 C-55.67 6.34 -55.34 5.68 -55 5 C-37.18667056 -5.90391681 -19.40333434 -5.03049409 0 0 Z M-32.625 27.25 C-36.14357081 31.72818103 -35.11453217 38.4034566 -35.0625 43.8125 C-35.041875 46.844375 -35.02125 49.87625 -35 53 C-27.08 53 -19.16 53 -11 53 C-10.9175 49.473125 -10.835 45.94625 -10.75 42.3125 C-10.69537598 40.657948 -10.69537598 40.657948 -10.63964844 38.9699707 C-10.57356665 33.14408436 -10.57356665 33.14408436 -12.828125 27.85546875 C-16.12615842 25.03790423 -18.81462236 24.86254352 -23 24.875 C-23.86625 24.87242188 -24.7325 24.86984375 -25.625 24.8671875 C-28.42694427 25.02387517 -30.38238952 25.52491501 -32.625 27.25 Z " fill="#008938" transform="translate(523,14)"/>
<path d="M0 0 C4.12667518 1.03166879 4.37205733 1.16990789 7 4 C8.4540625 5.2065625 8.4540625 5.2065625 9.9375 6.4375 C13 9 13 9 15.125 11.1875 C16.89594564 13.08083193 16.89594564 13.08083193 19.125 14.0625 C21 15 21 15 23 18 C23.99 18.33 24.98 18.66 26 19 C27.375 20.25 27.375 20.25 29 22 C29.886875 22.886875 30.77375 23.77375 31.6875 24.6875 C32.450625 25.450625 33.21375 26.21375 34 27 C31.78564172 31.42871657 29.27698964 33.54300595 25 36 C24.34 36 23.68 36 23 36 C23 36.66 23 37.32 23 38 C22.34 38 21.68 38 21 38 C21 38.66 21 39.32 21 40 C20.38125 40.268125 19.7625 40.53625 19.125 40.8125 C16.7004767 41.95556848 16.7004767 41.95556848 15 45 C14.01 45 13.02 45 12 45 C11.62875 45.9590625 11.62875 45.9590625 11.25 46.9375 C9.67012061 49.544301 8.83219689 49.29195078 6 50 C4.71563266 51.9837767 4.71563266 51.9837767 4 54 C3.01 54 2.02 54 1 54 C0.505 54.99 0.505 54.99 0 56 C0 51.05 0 46.1 0 41 C-4.95 41 -9.9 41 -15 41 C-14.95359375 42.67707031 -14.9071875 44.35414062 -14.859375 46.08203125 C-14.82182736 48.32550287 -14.78543044 50.56899395 -14.75 52.8125 C-14.71648437 53.91271484 -14.68296875 55.01292969 -14.6484375 56.14648438 C-14.54196611 65.16993437 -15.82953403 73.98893449 -22 81 C-22.66 81 -23.32 81 -24 81 C-24.20625 81.61875 -24.4125 82.2375 -24.625 82.875 C-26.54775888 85.84653645 -28.66594527 86.13024659 -32 87 C-32 87.66 -32 88.32 -32 89 C-35.3 90.32 -38.6 91.64 -42 93 C-42.03758423 94.40076782 -42.03758423 94.40076782 -42.07592773 95.82983398 C-42.17086928 99.28325189 -42.27011258 102.7364896 -42.37231445 106.18969727 C-42.41571813 107.68639269 -42.45738913 109.18313939 -42.49731445 110.67993164 C-42.55488616 112.82714312 -42.61861716 114.97409521 -42.68359375 117.12109375 C-42.72025146 118.4145874 -42.75690918 119.70808105 -42.79467773 121.04077148 C-43 124 -43 124 -44 125 C-46.36398468 125.1007812 -48.69811311 125.13973215 -51.0625 125.1328125 C-51.76898682 125.13376923 -52.47547363 125.13472595 -53.20336914 125.13571167 C-54.69970793 125.13639333 -56.19604967 125.13454005 -57.69238281 125.13037109 C-59.99030157 125.12502257 -62.28802486 125.13031651 -64.5859375 125.13671875 C-66.03645877 125.13605797 -67.48697991 125.1347768 -68.9375 125.1328125 C-69.9749939 125.13584885 -69.9749939 125.13584885 -71.03344727 125.13894653 C-75.88504776 125.11495224 -75.88504776 125.11495224 -77 124 C-77.15888092 121.71011219 -77.25138073 119.41556559 -77.31640625 117.12109375 C-77.33718735 116.4344313 -77.35796844 115.74776886 -77.37937927 115.04029846 C-77.44494143 112.83947065 -77.50379015 110.63852025 -77.5625 108.4375 C-77.60567892 106.94855486 -77.649293 105.45962227 -77.69335938 103.97070312 C-77.8006293 100.31393447 -77.90187772 96.65702682 -78 93 C-80.64 92.01 -83.28 91.02 -86 90 C-86 89.34 -86 88.68 -86 88 C-87.65 87.67 -89.3 87.34 -91 87 C-91 86.34 -91 85.68 -91 85 C-92.32 84.67 -93.64 84.34 -95 84 C-95 83.34 -95 82.68 -95 82 C-95.99 81.67 -96.98 81.34 -98 81 C-98 80.01 -98 79.02 -98 78 C-98.66 78 -99.32 78 -100 78 C-100.12375 77.195625 -100.2475 76.39125 -100.375 75.5625 C-100.58125 74.716875 -100.7875 73.87125 -101 73 C-101.66 72.67 -102.32 72.34 -103 72 C-105.24166464 65.3731457 -105.18880329 59.21874217 -104.9765625 52.28125 C-104.95153656 51.18276733 -104.92651062 50.08428467 -104.90072632 48.95251465 C-104.8190126 45.46800621 -104.72223535 41.98410637 -104.625 38.5 C-104.56671077 36.12762847 -104.50940862 33.75523246 -104.453125 31.3828125 C-104.31534778 25.58806471 -104.15717902 19.79438346 -104 14 C-93.11 14 -82.22 14 -71 14 C-70.67 30.17 -70.34 46.34 -70 63 C-69.34 63 -68.68 63 -68 63 C-68 63.66 -68 64.32 -68 65 C-67.15695312 64.98839844 -66.31390625 64.97679688 -65.4453125 64.96484375 C-64.34960938 64.95582031 -63.25390625 64.94679688 -62.125 64.9375 C-60.48917969 64.92009766 -60.48917969 64.92009766 -58.8203125 64.90234375 C-56 65 -56 65 -54 66 C-53.67 65.34 -53.34 64.68 -53 64 C-51.5625 61.875 -51.5625 61.875 -50 60 C-49.34 60 -48.68 60 -48 60 C-48.06900513 58.88141602 -48.06900513 58.88141602 -48.1394043 57.74023438 C-48.3398515 54.32760089 -48.51387078 50.91409876 -48.6875 47.5 C-48.76033203 46.32695313 -48.83316406 45.15390625 -48.90820312 43.9453125 C-49.23528283 37.09587877 -48.96199403 32.21134569 -46 26 C-45.731875 25.278125 -45.46375 24.55625 -45.1875 23.8125 C-42.70568561 20.0244675 -39.47012018 17.41546875 -35.125 16.1875 C-34.42375 16.125625 -33.7225 16.06375 -33 16 C-33 15.34 -33 14.68 -33 14 C-25.77648171 13.03534509 -18.71937932 12.88043886 -11.4375 12.9375 C-9.78137695 12.94426758 -9.78137695 12.94426758 -8.09179688 12.95117188 C-5.39450742 12.96284845 -2.69724625 12.98077972 0 13 C0 8.71 0 4.42 0 0 Z " fill="#018938" transform="translate(656,0)"/>
<path d="M0 0 C1.39120471 0.00015906 2.78241534 0.00585033 4.17358398 0.01586914 C4.90463852 0.01728409 5.63569305 0.01869904 6.38890076 0.02015686 C8.73253406 0.02577131 11.07607313 0.03832617 13.41967773 0.05102539 C15.00496282 0.05603853 16.59024939 0.06060176 18.17553711 0.06469727 C22.06945383 0.07574542 25.96329979 0.09301967 29.85717773 0.11352539 C29.86304398 1.08183289 29.86891022 2.05014038 29.87495422 3.04779053 C29.93215347 12.17071723 30.00490033 21.29340491 30.09289265 30.4160881 C30.13763082 35.10623204 30.1768793 39.79628841 30.20361328 44.48657227 C30.22961194 49.0125029 30.26998981 53.53809721 30.320364 58.06381989 C30.33705602 59.79094512 30.34855574 61.51812855 30.35479164 63.24532318 C30.3644075 65.66366377 30.39243546 68.08113942 30.42480469 70.49926758 C30.4233696 71.21424408 30.42193451 71.92922058 30.42045593 72.66586304 C30.49786384 76.75169501 30.91130804 79.1954734 33.85717773 82.11352539 C37.57346 84.12232661 40.66946357 84.39270634 44.85717773 84.11352539 C45.51717773 83.78352539 46.17717773 83.45352539 46.85717773 83.11352539 C47.84717773 83.60852539 47.84717773 83.60852539 48.85717773 84.11352539 C48.85717773 83.45352539 48.85717773 82.79352539 48.85717773 82.11352539 C49.84717773 82.11352539 50.83717773 82.11352539 51.85717773 82.11352539 C52.87296998 77.8958893 53.02712299 73.79269901 53.0625 69.47753906 C53.0723996 68.725784 53.08229919 67.97402893 53.09249878 67.19949341 C53.12396205 64.72685848 53.14881087 62.25420438 53.17358398 59.78149414 C53.19416663 58.06227635 53.21516344 56.34306348 53.23655701 54.62385559 C53.29164233 50.10792021 53.3411111 45.59194018 53.3894043 41.07592773 C53.43971841 36.46407111 53.49535266 31.85227898 53.55053711 27.24047852 C53.65795301 18.19821396 53.75894262 9.15589435 53.85717773 0.11352539 C64.41717773 0.11352539 74.97717773 0.11352539 85.85717773 0.11352539 C86.0560505 10.91012224 86.24152585 21.70672512 86.40376568 32.50393581 C86.47963749 37.51810899 86.56125698 42.53204817 86.65625 47.54589844 C86.74779695 52.3892322 86.82393469 57.23259064 86.88962746 62.07634163 C86.91728776 63.91948467 86.95039498 65.76255469 86.98917198 67.60549736 C87.04275264 70.19729772 87.07653107 72.78868706 87.10595703 75.38085938 C87.13616188 76.5105162 87.13616188 76.5105162 87.16697693 77.66299438 C87.20042033 83.26912198 85.88622857 87.90620593 83.85717773 93.11352539 C83.19717773 93.11352539 82.53717773 93.11352539 81.85717773 93.11352539 C81.85717773 94.10352539 81.85717773 95.09352539 81.85717773 96.11352539 C81.19717773 96.11352539 80.53717773 96.11352539 79.85717773 96.11352539 C79.77467773 96.71165039 79.69217773 97.30977539 79.60717773 97.92602539 C78.64140994 100.74284812 77.36849206 101.59151671 74.85717773 103.11352539 C74.19717773 103.11352539 73.53717773 103.11352539 72.85717773 103.11352539 C72.85717773 103.77352539 72.85717773 104.43352539 72.85717773 105.11352539 C71.86717773 105.11352539 70.87717773 105.11352539 69.85717773 105.11352539 C69.85717773 105.77352539 69.85717773 106.43352539 69.85717773 107.11352539 C54.2049626 114.14105055 35.20676333 116.04598842 18.85717773 110.11352539 C18.85717773 109.45352539 18.85717773 108.79352539 18.85717773 108.11352539 C16.87717773 107.78352539 14.89717773 107.45352539 12.85717773 107.11352539 C12.85717773 106.45352539 12.85717773 105.79352539 12.85717773 105.11352539 C11.86717773 105.11352539 10.87717773 105.11352539 9.85717773 105.11352539 C9.85717773 104.45352539 9.85717773 103.79352539 9.85717773 103.11352539 C8.68155273 102.74227539 8.68155273 102.74227539 7.48217773 102.36352539 C4.43422165 100.91211773 4.1318111 100.11801832 2.85717773 97.11352539 C2.13788086 96.44063477 2.13788086 96.44063477 1.40405273 95.75415039 C-0.40434957 93.83614795 -0.98085437 92.30462104 -1.76782227 89.80102539 C-2.1274707 88.69307617 -2.1274707 88.69307617 -2.49438477 87.56274414 C-3.9311395 82.13596573 -4.28824335 76.87943847 -4.2722168 71.28808594 C-4.27396912 70.52803757 -4.27572144 69.7679892 -4.27752686 68.98490906 C-4.281904 66.48999707 -4.2790235 63.99515676 -4.27563477 61.50024414 C-4.27630864 59.76243578 -4.27727937 58.0246275 -4.27853394 56.28681946 C-4.280005 52.65474546 -4.27787406 49.02269612 -4.27319336 45.390625 C-4.26747513 40.72526194 -4.27079199 36.05995614 -4.27676582 31.39459515 C-4.2803693 27.81138167 -4.27923421 24.22818191 -4.27663803 20.64496803 C-4.27596927 18.92369391 -4.27679543 17.20241855 -4.27911758 15.48114586 C-4.2816429 13.08472737 -4.27780624 10.68840358 -4.2722168 8.29199219 C-4.27424103 7.57565613 -4.27626526 6.85932007 -4.27835083 6.12127686 C-4.25242235 0.15360649 -4.25242235 0.15360649 0 0 Z " fill="#F1B601" transform="translate(121.142822265625,13.886474609375)"/>
<path d="M0 0 C0.79616226 -0.0033284 1.59232452 -0.0066568 2.41261292 -0.01008606 C4.08927842 -0.0151275 5.76595387 -0.01749525 7.44262695 -0.01733398 C9.99251983 -0.01952148 12.5419803 -0.03770939 15.09179688 -0.05664062 C16.72786312 -0.05957503 18.3639314 -0.06155951 20 -0.0625 C20.75437851 -0.06968552 21.50875702 -0.07687103 22.28599548 -0.08427429 C23.00686844 -0.08119766 23.72774139 -0.07812103 24.47045898 -0.07495117 C25.0941185 -0.07637619 25.71777802 -0.07780121 26.3603363 -0.07926941 C29.49947766 0.27253971 32.52915039 1.30018136 35.56640625 2.16796875 C35.56640625 10.74796875 35.56640625 19.32796875 35.56640625 28.16796875 C29.08333083 28.75733924 23.13101854 29.29271395 16.7109375 29.265625 C16.03842453 29.26421005 15.36591156 29.2627951 14.67301941 29.26133728 C12.57493168 29.25584591 10.47696039 29.24331645 8.37890625 29.23046875 C6.93554844 29.22543963 5.49218892 29.22087924 4.04882812 29.21679688 C0.5546512 29.20591255 -2.93945987 29.18872725 -6.43359375 29.16796875 C-7.54195798 31.05113034 -7.54195798 31.05113034 -8.43359375 33.16796875 C-7.18104875 35.67305876 -6.2323687 35.91674366 -3.72265625 37.078125 C-2.97242187 37.42810547 -2.2221875 37.77808594 -1.44921875 38.13867188 C-0.6603125 38.49896484 0.12859375 38.85925781 0.94140625 39.23046875 C2.11316406 39.77670898 2.11316406 39.77670898 3.30859375 40.33398438 C6.37759005 41.75549722 9.35415574 43.09721858 12.56640625 44.16796875 C12.56640625 44.82796875 12.56640625 45.48796875 12.56640625 46.16796875 C13.35015625 46.20921875 14.13390625 46.25046875 14.94140625 46.29296875 C22.33836238 48.07844092 28.52327137 52.5484756 33.56640625 58.16796875 C34.49453125 59.03421875 35.42265625 59.90046875 36.37890625 60.79296875 C38.56640625 63.16796875 38.56640625 63.16796875 38.56640625 66.16796875 C39.22640625 66.49796875 39.88640625 66.82796875 40.56640625 67.16796875 C44.08159981 76.34652971 43.02595692 85.12235462 39.56640625 94.16796875 C38.91998781 95.51123545 38.25945782 96.8481575 37.56640625 98.16796875 C36.90640625 98.16796875 36.24640625 98.16796875 35.56640625 98.16796875 C35.56640625 98.82796875 35.56640625 99.48796875 35.56640625 100.16796875 C34.19140625 101.79296875 34.19140625 101.79296875 32.56640625 103.16796875 C31.90640625 103.16796875 31.24640625 103.16796875 30.56640625 103.16796875 C30.56640625 103.82796875 30.56640625 104.48796875 30.56640625 105.16796875 C29.57640625 105.16796875 28.58640625 105.16796875 27.56640625 105.16796875 C27.23640625 105.82796875 26.90640625 106.48796875 26.56640625 107.16796875 C18.68066632 111.27512497 10.46366961 111.32425664 1.7265625 111.30078125 C0.51606483 111.30221634 0.51606483 111.30221634 -0.71888733 111.30368042 C-2.41212035 111.30435569 -4.10535606 111.30254743 -5.79858398 111.29833984 C-8.36122576 111.29298935 -10.92369174 111.29830362 -13.48632812 111.3046875 C-21.53617773 111.30762208 -29.43565704 111.20154826 -37.43359375 110.16796875 C-37.43359375 115.11796875 -37.43359375 120.06796875 -37.43359375 125.16796875 C-43.43359375 122.16796875 -43.43359375 122.16796875 -44.43359375 119.16796875 C-45.25859375 118.83796875 -46.08359375 118.50796875 -46.93359375 118.16796875 C-47.75859375 117.83796875 -48.58359375 117.50796875 -49.43359375 117.16796875 C-49.76359375 116.17796875 -50.09359375 115.18796875 -50.43359375 114.16796875 C-51.76155666 113.81384531 -53.09575982 113.48275321 -54.43359375 113.16796875 C-55.80859375 111.91796875 -55.80859375 111.91796875 -57.43359375 110.16796875 C-60.36367444 107.66519149 -63.22628508 105.30617453 -66.43359375 103.16796875 C-66.43359375 102.50796875 -66.43359375 101.84796875 -66.43359375 101.16796875 C-67.75359375 100.83796875 -69.07359375 100.50796875 -70.43359375 100.16796875 C-70.76359375 98.84796875 -71.09359375 97.52796875 -71.43359375 96.16796875 C-70.89089844 95.76964844 -70.34820312 95.37132813 -69.7890625 94.9609375 C-69.07363281 94.43113281 -68.35820313 93.90132813 -67.62109375 93.35546875 C-66.91339844 92.83339844 -66.20570312 92.31132813 -65.4765625 91.7734375 C-63.64286814 90.33242721 -62.05900356 88.83367798 -60.43359375 87.16796875 C-54.81388891 82.40343638 -49.06925889 77.86226714 -43.10546875 73.53515625 C-41.30607247 72.25399964 -41.30607247 72.25399964 -40.43359375 70.16796875 C-39.44359375 70.16796875 -38.45359375 70.16796875 -37.43359375 70.16796875 C-37.43359375 74.45796875 -37.43359375 78.74796875 -37.43359375 83.16796875 C-22.91359375 83.16796875 -8.39359375 83.16796875 6.56640625 83.16796875 C8.79001305 79.46611115 8.79001305 79.46611115 8.56640625 76.16796875 C7.57640625 76.16796875 6.58640625 76.16796875 5.56640625 76.16796875 C5.56640625 75.50796875 5.56640625 74.84796875 5.56640625 74.16796875 C2.92640625 73.50796875 0.28640625 72.84796875 -2.43359375 72.16796875 C-2.43359375 71.50796875 -2.43359375 70.84796875 -2.43359375 70.16796875 C-3.69042969 70.03068359 -3.69042969 70.03068359 -4.97265625 69.890625 C-8.95102795 69.05992662 -12.24624405 67.48332532 -15.80859375 65.60546875 C-16.44925781 65.27611328 -17.08992188 64.94675781 -17.75 64.60742188 C-19.31498007 63.80157393 -20.87483396 62.98578382 -22.43359375 62.16796875 C-22.43359375 61.50796875 -22.43359375 60.84796875 -22.43359375 60.16796875 C-23.42359375 60.16796875 -24.41359375 60.16796875 -25.43359375 60.16796875 C-25.43359375 59.50796875 -25.43359375 58.84796875 -25.43359375 58.16796875 C-26.42359375 58.16796875 -27.41359375 58.16796875 -28.43359375 58.16796875 C-28.76359375 57.50796875 -29.09359375 56.84796875 -29.43359375 56.16796875 C-31.45029202 55.03446341 -31.45029202 55.03446341 -33.43359375 54.16796875 C-33.43359375 53.17796875 -33.43359375 52.18796875 -33.43359375 51.16796875 C-34.42359375 50.83796875 -35.41359375 50.50796875 -36.43359375 50.16796875 C-36.43359375 49.17796875 -36.43359375 48.18796875 -36.43359375 47.16796875 C-37.42359375 46.67296875 -37.42359375 46.67296875 -38.43359375 46.16796875 C-42.13271772 38.87153156 -42.80247756 30.77034763 -40.484375 22.9765625 C-36.78411119 13.46326596 -31.30594151 8.06408039 -22.43359375 3.16796875 C-19.73058376 2.1752269 -17.29784973 1.68447393 -14.43359375 1.16796875 C-13.53890381 0.99225342 -12.64421387 0.81653809 -11.72241211 0.63549805 C-7.80481712 0.07858361 -3.9478801 0.00580814 0 0 Z " fill="#F0B602" transform="translate(71.43359375,12.83203125)"/>
<path d="M0 0 C2.17529019 4.35058038 2.23731864 7.37313778 2.13525391 12.07324219 C2.12579239 12.88337265 2.11633087 13.69350311 2.10658264 14.52818298 C2.07295131 17.20131223 2.02482351 19.87397318 1.9765625 22.546875 C1.95039058 24.40202619 1.92512396 26.25719035 1.90072632 28.11236572 C1.83412232 32.99184607 1.75521922 37.87105311 1.67376709 42.75030518 C1.59280125 47.7305656 1.52344961 52.71098621 1.453125 57.69140625 C1.31346 67.4611295 1.16080329 77.23060341 1 87 C0.67 87 0.34 87 0 87 C0 77.43 0 67.86 0 58 C-1.65 58 -3.3 58 -5 58 C-5 50.08 -5 42.16 -5 34 C-4.01 34 -3.02 34 -2 34 C-2 33.34 -2 32.68 -2 32 C-2.99 32 -3.98 32 -5 32 C-5 30.02 -5 28.04 -5 26 C-3.35 26 -1.7 26 0 26 C0 17.42 0 8.84 0 0 Z " fill="#197D42" transform="translate(543,38)"/>
<path d="M0 0 C1.39120471 0.00015906 2.78241534 0.00585033 4.17358398 0.01586914 C4.90463852 0.01728409 5.63569305 0.01869904 6.38890076 0.02015686 C8.73253406 0.02577131 11.07607313 0.03832617 13.41967773 0.05102539 C15.00496282 0.05603853 16.59024939 0.06060176 18.17553711 0.06469727 C22.06945383 0.07574542 25.96329979 0.09301967 29.85717773 0.11352539 C29.85717773 0.44352539 29.85717773 0.77352539 29.85717773 1.11352539 C14.51217773 1.60852539 14.51217773 1.60852539 -1.14282227 2.11352539 C-1.47282227 28.18352539 -1.80282227 54.25352539 -2.14282227 81.11352539 C-2.80282227 80.78352539 -3.46282227 80.45352539 -4.14282227 80.11352539 C-4.16594602 69.83048001 -4.18373752 59.54744077 -4.19463444 49.26437473 C-4.1998632 44.49004259 -4.20696071 39.71572818 -4.21826172 34.94140625 C-4.22909086 30.33786277 -4.23509916 25.7343364 -4.23769951 21.13078117 C-4.23955371 19.37042916 -4.24317423 17.61007813 -4.24855232 15.84973335 C-4.25576312 13.39280262 -4.25681319 10.93594344 -4.25634766 8.47900391 C-4.25994293 7.74389084 -4.26353821 7.00877777 -4.26724243 6.25138855 C-4.25465816 0.15368726 -4.25465816 0.15368726 0 0 Z " fill="#EFD40D" transform="translate(121.142822265625,13.886474609375)"/>
<path d="M0 0 C0.99 0.495 0.99 0.495 2 1 C2 10.57 2 20.14 2 30 C12.56 30 23.12 30 34 30 C33.67 30.66 33.34 31.32 33 32 C28.46102295 32.02465392 23.92208457 32.04283789 19.38305664 32.05493164 C17.83780234 32.0599714 16.29255284 32.0668032 14.74731445 32.07543945 C12.53074971 32.08752076 10.31424782 32.09323173 8.09765625 32.09765625 C7.05545677 32.10539818 7.05545677 32.10539818 5.99220276 32.11329651 C4.3277067 32.11349277 2.66334501 32.06189129 1 32 C0 31 0 31 -0.11352539 28.04077148 C-0.10828857 26.74727783 -0.10305176 25.45378418 -0.09765625 24.12109375 C-0.0962413 23.4344313 -0.09482635 22.74776886 -0.09336853 22.04029846 C-0.08775479 19.83932199 -0.07520007 17.63844591 -0.0625 15.4375 C-0.05748676 13.94856917 -0.05292355 12.45963676 -0.04882812 10.97070312 C-0.03778093 7.31376925 -0.02050713 3.65689442 0 0 Z " fill="#02A31B" transform="translate(579,93)"/>
<path d="M0 0 C0.66 0 1.32 0 2 0 C2.01030746 0.8695079 2.02061493 1.73901581 2.03123474 2.63487244 C2.1295096 10.85845522 2.23206456 19.08197136 2.33933926 27.30544186 C2.39433186 31.53246063 2.44771184 35.75948654 2.49731445 39.98657227 C2.54530977 44.07149848 2.59766125 48.15634843 2.65294075 52.24118233 C2.67320622 53.7939417 2.69194361 55.34672184 2.70907402 56.89951897 C2.73557586 70.56972175 2.73557586 70.56972175 5 84 C3.68 84 2.36 84 1 84 C0.67 56.28 0.34 28.56 0 0 Z " fill="#187E40" transform="translate(455,41)"/>
<path d="M0 0 C7.92 0 15.84 0 24 0 C24 0.33 24 0.66 24 1 C22.72125 1.12375 21.4425 1.2475 20.125 1.375 C16.65209064 1.69042399 16.65209064 1.69042399 14 4 C13.195625 3.814375 12.39125 3.62875 11.5625 3.4375 C10.2940625 3.2209375 10.2940625 3.2209375 9 3 C7.1645201 4.33378575 7.1645201 4.33378575 6 6 C5.34 5.67 4.68 5.34 4 5 C3.01 4.67 2.02 4.34 1 4 C0.67 2.68 0.34 1.36 0 0 Z " fill="#DEC31E" transform="translate(37,96)"/>
<path d="M0 0 C0.66 0 1.32 0 2 0 C2 7.92 2 15.84 2 24 C1.01 24 0.02 24 -1 24 C-0.67 16.08 -0.34 8.16 0 0 Z " fill="#1D7E38" transform="translate(445,16)"/>
<path d="M0 0 C0.33 0 0.66 0 1 0 C1 6.93 1 13.86 1 21 C-0.32 21 -1.64 21 -3 21 C-3 20.34 -3 19.68 -3 19 C-2.34 19 -1.68 19 -1 19 C-1.01160156 17.71222656 -1.02320313 16.42445312 -1.03515625 15.09765625 C-1.0445327 13.41927228 -1.05363305 11.74088674 -1.0625 10.0625 C-1.07506836 8.78729492 -1.07506836 8.78729492 -1.08789062 7.48632812 C-1.09111328 6.67744141 -1.09433594 5.86855469 -1.09765625 5.03515625 C-1.10289307 4.2862915 -1.10812988 3.53742676 -1.11352539 2.76586914 C-1 1 -1 1 0 0 Z " fill="#0C6D33" transform="translate(487,104)"/>
<path d="M0 0 C0.99 0 1.98 0 3 0 C3.33 5.28 3.66 10.56 4 16 C3.34 15.67 2.68 15.34 2 15 C2 14.01 2 13.02 2 12 C1.34 12 0.68 12 0 12 C0 8.04 0 4.08 0 0 Z " fill="#016C2D" transform="translate(637,48)"/>
<path d="M0 0 C0.66 0 1.32 0 2 0 C2.04254356 1.99954746 2.04080783 4.00041636 2 6 C1.67 6.33 1.34 6.66 1 7 C0.84417697 8.34015221 0.74955858 9.68758903 0.68359375 11.03515625 C0.62075195 12.24848633 0.62075195 12.24848633 0.55664062 13.48632812 C0.51732422 14.33646484 0.47800781 15.18660156 0.4375 16.0625 C0.39431641 16.91650391 0.35113281 17.77050781 0.30664062 18.65039062 C0.20023298 20.76672037 0.09958269 22.88333813 0 25 C-0.66 24.67 -1.32 24.34 -2 24 C-1.86184471 20.18718055 -1.71319438 16.37484283 -1.5625 12.5625 C-1.52318359 11.47388672 -1.48386719 10.38527344 -1.44335938 9.26367188 C-1.40146484 8.22919922 -1.35957031 7.19472656 -1.31640625 6.12890625 C-1.27974854 5.17056885 -1.24309082 4.21223145 -1.20532227 3.22485352 C-1 1 -1 1 0 0 Z " fill="#158243" transform="translate(486,98)"/>
<path d="M0 0 C5.94 0 11.88 0 18 0 C18 1.32 18 2.64 18 4 C17.34 4 16.68 4 16 4 C16 3.34 16 2.68 16 2 C15.34773438 2.01160156 14.69546875 2.02320312 14.0234375 2.03515625 C9.2238086 2.08470994 4.72215315 1.99413751 0 1 C0 0.67 0 0.34 0 0 Z " fill="#FBCD36" transform="translate(250,98)"/>
<path d="M0 0 C0.66 0 1.32 0 2 0 C2.06058594 0.60328125 2.12117188 1.2065625 2.18359375 1.828125 C2.26738281 2.62734375 2.35117187 3.4265625 2.4375 4.25 C2.55931641 5.43335937 2.55931641 5.43335937 2.68359375 6.640625 C2.97634993 8.82364639 3.42064419 10.8773182 4 13 C2.68 13 1.36 13 0 13 C0 8.71 0 4.42 0 0 Z " fill="#0E7134" transform="translate(456,112)"/>
<path d="M0 0 C4.63908179 -0.61854424 7.21981549 0.33163446 11 3 C10.67 3.99 10.34 4.98 10 6 C10 5.34 10 4.68 10 4 C6.04 3.67 2.08 3.34 -2 3 C-1.34 2.01 -0.68 1.02 0 0 Z " fill="#0D7E3B" transform="translate(498,36)"/>
<path d="M0 0 C0.33 0 0.66 0 1 0 C1 1.65 1 3.3 1 5 C-3.47578512 7.31293038 -7.43878518 7.06054199 -12.3125 6.625 C-13.05306641 6.56828125 -13.79363281 6.5115625 -14.55664062 6.453125 C-16.37193743 6.31258589 -18.18611597 6.15772905 -20 6 C-20 5.67 -20 5.34 -20 5 C-18.46279297 4.90912109 -18.46279297 4.90912109 -16.89453125 4.81640625 C-15.53384305 4.73194974 -14.17316657 4.64730433 -12.8125 4.5625 C-12.13896484 4.52318359 -11.46542969 4.48386719 -10.77148438 4.44335938 C-7.10300898 4.21072435 -3.58305794 3.82792989 0 3 C0 2.01 0 1.02 0 0 Z " fill="#E6BE1E" transform="translate(270,53)"/>
<path d="M0 0 C2.64 0 5.28 0 8 0 C8 0.66 8 1.32 8 2 C9.32 2.33 10.64 2.66 12 3 C8.04 3 4.08 3 0 3 C0 2.01 0 1.02 0 0 Z " fill="#E3BB00" transform="translate(256,36)"/>
<path d="M0 0 C5.53846154 -0.36923077 5.53846154 -0.36923077 7.875 1.5 C8.24625 1.995 8.6175 2.49 9 3 C8.01 3.99 7.02 4.98 6 6 C5.34 5.67 4.68 5.34 4 5 C3.01 4.67 2.02 4.34 1 4 C0.3125 1.9375 0.3125 1.9375 0 0 Z " fill="#E7C814" transform="translate(37,96)"/>
<path d="M0 0 C0.99 0.495 0.99 0.495 2 1 C5.67329964 1.13357453 8.49852959 1.1671568 12 0 C12 1.98 12 3.96 12 6 C11.34 6 10.68 6 10 6 C10 5.01 10 4.02 10 3 C7.03 3 4.06 3 1 3 C0.67 2.01 0.34 1.02 0 0 Z " fill="#147D40" transform="translate(400,96)"/>
<path d="M0 0 C-0.66 0 -1.32 0 -2 0 C-2 0.66 -2 1.32 -2 2 C-2.9590625 2.433125 -2.9590625 2.433125 -3.9375 2.875 C-6.15206079 3.82823451 -6.15206079 3.82823451 -7 6 C-7.99 6 -8.98 6 -10 6 C-9.875 4.1875 -9.875 4.1875 -9 2 C-3.81203008 -1.27067669 -3.81203008 -1.27067669 0 0 Z " fill="#098D45" transform="translate(679,38)"/>
<path d="M0 0 C-0.33 1.32 -0.66 2.64 -1 4 C-1.66 4 -2.32 4 -3 4 C-3 4.66 -3 5.32 -3 6 C-3.99 6 -4.98 6 -6 6 C-6.33 4.68 -6.66 3.36 -7 2 C-2.25 0 -2.25 0 0 0 Z " fill="#E5B714" transform="translate(105,112)"/>
<path d="M0 0 C-0.33 1.32 -0.66 2.64 -1 4 C-1.66 4 -2.32 4 -3 4 C-3 3.34 -3 2.68 -3 2 C-4.11375 2.309375 -4.11375 2.309375 -5.25 2.625 C-8.37796068 3.05154009 -9.32595741 2.49700675 -12 1 C-10.56274129 0.83126522 -9.12518162 0.66509263 -7.6875 0.5 C-6.88699219 0.4071875 -6.08648437 0.314375 -5.26171875 0.21875 C-3 0 -3 0 0 0 Z " fill="#C7AE00" transform="translate(64,96)"/>
<path d="M0 0 C2.31 0 4.62 0 7 0 C7 0.99 7 1.98 7 3 C4.69 3 2.38 3 0 3 C0 2.01 0 1.02 0 0 Z " fill="#DFBF00" transform="translate(256,76)"/>
<path d="M0 0 C2 1 2 1 3.25 3.375 C3.4975 4.24125 3.745 5.1075 4 6 C3.01 7.485 3.01 7.485 2 9 C-0.29013653 5.5647952 -0.17842973 4.014669 0 0 Z " fill="#0C8F4A" transform="translate(540,31)"/>
<path d="M0 0 C0.33 0.66 0.66 1.32 1 2 C3.52733235 2.65555119 3.52733235 2.65555119 6 3 C5.67 3.66 5.34 4.32 5 5 C2.69 4.67 0.38 4.34 -2 4 C-2 3.01 -2 2.02 -2 1 C-1.34 0.67 -0.68 0.34 0 0 Z " fill="#CDA504" transform="translate(283,15)"/>
<path d="M0 0 C3.3 0.33 6.6 0.66 10 1 C10 1.66 10 2.32 10 3 C5.545 3.495 5.545 3.495 1 4 C0.67 2.68 0.34 1.36 0 0 Z " fill="#0C8547" transform="translate(503,10)"/>
</svg>
