<?xml version="1.0" encoding="UTF-8"?>
<svg version="1.1" xmlns="http://www.w3.org/2000/svg" width="343" height="147">
<path d="M0 0 C113.19 0 226.38 0 343 0 C343 48.51 343 97.02 343 147 C229.81 147 116.62 147 0 147 C0 98.49 0 49.98 0 0 Z " fill="#FBFDFC" transform="translate(0,0)"/>
<path d="M0 0 C3.16115776 1.36983503 3.9927092 1.9890638 6 5 C6.69123824 10.11998554 6.60695758 14.63434545 4.5 19.375 C1.38988749 22.64061813 -1.94759117 25.01765282 -6 27 C-6.66 27 -7.32 27 -8 27 C-6.12939066 34.9500897 -2.97290158 38.562699 4 43 C4 43.33 4 43.66 4 44 C-0.87067948 44.34653056 -4.80377649 44.54168612 -9.3125 42.5 C-12.63782329 39.40667601 -15.00435871 36.07958528 -17 32 C-17 31.34 -17 30.68 -17 30 C-18.65 30 -20.3 30 -22 30 C-22.20625 30.845625 -22.4125 31.69125 -22.625 32.5625 C-24.46123934 37.15309835 -27.45788548 41.72894274 -32 44 C-34.04055005 44.07065617 -36.08334257 44.08421976 -38.125 44.0625 C-39.22070312 44.05347656 -40.31640625 44.04445312 -41.4453125 44.03515625 C-42.28835937 44.02355469 -43.13140625 44.01195312 -44 44 C-43.29875 43.484375 -42.5975 42.96875 -41.875 42.4375 C-35.37764438 37.10552157 -35.37764438 37.10552157 -32.625 29.5625 C-32.74875 28.716875 -32.8725 27.87125 -33 27 C-34.216875 26.505 -35.43375 26.01 -36.6875 25.5 C-41.49856542 23.06455836 -44.07689953 20.03373763 -46 15 C-46.89153562 10.26618257 -46.6559788 7.10837798 -44.1875 2.9375 C-42 1 -42 1 -39 1 C-37.67770811 3.64458379 -37.90322806 5.67761301 -37.9375 8.625 C-37.94652344 9.62789062 -37.95554687 10.63078125 -37.96484375 11.6640625 C-37.97644531 12.43492188 -37.98804687 13.20578125 -38 14 C-36.205625 13.87625 -36.205625 13.87625 -34.375 13.75 C-29.89592759 13.75 -27.43840054 15.05279954 -24 18 C-21.91992578 21.0255625 -22 22.14475109 -22 26 C-20.68 26 -19.36 26 -18 26 C-17.86464844 25.39671875 -17.72929687 24.7934375 -17.58984375 24.171875 C-16.44473108 19.92055848 -15.57770384 16.80432755 -11.6875 14.4375 C-8.1009492 13.03935308 -5.79631163 12.62962813 -2 13 C-2.04125 11.96875 -2.0825 10.9375 -2.125 9.875 C-2.00424851 6.13170373 -1.35127982 3.46265453 0 0 Z " fill="#2E634E" transform="translate(150,81)"/>
<path d="M0 0 C2.31 0.66 4.62 1.32 7 2 C6.67 8.27 6.34 14.54 6 21 C7.98 21 9.96 21 12 21 C12 15.06 12 9.12 12 3 C13.65 3 15.3 3 17 3 C17 8.61 17 14.22 17 20 C18.65 20 20.3 20 22 20 C23.29767833 16.10696501 23.48158553 12.05334486 23 8 C21.6490712 5.0745356 21.6490712 5.0745356 20 3 C23.41529114 3.2846076 24.78498424 3.79660671 27.3125 6.1875 C29.32835318 9.5472553 29.64220846 11.14674921 29 15 C26.7712841 18.50226785 24.82017668 20.45309747 21 22 C18.203125 22.4140625 18.203125 22.4140625 15.25 22.625 C14.26515625 22.69976562 13.2803125 22.77453125 12.265625 22.8515625 C11.51796875 22.90054688 10.7703125 22.94953125 10 23 C9.29925156 26.153368 9 28.72724974 9 32 C9.66 32.99 10.32 33.98 11 35 C10.48275862 38.51724138 10.48275862 38.51724138 9 40 C5.66381769 40.14257189 2.34024394 40.04228157 -1 40 C-0.67 36.04 -0.34 32.08 0 28 C-0.99 27.67 -1.98 27.34 -3 27 C-3.08696177 23.06263877 -3.14037835 19.12552372 -3.1875 15.1875 C-3.21263672 14.06794922 -3.23777344 12.94839844 -3.26367188 11.79492188 C-3.27333984 10.72177734 -3.28300781 9.64863281 -3.29296875 8.54296875 C-3.3086792 7.55321045 -3.32438965 6.56345215 -3.34057617 5.54370117 C-2.95047123 2.6300787 -2.27991712 1.77502198 0 0 Z " fill="#EBF2F0" transform="translate(3,104)"/>
<path d="M0 0 C3.91125206 1.19732206 5.0031156 2.42891918 7.0625 5.9375 C8.03644939 9.22457919 8.59169928 11.56946355 7.328125 14.8359375 C3.86971717 21.14088101 3.86971717 21.14088101 1.0625 22.9375 C-2.37732856 22.9375 -3.90162869 21.96358822 -6.6875 19.9375 C-9.62515087 16.02063218 -10.39177896 12.80599909 -9.9375 7.9375 C-7.63515485 3.41503631 -5.45750778 -0.11611719 0 0 Z " fill="#2D624C" transform="translate(130.9375,55.0625)"/>
<path d="M0 0 C1.65 0 3.3 0 5 0 C5 2.97 5 5.94 5 9 C6.65 8.34 8.3 7.68 10 7 C9.67 4.69 9.34 2.38 9 0 C13.875 0.875 13.875 0.875 15 2 C15.04080783 3.99958364 15.04254356 6.00045254 15 8 C14.01 8.33 13.02 8.66 12 9 C14.18379731 13.93190637 14.18379731 13.93190637 18.25 16.9375 C18.8275 16.958125 19.405 16.97875 20 17 C20.99 15.02 21.98 13.04 23 11 C25.97 11.495 25.97 11.495 29 12 C28.46375 11.13375 27.9275 10.2675 27.375 9.375 C26 6 26 6 26.8125 2.625 C27.204375 1.75875 27.59625 0.8925 28 0 C28.66 0 29.32 0 30 0 C31.17112946 2.62309099 32.33705964 5.24828142 33.5 7.875 C33.83386719 8.62136719 34.16773438 9.36773437 34.51171875 10.13671875 C34.82753906 10.85214844 35.14335937 11.56757812 35.46875 12.3046875 C35.76201172 12.96452637 36.05527344 13.62436523 36.35742188 14.30419922 C37 16 37 16 37 18 C35.35 18 33.7 18 32 18 C31.505 15.525 31.505 15.525 31 13 C28.69 13.33 26.38 13.66 24 14 C23.67 14.99 23.34 15.98 23 17 C23.33 17.66 23.66 18.32 24 19 C13.37075352 20.06801041 13.37075352 20.06801041 10.08984375 17.51171875 C8.31897455 15.01804579 7 13.10630411 7 10 C6.34 10 5.68 10 5 10 C5 12.64 5 15.28 5 18 C3.35 18 1.7 18 0 18 C0 12.06 0 6.12 0 0 Z " fill="#3F6D5C" transform="translate(241,106)"/>
<path d="M0 0 C1.98 0 3.96 0 6 0 C6.06058594 0.97582031 6.12117187 1.95164062 6.18359375 2.95703125 C6.26738281 4.22933594 6.35117188 5.50164062 6.4375 6.8125 C6.51871094 8.07707031 6.59992188 9.34164062 6.68359375 10.64453125 C6.87184547 13.99181893 6.87184547 13.99181893 8 17 C10.84614024 14.15385976 10.45579076 11.19630858 10.625 7.375 C10.68300781 6.31539063 10.68300781 6.31539063 10.7421875 5.234375 C10.83647724 3.49001476 10.91932891 1.74504309 11 0 C13.7578125 -0.28125 13.7578125 -0.28125 17 0 C19.1171875 1.96875 19.1171875 1.96875 20.875 4.5 C21.47054687 5.3353125 22.06609375 6.170625 22.6796875 7.03125 C23.11539063 7.6809375 23.55109375 8.330625 24 9 C24.33 6.03 24.66 3.06 25 0 C25.66 0 26.32 0 27 0 C27 6.27 27 12.54 27 19 C26.34 19 25.68 19 25 19 C23.6328125 17.42578125 23.6328125 17.42578125 22.125 15.3125 C19.82651742 12.11748887 17.46846547 9.08558184 15 6 C15 10.29 15 14.58 15 19 C13.02 19 11.04 19 9 19 C8.34 19.66 7.68 20.32 7 21 C6.01 21 5.02 21 4 21 C4 20.34 4 19.68 4 19 C2.35 19 0.7 19 -1 19 C-0.67 18.34 -0.34 17.68 0 17 C0.07194869 14.11629667 0.09291708 11.25760336 0.0625 8.375 C0.05798828 7.57320313 0.05347656 6.77140625 0.04882812 5.9453125 C0.03703168 3.96350994 0.01909605 1.98174567 0 0 Z " fill="#CADAD3" transform="translate(171,106)"/>
<path d="M0 0 C2.9375 1.5 2.9375 1.5 5 4 C5.84954057 6.82807584 5.95130966 8.98119893 6 12 C4 14 4 14 1.5390625 14.0546875 C0.09660156 13.96574219 0.09660156 13.96574219 -1.375 13.875 C-5.75949153 13.61817853 -5.75949153 13.61817853 -9.25 16 C-9.8275 16.66 -10.405 17.32 -11 18 C-14.75 18.25 -14.75 18.25 -18 18 C-18 17.01 -18 16.02 -18 15 C-15.69 14.01 -13.38 13.02 -11 12 C-11 11.34 -11 10.68 -11 10 C-11.66 9.34 -12.32 8.68 -13 8 C-13.125 4.875 -13.125 4.875 -13 2 C-8.69213373 -0.15393314 -4.73087132 -0.74547063 0 0 Z " fill="#2F654E" transform="translate(81,50)"/>
<path d="M0 0 C4.35646495 3.1463358 8.31388928 6.47242066 9.38671875 11.98828125 C9.58365234 15.59420323 9.07869057 17.86010566 7.3125 21 C5 23 5 23 2.5625 23.625 C-1.21217097 22.70434854 -2.65639257 21.05970971 -5 18 C-6.49116771 14.07587446 -6.41779976 11.93815037 -4.7109375 8.10546875 C-3.21721493 5.34809937 -1.65966407 2.66027313 0 0 Z " fill="#2E634D" transform="translate(142,31)"/>
<path d="M0 0 C3.410734 1.13691133 3.63146566 1.5160113 5.1875 4.5625 C7.25216325 9.02793448 7.72118041 12.11199945 7 17 C4.59906707 20.22410993 3.05749882 21.69450034 -0.8125 22.8125 C-1.534375 22.874375 -2.25625 22.93625 -3 23 C-5.90470104 20.09529896 -6.94223609 18.34658346 -7.625 14.25 C-7.38336628 8.7344476 -3.82615844 3.82615844 0 0 Z " fill="#2E624D" transform="translate(116,32)"/>
<path d="M0 0 C13.45605701 3.68408551 13.45605701 3.68408551 17 9 C16.68372903 12.54223486 16.12451909 15.62644274 15 19 C10.60023176 19.43997682 8.49287378 19.30688367 4.6875 16.9375 C0.0022327 11.81639388 -0.27502443 6.73809865 0 0 Z " fill="#2F644E" transform="translate(98,11)"/>
<path d="M0 0 C0.37554282 6.13386604 0.08404923 10.60291384 -3 16 C-6.28362395 18.69726253 -9.90312593 18.15757208 -14 18 C-16.10178633 14.58459721 -16.56821226 11.97748585 -16 8 C-12.10117734 2.76095705 -6.50576669 0 0 0 Z " fill="#2F624D" transform="translate(161,11)"/>
<path d="M0 0 C1.5547669 3.10953379 1.28644437 5.56266761 1 9 C-2.07692308 14.53846154 -2.07692308 14.53846154 -5 16 C-6.54023996 16.06950541 -8.08334988 16.08452357 -9.625 16.0625 C-10.85089844 16.04896484 -10.85089844 16.04896484 -12.1015625 16.03515625 C-12.72804687 16.02355469 -13.35453125 16.01195313 -14 16 C-15.60964787 12.78070427 -15.60686242 9.48112288 -15 6 C-10.51320988 0.3005639 -6.99823627 -0.13204219 0 0 Z " fill="#2F644E" transform="translate(165,55)"/>
<path d="M0 0 C4.09892674 0.26878208 6.35719312 1.0803887 9.8125 3.25 C12.27061625 6.93717438 12.12368164 8.89345704 11.8125 13.25 C10.8225 14.735 10.8225 14.735 9.8125 16.25 C5.07721634 16.79339321 2.9170969 16.95506185 -1.125 14.375 C-4.0448207 11.36669988 -4.32560389 9.76936049 -4.3125 5.6875 C-4.31636719 4.47900391 -4.31636719 4.47900391 -4.3203125 3.24609375 C-4.09765511 -0.10031583 -3.44027268 0.26982531 0 0 Z " fill="#2D624D" transform="translate(98.1875,55.75)"/>
<path d="M0 0 C3.09891358 0.92129863 4.72788114 1.67158069 6.8125 4.1875 C8.57289882 8.35686564 8.69278809 12.02821853 7.1875 16.3125 C5.39786274 18.85566873 3.59485931 19.89323038 0.5625 20.4375 C-2 20 -2 20 -4.3125 18 C-6.4226472 14.2486272 -7.08053116 11.14986603 -6 7 C-4.27579539 4.35887733 -2.27997171 2.17140163 0 0 Z " fill="#2A614B" transform="translate(129,11)"/>
<path d="M0 0 C0.37192797 5.08301564 -0.62249194 8.49971689 -3 13 C-4.9341818 15.22072725 -6.10151205 15.92412002 -9.03515625 16.171875 C-11.02421325 16.18590715 -13.01337523 16.09933124 -15 16 C-16.72267139 8.17122605 -16.72267139 8.17122605 -14.1875 4.0625 C-9.94867905 1.3197335 -5.10373267 0 0 0 Z " fill="#316450" transform="translate(174,32)"/>
<path d="M0 0 C4.48856788 2.58762589 7.93715676 5.15863321 10 10 C4.41429441 12.24188184 -0.01453915 13.84168026 -6 12 C-9 9.6875 -9 9.6875 -11 7 C-11.0625 4.875 -11.0625 4.875 -10 3 C-6.88303388 -0.23240931 -4.38333431 -0.75865401 0 0 Z " fill="#326650" transform="translate(184,68)"/>
<path d="M0 0 C2.10797753 0.39693728 4.21136777 0.81829196 6.3125 1.25 C7.48425781 1.48203125 8.65601562 1.7140625 9.86328125 1.953125 C13.29833257 3.09956803 14.32975843 3.84312497 16 7 C16.41865457 11.10281481 16.32579101 12.51131349 14 16 C10.6875 16.5 10.6875 16.5 7 16 C2.89567411 12.89895378 1.14202642 9.983388 0 5 C-0.02664388 3.33354632 -0.03096312 1.66637903 0 0 Z " fill="#2D634C" transform="translate(86,33)"/>
<path d="M0 0 C0.9796875 0.09023438 1.959375 0.18046875 2.96875 0.2734375 C5.5 0.625 5.5 0.625 7.5 1.625 C5.96457536 6.10332188 3.89145948 10.42927026 -0.5 12.625 C-7.80434783 12.85688406 -7.80434783 12.85688406 -11.5 11.625 C-11.85671933 7.79026716 -11.79771416 6.07157125 -9.625 2.8125 C-6.28179333 -0.62903628 -4.64206134 -0.45199018 0 0 Z " fill="#2C644F" transform="translate(184.5,49.375)"/>
<path d="M0 0 C2.875 2 2.875 2 5 4 C4.69025617 6.89094238 3.95829554 8.04691751 2 10.25 C-2.08443965 12.63258979 -5.37366002 12.70612558 -10 12 C-13.5625 10.5 -13.5625 10.5 -16 9 C-15.0919838 7.86800647 -14.17316174 6.74467637 -13.25 5.625 C-12.73953125 4.99851562 -12.2290625 4.37203125 -11.703125 3.7265625 C-8.2055939 0.18090023 -4.91225284 -0.60150035 0 0 Z " fill="#2A6149" transform="translate(82,69)"/>
<path d="M0 0 C4.95 0 9.9 0 15 0 C15.33 1.65 15.66 3.3 16 5 C15.34 4.67 14.68 4.34 14 4 C14 3.34 14 2.68 14 2 C11.69 2 9.38 2 7 2 C7 4.31 7 6.62 7 9 C7.99 9 8.98 9 10 9 C10.33 8.34 10.66 7.68 11 7 C11 8.65 11 10.3 11 12 C9.68 11.67 8.36 11.34 7 11 C7 13.64 7 16.28 7 19 C10.79303725 17.99806563 13.71536341 17.18975773 17 15 C16.67 16.65 16.34 18.3 16 20 C10.72 20 5.44 20 0 20 C0.66 19.67 1.32 19.34 2 19 C1.8595017 16.2079699 1.71284617 13.41650204 1.5625 10.625 C1.50352539 9.43390625 1.50352539 9.43390625 1.44335938 8.21875 C1.31106596 3.97398779 1.31106596 3.97398779 0 0 Z " fill="#416B5B" transform="translate(34,106)"/>
<path d="M0 0 C6 0 6 0 8.1171875 1.96875 C8.69726562 2.8040625 9.27734375 3.639375 9.875 4.5 C10.47054687 5.3353125 11.06609375 6.170625 11.6796875 7.03125 C12.11539063 7.6809375 12.55109375 8.330625 13 9 C13.33 6.03 13.66 3.06 14 0 C14.66 0 15.32 0 16 0 C16 6.27 16 12.54 16 19 C15.34 19 14.68 19 14 19 C12.66796875 17.4609375 12.66796875 17.4609375 11.1875 15.375 C8.58770414 11.78510989 5.87010968 8.37659962 3 5 C2.67 9.29 2.34 13.58 2 18 C1.67 18 1.34 18 1 18 C0.67 12.06 0.34 6.12 0 0 Z " fill="#52776A" transform="translate(182,106)"/>
<path d="M0 0 C2.31 0 4.62 0 7 0 C6.67 5.94 6.34 11.88 6 18 C8.64 18 11.28 18 14 18 C14.33 17.01 14.66 16.02 15 15 C15.33 15 15.66 15 16 15 C16 16.65 16 18.3 16 20 C10.39 20 4.78 20 -1 20 C-0.67 19.34 -0.34 18.68 0 18 C0.08308638 16.62451844 0.10736016 15.24514204 0.09765625 13.8671875 C0.09443359 13.06152344 0.09121094 12.25585938 0.08789062 11.42578125 C0.07951172 10.58402344 0.07113281 9.74226563 0.0625 8.875 C0.05798828 8.02550781 0.05347656 7.17601563 0.04882812 6.30078125 C0.03702874 4.20049091 0.01909306 2.1002367 0 0 Z " fill="#416D5D" transform="translate(75,106)"/>
<path d="M0 0 C2.64 0 5.28 0 8 0 C9.4606285 2.64738916 10 3.89448334 10 7 C10.20625 7.680625 10.4125 8.36125 10.625 9.0625 C10.74875 9.701875 10.8725 10.34125 11 11 C9 13 9 13 6.6171875 13.1953125 C5.71226563 13.17210937 4.80734375 13.14890625 3.875 13.125 C1.461875 13.063125 1.461875 13.063125 -1 13 C-0.67 8.71 -0.34 4.42 0 0 Z " fill="#4F7462" transform="translate(3,131)"/>
<path d="M0 0 C3.96 0 7.92 0 12 0 C12 0.99 12 1.98 12 3 C12.99 4.485 12.99 4.485 14 6 C14.52173913 14.2173913 14.52173913 14.2173913 12 18 C10.35 18 8.7 18 7 18 C7 12.39 7 6.78 7 1 C5.02 1.33 3.04 1.66 1 2 C0.67 1.34 0.34 0.68 0 0 Z " fill="#EBF4F0" transform="translate(13,106)"/>
<path d="M0 0 C0.66 0 1.32 0 2 0 C3.17112946 2.62309099 4.33705964 5.24828142 5.5 7.875 C5.83386719 8.62136719 6.16773438 9.36773437 6.51171875 10.13671875 C6.82753906 10.85214844 7.14335937 11.56757812 7.46875 12.3046875 C7.90864258 13.2944458 7.90864258 13.2944458 8.35742188 14.30419922 C9 16 9 16 9 18 C7.35 18 5.7 18 4 18 C3.505 15.525 3.505 15.525 3 13 C0.69 13.33 -1.62 13.66 -4 14 C-4.33 14.99 -4.66 15.98 -5 17 C-4.67 17.66 -4.34 18.32 -4 19 C-7.96 19 -11.92 19 -16 19 C-16 18.67 -16 18.34 -16 18 C-14.741875 17.95875 -13.48375 17.9175 -12.1875 17.875 C-9.99010474 17.69235511 -9.99010474 17.69235511 -8 17 C-5.91367303 14.08158143 -5.91367303 14.08158143 -5 11 C-2.03 11.495 -2.03 11.495 1 12 C0.46375 11.13375 -0.0725 10.2675 -0.625 9.375 C-2 6 -2 6 -1.1875 2.625 C-0.795625 1.75875 -0.40375 0.8925 0 0 Z " fill="#285D48" transform="translate(269,106)"/>
<path d="M0 0 C4.62 0 9.24 0 14 0 C13.67 1.32 13.34 2.64 13 4 C13 3.34 13 2.68 13 2 C10.36 1.67 7.72 1.34 5 1 C5.33 6.28 5.66 11.56 6 17 C12.31483984 16.47434165 12.31483984 16.47434165 15 15 C15 16.32 15 17.64 15 19 C10.05 19 5.1 19 0 19 C0 12.73 0 6.46 0 0 Z " fill="#265F4C" transform="translate(325,106)"/>
<path d="M0 0 C5 0 5 0 7.23828125 2.1875 C7.92277344 3.115625 8.60726563 4.04375 9.3125 5 C10.00988281 5.928125 10.70726562 6.85625 11.42578125 7.8125 C11.94527344 8.534375 12.46476562 9.25625 13 10 C13.33 6.7 13.66 3.4 14 0 C14.33 0 14.66 0 15 0 C15 5.94 15 11.88 15 18 C10.77493598 13.77493598 6.89895915 9.51056058 3 5 C2.67 9.29 2.34 13.58 2 18 C1.34 17.67 0.68 17.34 0 17 C0 11.39 0 5.78 0 0 Z " fill="#2F5D4E" transform="translate(283,106)"/>
<path d="M0 0 C1.21236328 0.04060547 1.21236328 0.04060547 2.44921875 0.08203125 C3.06410156 0.11683594 3.67898437 0.15164062 4.3125 0.1875 C4.3125 2.1675 4.3125 4.1475 4.3125 6.1875 C3.549375 5.5275 2.78625 4.8675 2 4.1875 C-0.53027939 1.88899462 -0.53027939 1.88899462 -3.6875 2.1875 C-4.0175 3.5075 -4.3475 4.8275 -4.6875 6.1875 C-3.57375 6.620625 -3.57375 6.620625 -2.4375 7.0625 C-1.53 7.43375 -0.6225 7.805 0.3125 8.1875 C1.055 8.414375 1.7975 8.64125 2.5625 8.875 C4.3125 10.1875 4.3125 10.1875 5.0625 13.8125 C5.18625 15.483125 5.18625 15.483125 5.3125 17.1875 C3.3325 18.1775 3.3325 18.1775 1.3125 19.1875 C1.3125 18.465625 1.3125 17.74375 1.3125 17 C0.10979349 13.61738793 -0.69553393 13.40921614 -3.75 11.75 C-5.9296875 10.51171875 -5.9296875 10.51171875 -7.6875 9.1875 C-8.375 6.0625 -8.375 6.0625 -7.6875 3.1875 C-5.3865182 0.11712742 -3.75209434 -0.16313454 0 0 Z " fill="#32604D" transform="translate(210.6875,104.8125)"/>
<path d="M0 0 C1.98 0 3.96 0 6 0 C6 5.94 6 11.88 6 18 C9.465 17.505 9.465 17.505 13 17 C12.67 17.66 12.34 18.32 12 19 C4.71375465 19.48574969 4.71375465 19.48574969 1.75 17.46875 C-0.6278793 14.1142417 -0.44389656 11.19504925 -0.25 7.25 C-0.23195312 6.55261719 -0.21390625 5.85523437 -0.1953125 5.13671875 C-0.14838554 3.42388461 -0.07664605 1.71176176 0 0 Z " fill="#356653" transform="translate(220,106)"/>
<path d="M0 0 C0 0.33 0 0.66 0 1 C-1.423125 1.37125 -1.423125 1.37125 -2.875 1.75 C-5.98250516 2.69986634 -5.98250516 2.69986634 -7.375 4.6875 C-8.26268797 7.97194549 -8.36285958 10.61331061 -8 14 C-5.89430205 16.68658014 -3.84898175 18.10067884 -1 20 C-7.9446161 19.76458928 -7.9446161 19.76458928 -10.64453125 17.80859375 C-12.8661958 15.3564395 -13.95325228 13.22438903 -14.625 10 C-13.75004681 5.80022471 -11.99012644 4.06131993 -9 1 C-6.04335481 -0.4783226 -3.25770263 -0.06032783 0 0 Z " fill="#30614E" transform="translate(316,105)"/>
<path d="M0 0 C1.65 0 3.3 0 5 0 C5 5.94 5 11.88 5 18 C3.35 18 1.7 18 0 18 C0 12.06 0 6.12 0 0 Z " fill="#2E6450" transform="translate(15,107)"/>
<path d="M0 0 C0.66 0 1.32 0 2 0 C3.17112946 2.62309099 4.33705964 5.24828142 5.5 7.875 C5.83386719 8.62136719 6.16773437 9.36773437 6.51171875 10.13671875 C6.98544922 11.20986328 6.98544922 11.20986328 7.46875 12.3046875 C7.76201172 12.96452637 8.05527344 13.62436523 8.35742188 14.30419922 C9 16 9 16 9 18 C7.35 18 5.7 18 4 18 C3.67 16.35 3.34 14.7 3 13 C0.36 13 -2.28 13 -5 13 C-4.67 12.34 -4.34 11.68 -4 11 C-1.03 11.495 -1.03 11.495 2 12 C1.484375 10.948125 0.96875 9.89625 0.4375 8.8125 C-0.99688183 5.51476233 -1.16452107 3.4935632 0 0 Z " fill="#2B5C4A" transform="translate(62,107)"/>
<path d="M0 0 C4.875 0.875 4.875 0.875 6 2 C6.04080783 3.99958364 6.04254356 6.00045254 6 8 C5.01 8.33 4.02 8.66 3 9 C3.639375 10.11375 4.27875 11.2275 4.9375 12.375 C6.00526106 14.23497087 7.04071468 16.08142937 8 18 C5.75 18.3125 5.75 18.3125 3 18 C0.625 15.8125 0.625 15.8125 -1 13 C-0.8125 10.5 -0.8125 10.5 0 8 C0.96691692 3.9942451 0.96691692 3.9942451 0 0 Z " fill="#2A5D49" transform="translate(250,106)"/>
<path d="M0 0 C6.72995781 3.42616034 6.72995781 3.42616034 8 6.125 C8 8 8 8 7 10 C3.7 10 0.4 10 -3 10 C-3.36923077 3.47692308 -3.36923077 3.47692308 -1.5 1.0625 C-1.005 0.711875 -0.51 0.36125 0 0 Z " fill="#CFDDD7" transform="translate(205,115)"/>
<path d="M0 0 C2.625 0.25 2.625 0.25 4.4375 1.4375 C5.99178206 3.80982525 5.85037188 5.47041345 5.625 8.25 C2.875 9.4375 2.875 9.4375 -0.375 10.25 C-2.75 8.875 -2.75 8.875 -4.375 7.25 C-3.34769625 0.35238908 -3.34769625 0.35238908 0 0 Z " fill="#9EB2AB" transform="translate(55.375,134.75)"/>
<path d="M0 0 C3.41529114 0.2846076 4.78498424 0.79660671 7.3125 3.1875 C9.32835318 6.5472553 9.64220846 8.14674921 9 12 C7.03449378 15.27584369 5.94570593 16.72058689 2.25 17.8125 C1.5075 17.874375 0.765 17.93625 0 18 C0.66 17.67 1.32 17.34 2 17 C3.49987339 13.25031652 3.47171244 8.97024639 3 5 C1.6490712 2.0745356 1.6490712 2.0745356 0 0 Z " fill="#326451" transform="translate(23,107)"/>
<path d="M0 0 C1.98 0 3.96 0 6 0 C5.67 5.94 5.34 11.88 5 18 C3.68 18 2.36 18 1 18 C0.67 12.06 0.34 6.12 0 0 Z " fill="#1D5944" transform="translate(171,106)"/>
<path d="M0 0 C1.32 0 2.64 0 4 0 C4.33 5.94 4.66 11.88 5 18 C3.02 18 1.04 18 -1 18 C-0.505 9.09 -0.505 9.09 0 0 Z " fill="#1F5945" transform="translate(4,107)"/>
<path d="M0 0 C1.21236328 0.04060547 1.21236328 0.04060547 2.44921875 0.08203125 C3.06410156 0.11683594 3.67898437 0.15164062 4.3125 0.1875 C2.15632567 6.32430387 2.15632567 6.32430387 -0.6875 8.1875 C-4.375 8.375 -4.375 8.375 -7.6875 8.1875 C-8.05266854 3.68375468 -8.05266854 3.68375468 -6.46875 1.53125 C-4.16764554 -0.20467091 -2.84767456 -0.12381194 0 0 Z " fill="#2F624F" transform="translate(187.6875,33.8125)"/>
<path d="M0 0 C0.4125 0.433125 0.825 0.86625 1.25 1.3125 C4.45795736 4.40588746 6.65119195 6.42609787 11.25 6.375 C12.4875 6.25125 13.725 6.1275 15 6 C15.99 6 16.98 6 18 6 C16 8 16 8 13.5390625 8.0546875 C12.57742187 7.99539062 11.61578125 7.93609375 10.625 7.875 C6.24050847 7.61817853 6.24050847 7.61817853 2.75 10 C2.1725 10.66 1.595 11.32 1 12 C-2.75 12.25 -2.75 12.25 -6 12 C-6 11.01 -6 10.02 -6 9 C-3.69 8.01 -1.38 7.02 1 6 C1 5.34 1 4.68 1 4 C0.34 3.34 -0.32 2.68 -1 2 C-0.67 1.34 -0.34 0.68 0 0 Z " fill="#E3F3EC" transform="translate(69,56)"/>
<path d="M0 0 C1.43655854 -0.08131463 2.8744483 -0.13933559 4.3125 -0.1875 C5.51326172 -0.23970703 5.51326172 -0.23970703 6.73828125 -0.29296875 C9 0 9 0 10.8125 1.34375 C12 3 12 3 11.6875 5.6875 C11.460625 6.450625 11.23375 7.21375 11 8 C8.3125 8.375 8.3125 8.375 5 8 C2.83295905 6.18573316 1.61874997 4.38051466 0 2 C0 1.34 0 0.68 0 0 Z " fill="#386454" transform="translate(68,35)"/>
<path d="M0 0 C0.33 0 0.66 0 1 0 C1 4.62 1 9.24 1 14 C-0.98 14 -2.96 14 -5 14 C-5.66 13.34 -6.32 12.68 -7 12 C-6.43181818 6.43181818 -6.43181818 6.43181818 -5 5 C-3.33382885 4.95936168 -1.66611905 4.957279 0 5 C0 3.35 0 1.7 0 0 Z " fill="#507365" transform="translate(321,130)"/>
<path d="M0 0 C2.31 0 4.62 0 7 0 C7.66 1.32 8.32 2.64 9 4 C7.68 4 6.36 4 5 4 C5 6.64 5 9.28 5 12 C3.68 12 2.36 12 1 12 C1 13.32 1 14.64 1 16 C2.65 16 4.3 16 6 16 C6 16.33 6 16.66 6 17 C4.02 17 2.04 17 0 17 C0 14.36 0 11.72 0 9 C0.99 9 1.98 9 3 9 C3 8.34 3 7.68 3 7 C2.01 7 1.02 7 0 7 C0 4.69 0 2.38 0 0 Z " fill="#EFF9F7" transform="translate(41,108)"/>
<path d="M0 0 C1.65 0 3.3 0 5 0 C4.67 6.6 4.34 13.2 4 20 C3.34 19.67 2.68 19.34 2 19 C2.103125 17.948125 2.20625 16.89625 2.3125 15.8125 C1.92264471 11.05626541 0.53786424 10.03245507 -3 7 C-3.66 6.01 -4.32 5.02 -5 4 C-4.360625 3.71125 -3.72125 3.4225 -3.0625 3.125 C-0.84793921 2.17176549 -0.84793921 2.17176549 0 0 Z " fill="#DAEAE6" transform="translate(295,105)"/>
<path d="M0 0 C-0.86459426 3.24222849 -1.51721945 5.50112677 -3.875 7.9375 C-6 9 -6 9 -8.25 8.6875 C-8.8275 8.460625 -9.405 8.23375 -10 8 C-10.125 5.625 -10.125 5.625 -10 3 C-6.84916414 -0.15083586 -4.41812253 0 0 0 Z " fill="#3B6958" transform="translate(179,18)"/>
<path d="M0 0 C2.5625 0.1875 2.5625 0.1875 4.5625 2.1875 C4.00694444 6.74305556 4.00694444 6.74305556 2.5625 8.1875 C0.125 8.375 0.125 8.375 -2.4375 8.1875 C-3.0975 7.5275 -3.7575 6.8675 -4.4375 6.1875 C-3.71780303 0.28598485 -3.71780303 0.28598485 0 0 Z " fill="#2C5C4B" transform="translate(130.4375,82.8125)"/>
<path d="M0 0 C8.03816794 -0.61832061 8.03816794 -0.61832061 11.625 1.6875 C13 4 13 4 12.75 6.75 C12.5025 7.4925 12.255 8.235 12 9 C10.35 9.33 8.7 9.66 7 10 C7 7.03 7 4.06 7 1 C5.02 1.33 3.04 1.66 1 2 C0.67 1.34 0.34 0.68 0 0 Z " fill="#DDEBE6" transform="translate(239,105)"/>
<path d="M0 0 C7.75 0.75 7.75 0.75 10 3 C10.125 5.625 10.125 5.625 10 8 C6.6875 7.9375 6.6875 7.9375 3 7 C1.40959161 4.71858658 0.83493456 2.70125887 0 0 Z " fill="#315E4F" transform="translate(81,19)"/>
<path d="M0 0 C0 0.33 0 0.66 0 1 C-1.15628906 1.03867188 -1.15628906 1.03867188 -2.3359375 1.078125 C-3.33882812 1.13484375 -4.34171875 1.1915625 -5.375 1.25 C-6.37273438 1.29640625 -7.37046875 1.3428125 -8.3984375 1.390625 C-9.68621094 1.69226563 -9.68621094 1.69226563 -11 2 C-11.69937532 3.31647119 -12.36729133 4.65022151 -13 6 C-15.1640625 6.609375 -15.1640625 6.609375 -17.625 6.75 C-18.44226563 6.80671875 -19.25953125 6.8634375 -20.1015625 6.921875 C-20.72804688 6.94765625 -21.35453125 6.9734375 -22 7 C-22 6.34 -22 5.68 -22 5 C-21.195625 4.87625 -20.39125 4.7525 -19.5625 4.625 C-18.716875 4.41875 -17.87125 4.2125 -17 4 C-16.67 3.34 -16.34 2.68 -16 2 C-17.65 1.67 -19.3 1.34 -21 1 C-21 0.67 -21 0.34 -21 0 C-20.1646875 0.01740234 -20.1646875 0.01740234 -19.3125 0.03515625 C-15.37494114 0.08171522 -11.58790721 0.01044117 -7.6875 -0.5625 C-4.59465632 -0.92944756 -2.85176715 -1.06941268 0 0 Z " fill="#CCDED9" transform="translate(24,125)"/>
<path d="M0 0 C5.75 1.75 5.75 1.75 8 4 C7.625 6.625 7.625 6.625 7 9 C4.625 8.6875 4.625 8.6875 2 8 C-0.1519437 4.77208445 -0.20086443 3.71599191 0 0 Z " fill="#3A6456" transform="translate(113,1)"/>
<path d="M0 0 C-0.75 6.75 -0.75 6.75 -3 9 C-5.625 8.625 -5.625 8.625 -8 8 C-7.25 3.25 -7.25 3.25 -5 1 C-1.7 0 -1.7 0 0 0 Z " fill="#305E4C" transform="translate(147,0)"/>
<path d="M0 0 C0.66 0 1.32 0 2 0 C2 1.98 2 3.96 2 6 C2.99 5.67 3.98 5.34 5 5 C5 3.35 5 1.7 5 0 C5.99 0.33 6.98 0.66 8 1 C8.042721 2.66611905 8.04063832 4.33382885 8 6 C7 7 7 7 4.4375 7.0625 C3.2309375 7.0315625 3.2309375 7.0315625 2 7 C2.33 8.98 2.66 10.96 3 13 C1.68 12.67 0.36 12.34 -1 12 C-0.67 8.04 -0.34 4.08 0 0 Z " fill="#3F6659" transform="translate(174,131)"/>
<path d="M0 0 C0.66 0 1.32 0 2 0 C2 2.64 2 5.28 2 8 C2.598125 8.2475 3.19625 8.495 3.8125 8.75 C6.28647521 10.16370012 7.43370255 11.65055383 9 14 C7.68 14 6.36 14 5 14 C4.67 12.68 4.34 11.36 4 10 C3.34 10 2.68 10 2 10 C2.33 11.32 2.66 12.64 3 14 C2.01 14 1.02 14 0 14 C0 9.38 0 4.76 0 0 Z " fill="#497363" transform="translate(76,130)"/>
<path d="M0 0 C-0.4495045 1.31554985 -0.90989716 2.62738358 -1.375 3.9375 C-1.63023437 4.66839844 -1.88546875 5.39929688 -2.1484375 6.15234375 C-3 8 -3 8 -5 9 C-6.32 6.03 -7.64 3.06 -9 0 C-5.52176885 -1.15941038 -3.54104422 -0.70820884 0 0 Z " fill="#BFCFCB" transform="translate(207,135)"/>
<path d="M0 0 C2.64 0 5.28 0 8 0 C8.66 1.32 9.32 2.64 10 4 C9.01 4.495 9.01 4.495 8 5 C7.67 4.01 7.34 3.02 7 2 C5.35 1.67 3.7 1.34 2 1 C2.185625 1.86625 2.37125 2.7325 2.5625 3.625 C3.00667933 7.05152628 2.71954492 9.64212371 2 13 C1.01 12.67 0.02 12.34 -1 12 C-0.67 8.04 -0.34 4.08 0 0 Z " fill="#3A6355" transform="translate(3,131)"/>
<path d="M0 0 C1.65 0 3.3 0 5 0 C5.66 0.99 6.32 1.98 7 3 C6.01 3.99 5.02 4.98 4 6 C3.67 5.67 3.34 5.34 3 5 C2.67 9.29 2.34 13.58 2 18 C1.34 17.67 0.68 17.34 0 17 C0 11.39 0 5.78 0 0 Z " fill="#4C6E63" transform="translate(283,106)"/>
<path d="M0 0 C1.98 0 3.96 0 6 0 C6 1.98 6 3.96 6 6 C5.01 5.67 4.02 5.34 3 5 C2.67 9.29 2.34 13.58 2 18 C1.67 18 1.34 18 1 18 C0.67 12.06 0.34 6.12 0 0 Z " fill="#3E6554" transform="translate(182,106)"/>
<path d="M0 0 C3.125 0.1875 3.125 0.1875 6.125 2.1875 C6.125 2.8475 6.125 3.5075 6.125 4.1875 C3.485 4.5175 0.845 4.8475 -1.875 5.1875 C-2.535 3.8675 -3.195 2.5475 -3.875 1.1875 C-2.875 0.1875 -2.875 0.1875 0 0 Z " fill="#406A59" transform="translate(191.875,62.8125)"/>
<path d="M0 0 C0.66 0 1.32 0 2 0 C2.99 2.64 3.98 5.28 5 8 C3.35 8.33 1.7 8.66 0 9 C-1.125 6.75 -1.125 6.75 -2 4 C-1.125 1.6875 -1.125 1.6875 0 0 Z " fill="#366353" transform="translate(269,106)"/>
<path d="M0 0 C0.66 0.33 1.32 0.66 2 1 C2 1.99 2 2.98 2 4 C2.99 4 3.98 4 5 4 C5.33 4.99 5.66 5.98 6 7 C5.21625 7.28875 4.4325 7.5775 3.625 7.875 C0.90328368 8.84912254 0.90328368 8.84912254 -1 11 C-2.60080151 6.99799622 -1.29279692 3.95443764 0 0 Z " fill="#EAF6F1" transform="translate(114,25)"/>
<path d="M0 0 C1.5027237 0.97498145 3.00211963 1.95509389 4.5 2.9375 C5.75296875 3.75541016 5.75296875 3.75541016 7.03125 4.58984375 C8.00578125 5.28787109 8.00578125 5.28787109 9 6 C9 6.33 9 6.66 9 7 C5.7 7 2.4 7 -1 7 C-1 6.01 -1 5.02 -1 4 C-0.34 4.33 0.32 4.66 1 5 C0.67 3.35 0.34 1.7 0 0 Z " fill="#2E5948" transform="translate(145,118)"/>
<path d="M0 0 C0.66 0 1.32 0 2 0 C2.99 2.64 3.98 5.28 5 8 C4.01 8.99 3.02 9.98 2 11 C-1.07692308 5.70769231 -1.07692308 5.70769231 -0.6875 2.125 C-0.460625 1.42375 -0.23375 0.7225 0 0 Z " fill="#326250" transform="translate(62,107)"/>
<path d="M0 0 C0.66 0 1.32 0 2 0 C3.625 2.5 3.625 2.5 5 5 C4.0625 7 4.0625 7 2 9 C-1.02534949 9.36475845 -3.96663814 9.22893297 -7 9 C-7 8.67 -7 8.34 -7 8 C-4.69 8 -2.38 8 0 8 C0 5.36 0 2.72 0 0 Z " fill="#D4E1DC" transform="translate(246,116)"/>
<path d="M0 0 C0 0.99 0 1.98 0 3 C-1 4 -1 4 -4.5625 4.0625 C-5.696875 4.041875 -6.83125 4.02125 -8 4 C-8 3.01 -8 2.02 -8 1 C-4.93251126 -0.86240388 -3.40254489 -1.2151946 0 0 Z " fill="#376354" transform="translate(71,64)"/>
<path d="M0 0 C1.9375 0.3125 1.9375 0.3125 4 1 C4.33 1.99 4.66 2.98 5 4 C3.02 4 1.04 4 -1 4 C-1 4.99 -1 5.98 -1 7 C0.65 7 2.3 7 4 7 C4 7.66 4 8.32 4 9 C1.625 9.125 1.625 9.125 -1 9 C-1.66 8.34 -2.32 7.68 -3 7 C-2.625 3.875 -2.625 3.875 -2 1 C-1.67 1.66 -1.34 2.32 -1 3 C-0.01 3 0.98 3 2 3 C2 2.34 2 1.68 2 1 C1.34 0.67 0.68 0.34 0 0 Z " fill="#617C73" transform="translate(103,135)"/>
<path d="M0 0 C0.33 0 0.66 0 1 0 C1 1.65 1 3.3 1 5 C-4.61 5 -10.22 5 -16 5 C-14 3 -14 3 -10.9609375 2.8046875 C-9.18589844 2.83949219 -9.18589844 2.83949219 -7.375 2.875 C-5.59222656 2.90207031 -5.59222656 2.90207031 -3.7734375 2.9296875 C-2.85820313 2.95289062 -1.94296875 2.97609375 -1 3 C-0.67 2.01 -0.34 1.02 0 0 Z " fill="#8DA69C" transform="translate(90,121)"/>
<path d="M0 0 C0.99 0.66 1.98 1.32 3 2 C3 2.66 3 3.32 3 4 C1.72125 4.144375 0.4425 4.28875 -0.875 4.4375 C-3.25692894 4.70642746 -4.84452691 4.92226346 -7 6 C-7 5.34 -7 4.68 -7 4 C-8.98 4 -10.96 4 -13 4 C-13 3.67 -13 3.34 -13 3 C-11.58800422 2.60777895 -10.17007236 2.23688941 -8.75 1.875 C-7.96109375 1.66617188 -7.1721875 1.45734375 -6.359375 1.2421875 C-3.5796929 0.95685589 -2.34112451 1.55022106 0 3 C0 2.01 0 1.02 0 0 Z " fill="#D2D9D7" transform="translate(285,121)"/>
<path d="M0 0 C0.33 1.98 0.66 3.96 1 6 C-0.32 6.33 -1.64 6.66 -3 7 C-3 5.02 -3 3.04 -3 1 C-3.99 1.33 -4.98 1.66 -6 2 C-6.33 1.34 -6.66 0.68 -7 0 C-3.98968256 -0.93423645 -3.13349732 -1.04449911 0 0 Z " fill="#E2EFEC" transform="translate(179,130)"/>
<path d="M0 0 C2.31 0 4.62 0 7 0 C7 0.66 7 1.32 7 2 C5.02 2.33 3.04 2.66 1 3 C0.67 3.99 0.34 4.98 0 6 C0.33 6.66 0.66 7.32 1 8 C-2.96 8 -6.92 8 -11 8 C-11 7.67 -11 7.34 -11 7 C-9.741875 6.95875 -8.48375 6.9175 -7.1875 6.875 C-4.99010474 6.69235511 -4.99010474 6.69235511 -3 6 C-0.91367303 3.08158143 -0.91367303 3.08158143 0 0 Z " fill="#758B82" transform="translate(264,117)"/>
<path d="M0 0 C0.66 0 1.32 0 2 0 C2 2.64 2 5.28 2 8 C0.68 8 -0.64 8 -2 8 C-2 9.32 -2 10.64 -2 12 C-0.35 12 1.3 12 3 12 C3 12.33 3 12.66 3 13 C1.02 13 -0.96 13 -3 13 C-3 10.36 -3 7.72 -3 5 C-2.01 5 -1.02 5 0 5 C0 3.35 0 1.7 0 0 Z " fill="#D4EBE4" transform="translate(44,112)"/>
<path d="M0 0 C0.66 0.33 1.32 0.66 2 1 C2.73075648 3.3140622 3.40138258 5.64828869 4 8 C2.02 8 0.04 8 -2 8 C-1.125 2.25 -1.125 2.25 0 0 Z " fill="#B7D2C8" transform="translate(60,111)"/>
<path d="M0 0 C0 1.98 0 3.96 0 6 C-0.391875 5.505 -0.78375 5.01 -1.1875 4.5 C-2.92140875 2.80565822 -2.92140875 2.80565822 -5.375 2.625 C-8.5014692 3.07163846 -10.41530982 4.22764102 -13 6 C-12.375 4.125 -12.375 4.125 -11 2 C-7.24736275 0.33216122 -4.08773982 -0.24045528 0 0 Z " fill="#AABDB5" transform="translate(321,105)"/>
<path d="M0 0 C4.95 0 9.9 0 15 0 C15.33 1.65 15.66 3.3 16 5 C15.34 4.67 14.68 4.34 14 4 C14 3.34 14 2.68 14 2 C9.71 2 5.42 2 1 2 C0.67 1.34 0.34 0.68 0 0 Z " fill="#88A39A" transform="translate(34,106)"/>
<path d="M0 0 C2.40072955 2.88087546 4.47291037 5.56404834 6 9 C3.625 9.125 3.625 9.125 1 9 C0.34 8.34 -0.32 7.68 -1 7 C-0.625 3.375 -0.625 3.375 0 0 Z " fill="#376251" transform="translate(252,115)"/>
<path d="M0 0 C0.33 0 0.66 0 1 0 C1 2.64 1 5.28 1 8 C2.32 7.01 3.64 6.02 5 5 C5 7.64 5 10.28 5 13 C3.68 11.68 2.36 10.36 1 9 C1 11.31 1 13.62 1 16 C0.67 16 0.34 16 0 16 C0 10.72 0 5.44 0 0 Z " fill="#9BB0A9" transform="translate(330,107)"/>
<path d="M0 0 C1.65 0 3.3 0 5 0 C4.1875 3.4375 4.1875 3.4375 3 7 C2.01 7.33 1.02 7.66 0 8 C0 5.36 0 2.72 0 0 Z " fill="#ECF6F4" transform="translate(331,107)"/>
<path d="M0 0 C1.98 0.66 3.96 1.32 6 2 C6 2.66 6 3.32 6 4 C4.68 4.33 3.36 4.66 2 5 C2 6.65 2 8.3 2 10 C-0.4294516 6.3558226 -0.16179575 4.28758728 0 0 Z " fill="#3D6C5A" transform="translate(98,11)"/>
<path d="M0 0 C0.99 0 1.98 0 3 0 C3.33 2.97 3.66 5.94 4 9 C2.68 9 1.36 9 0 9 C0 6.03 0 3.06 0 0 Z " fill="#6C8D80" transform="translate(30,135)"/>
<path d="M0 0 C1.65 0 3.3 0 5 0 C5.5625 1.9375 5.5625 1.9375 6 4 C5 5 5 5 2.4375 5.0625 C1.2309375 5.0315625 1.2309375 5.0315625 0 5 C0 3.35 0 1.7 0 0 Z " fill="#E2F7EE" transform="translate(5,138)"/>
<path d="M0 0 C1.65 0 3.3 0 5 0 C5.5625 1.9375 5.5625 1.9375 6 4 C5 5 5 5 2.4375 5.0625 C1.2309375 5.0315625 1.2309375 5.0315625 0 5 C0 3.35 0 1.7 0 0 Z " fill="#D8EFE6" transform="translate(5,132)"/>
<path d="M0 0 C1.98 0 3.96 0 6 0 C6 0.66 6 1.32 6 2 C4.68 2 3.36 2 2 2 C2.33 4.31 2.66 6.62 3 9 C2.01 9 1.02 9 0 9 C0 6.03 0 3.06 0 0 Z " fill="#5C7D71" transform="translate(124,135)"/>
<path d="M0 0 C0.66 0.99 1.32 1.98 2 3 C0.68 3.33 -0.64 3.66 -2 4 C-2 4.66 -2 5.32 -2 6 C-5.96 5.67 -9.92 5.34 -14 5 C-13.67 4.34 -13.34 3.68 -13 3 C-12.39671875 3.03480469 -11.7934375 3.06960937 -11.171875 3.10546875 C-6.07474512 3.3514449 -6.07474512 3.3514449 -1.4375 1.5 C-0.963125 1.005 -0.48875 0.51 0 0 Z " fill="#D5EAE1" transform="translate(85,77)"/>
<path d="M0 0 C0.99 0 1.98 0 3 0 C3 2.31 3 4.62 3 7 C1.68 6.67 0.36 6.34 -1 6 C-1.042721 4.33388095 -1.04063832 2.66617115 -1 1 C-0.67 0.67 -0.34 0.34 0 0 Z " fill="#E8F4EF" transform="translate(317,136)"/>
<path d="M0 0 C0 0.33 0 0.66 0 1 C-0.94875 1.268125 -1.8975 1.53625 -2.875 1.8125 C-6.25267273 2.74986588 -6.25267273 2.74986588 -8 6 C-9.32 6 -10.64 6 -12 6 C-9.40401988 0.00927665 -6.20086134 -0.23399477 0 0 Z " fill="#305C49" transform="translate(316,105)"/>
<path d="M0 0 C0.99 0.33 1.98 0.66 3 1 C3 1.66 3 2.32 3 3 C4.98 3.66 6.96 4.32 9 5 C9 5.66 9 6.32 9 7 C6.75 7.3125 6.75 7.3125 4 7 C0 2.89189189 0 2.89189189 0 0 Z " fill="#356450" transform="translate(123,24)"/>
<path d="M0 0 C2.475 0.495 2.475 0.495 5 1 C5 2.65 5 4.3 5 6 C3.02 6.99 3.02 6.99 1 8 C0.67 5.36 0.34 2.72 0 0 Z " fill="#3E6C58" transform="translate(211,116)"/>
<path d="M0 0 C2.97 0 5.94 0 9 0 C9 1.98 9 3.96 9 6 C8.236875 5.34 7.47375 4.68 6.6875 4 C4.15722061 1.70149462 4.15722061 1.70149462 1 2 C0.01 3.485 0.01 3.485 -1 5 C-0.67 3.35 -0.34 1.7 0 0 Z " fill="#7B958B" transform="translate(206,105)"/>
<path d="M0 0 C0.33 0.66 0.66 1.32 1 2 C1.66 2.33 2.32 2.66 3 3 C2.34 3 1.68 3 1 3 C1.33 5.64 1.66 8.28 2 11 C1.01 10.67 0.02 10.34 -1 10 C-1.9765625 3.9453125 -1.9765625 3.9453125 -2 2 C-1.34 1.34 -0.68 0.68 0 0 Z " fill="#3D6054" transform="translate(296,133)"/>
<path d="M0 0 C0.99 0.33 1.98 0.66 3 1 C3.33 2.65 3.66 4.3 4 6 C2.35 6 0.7 6 -1 6 C-0.67 4.02 -0.34 2.04 0 0 Z " fill="#D5DDDA" transform="translate(266,112)"/>
<path d="M0 0 C1.32 0.66 2.64 1.32 4 2 C3.67 3.65 3.34 5.3 3 7 C1.68 6.67 0.36 6.34 -1 6 C-1 5.34 -1 4.68 -1 4 C-0.34 4 0.32 4 1 4 C0.67 2.68 0.34 1.36 0 0 Z " fill="#275845" transform="translate(76,36)"/>
<path d="M0 0 C0.33 0.66 0.66 1.32 1 2 C0.67 2.66 0.34 3.32 0 4 C-1.4800841 3.88637738 -2.95910074 3.75877092 -4.4375 3.625 C-5.26121094 3.55539063 -6.08492187 3.48578125 -6.93359375 3.4140625 C-7.61550781 3.27742188 -8.29742187 3.14078125 -9 3 C-9.33 2.34 -9.66 1.68 -10 1 C-6.7 0.67 -3.4 0.34 0 0 Z " fill="#D5E8E0" transform="translate(154,124)"/>
<path d="M0 0 C0.33 1.32 0.66 2.64 1 4 C-3.95 4 -8.9 4 -14 4 C-14 3.67 -14 3.34 -14 3 C-12.86111328 2.92652344 -12.86111328 2.92652344 -11.69921875 2.8515625 C-10.20841797 2.73941406 -10.20841797 2.73941406 -8.6875 2.625 C-7.70136719 2.55539063 -6.71523438 2.48578125 -5.69921875 2.4140625 C-2.78471567 2.16134528 -2.78471567 2.16134528 0 0 Z " fill="#547266" transform="translate(339,121)"/>
<path d="M0 0 C2 3.75 2 3.75 2 6 C0.35 6 -1.3 6 -3 6 C-3.33 4.68 -3.66 3.36 -4 2 C-2.68 1.34 -1.36 0.68 0 0 Z " fill="#A4BEB6" transform="translate(56,120)"/>
<path d="M0 0 C2.64 0 5.28 0 8 0 C8.66 2.31 9.32 4.62 10 7 C8 7 8 7 5.5625 4.625 C4.716875 3.75875 3.87125 2.8925 3 2 C2.01 1.34 1.02 0.68 0 0 Z " fill="#DAEFE6" transform="translate(129,54)"/>
<path d="M0 0 C1.98 0 3.96 0 6 0 C5.67 1.32 5.34 2.64 5 4 C3.35 3.67 1.7 3.34 0 3 C0 2.01 0 1.02 0 0 Z " fill="#ECF7F4" transform="translate(102,139)"/>
<path d="M0 0 C1.32 0 2.64 0 4 0 C3.125 4.75 3.125 4.75 2 7 C1.34 6.67 0.68 6.34 0 6 C0 4.02 0 2.04 0 0 Z " fill="#EEFBF8" transform="translate(57,120)"/>
<path d="M0 0 C1.65 0 3.3 0 5 0 C5 0.66 5 1.32 5 2 C8.465 1.505 8.465 1.505 12 1 C11.67 1.66 11.34 2.32 11 3 C3.49230769 3.36923077 3.49230769 3.36923077 1 1.5 C0.67 1.005 0.34 0.51 0 0 Z " fill="#44675A" transform="translate(221,122)"/>
<path d="M0 0 C2.46278801 2.46278801 2.99771255 4.70676982 4 8 C2.68 7.67 1.36 7.34 0 7 C-0.38133299 5.0085944 -0.71325582 3.00720923 -1 1 C-0.67 0.67 -0.34 0.34 0 0 Z " fill="#3B6A57" transform="translate(274,115)"/>
<path d="M0 0 C0 0.99 0 1.98 0 3 C0.99 3.33 1.98 3.66 3 4 C1.68 4.33 0.36 4.66 -1 5 C-1 4.34 -1 3.68 -1 3 C-3.31 3 -5.62 3 -8 3 C-8 2.67 -8 2.34 -8 2 C-2.25 0 -2.25 0 0 0 Z " fill="#D3E4DF" transform="translate(73,66)"/>
<path d="M0 0 C2.97 1.98 2.97 1.98 6 4 C5.67 5.32 5.34 6.64 5 8 C2.5 5.6875 2.5 5.6875 0 3 C0 2.01 0 1.02 0 0 Z " fill="#385D51" transform="translate(145,136)"/>
<path d="M0 0 C0 0.99 0 1.98 0 3 C-0.99 3.33 -1.98 3.66 -3 4 C-3.99 2.68 -4.98 1.36 -6 0 C-3.50907189 -1.24546405 -2.58919267 -0.7767578 0 0 Z " fill="#C1CECA" transform="translate(151,135)"/>
<path d="M0 0 C0.99 0 1.98 0 3 0 C3 1.65 3 3.3 3 5 C2.01 5.33 1.02 5.66 0 6 C-0.38218767 4.34385343 -0.71395102 2.67542976 -1 1 C-0.67 0.67 -0.34 0.34 0 0 Z " fill="#ECF8F3" transform="translate(277,116)"/>
<path d="M0 0 C2 3 2 3 1.625 5.6875 C1.41875 6.450625 1.2125 7.21375 1 8 C-0.32 7.67 -1.64 7.34 -3 7 C-2.38722388 4.03824877 -1.74627478 2.61941217 0 0 Z " fill="#1F5F43" transform="translate(141,105)"/>
<path d="M0 0 C0 0.66 0 1.32 0 2 C-1.98 2.33 -3.96 2.66 -6 3 C-6 2.01 -6 1.02 -6 0 C-3.50907189 -1.24546405 -2.58919267 -0.7767578 0 0 Z " fill="#2B5C4A" transform="translate(194,76)"/>
<path d="M0 0 C0.99 0.33 1.98 0.66 3 1 C3 1.99 3 2.98 3 4 C1.35 4 -0.3 4 -2 4 C-2 3.01 -2 2.02 -2 1 C-1.34 0.67 -0.68 0.34 0 0 Z " fill="#C0CDCB" transform="translate(146,140)"/>
<path d="M0 0 C0.99 0 1.98 0 3 0 C4.5625 2.8125 4.5625 2.8125 6 6 C5.67 6.99 5.34 7.98 5 9 C2.3534665 6.3534665 1.40058003 3.43778736 0 0 Z " fill="#405C53" transform="translate(198,135)"/>
<path d="M0 0 C0.66 0.33 1.32 0.66 2 1 C1.67 3.31 1.34 5.62 1 8 C0.34 7.67 -0.32 7.34 -1 7 C-1.04254356 5.00045254 -1.04080783 2.99958364 -1 1 C-0.67 0.67 -0.34 0.34 0 0 Z " fill="#456F61" transform="translate(303,111)"/>
<path d="M0 0 C2.475 0.495 2.475 0.495 5 1 C5.33 2.32 5.66 3.64 6 5 C3.5625 4.1875 3.5625 4.1875 1 3 C0.67 2.01 0.34 1.02 0 0 Z " fill="#346650" transform="translate(250,106)"/>
<path d="M0 0 C1.20628008 2.33214148 2.1654738 4.49642139 3 7 C1.68 7 0.36 7 -1 7 C-1.04254356 5.00045254 -1.04080783 2.99958364 -1 1 C-0.67 0.67 -0.34 0.34 0 0 Z " fill="#406758" transform="translate(174,54)"/>
<path d="M0 0 C-0.99 0.66 -1.98 1.32 -3 2 C-4.67423683 3.32381517 -6.34211215 4.65576661 -8 6 C-8 4.68 -8 3.36 -8 2 C-4.77208445 -0.1519437 -3.71599191 -0.20086443 0 0 Z " fill="#EAF6F3" transform="translate(158,55)"/>
<path d="M0 0 C2.64 0 5.28 0 8 0 C8 0.99 8 1.98 8 3 C7.01 3.33 6.02 3.66 5 4 C5 3.34 5 2.68 5 2 C3.35 1.67 1.7 1.34 0 1 C0 0.67 0 0.34 0 0 Z " fill="#E6FCF3" transform="translate(160,53)"/>
<path d="M0 0 C1.5625 1.125 1.5625 1.125 3 3 C2.6875 6.1875 2.6875 6.1875 2 9 C0 7 0 7 -0.125 3.375 C-0.08375 2.26125 -0.0425 1.1475 0 0 Z " fill="#386451" transform="translate(120,38)"/>
<path d="M0 0 C1.65 0 3.3 0 5 0 C5 0.99 5 1.98 5 3 C3.02 3 1.04 3 -1 3 C-0.67 2.01 -0.34 1.02 0 0 Z " fill="#205F47" transform="translate(148,26)"/>
<path d="M0 0 C0.99 0.33 1.98 0.66 3 1 C2.2884375 1.804375 2.2884375 1.804375 1.5625 2.625 C-0.28186076 5.42842836 -0.62456847 7.69620258 -1 11 C-1.33 11 -1.66 11 -2 11 C-2.28571429 3.57142857 -2.28571429 3.57142857 0 0 Z " fill="#C9E4D9" transform="translate(124,13)"/>
<path d="M0 0 C1.32 0.33 2.64 0.66 4 1 C3.67 2.32 3.34 3.64 3 5 C2.01 5 1.02 5 0 5 C0 3.35 0 1.7 0 0 Z " fill="#305F4F" transform="translate(113,1)"/>
</svg>
