<?xml version="1.0" encoding="UTF-8"?>
<svg version="1.1" xmlns="http://www.w3.org/2000/svg" width="452" height="200">
<path d="M0 0 C8.72130192 7.27941733 15.92241137 15.01630567 21.43359375 25.03125 C21.8925 25.84078125 22.35140625 26.6503125 22.82421875 27.484375 C33.0741508 46.62581437 35.08595711 71.62886871 28.82421875 92.3984375 C19.78013046 116.02484791 4.71437905 133.83346778 -18.19140625 144.90625 C-28.66149256 149.2337777 -38.67787627 150.52204839 -49.91162109 150.42236328 C-52.06412083 150.40626709 -54.21474397 150.42230607 -56.3671875 150.44140625 C-67.87491476 150.46105246 -78.28305449 148.77879312 -88.56640625 143.40625 C-89.23792725 143.06215088 -89.90944824 142.71805176 -90.60131836 142.36352539 C-97.12599145 138.91475854 -102.91299208 134.78743511 -108.56640625 130.03125 C-109.20707031 129.49242187 -109.84773438 128.95359375 -110.5078125 128.3984375 C-120.91216798 118.7907032 -127.80375267 106.19469532 -132.56640625 93.03125 C-133.1078125 91.55205078 -133.1078125 91.55205078 -133.66015625 90.04296875 C-139.87647809 68.77508986 -136.09258846 44.87459037 -125.69921875 25.72265625 C-115.21984107 7.21985658 -98.87114602 -7.25508604 -78.56640625 -13.96875 C-77.66921875 -14.28585938 -76.77203125 -14.60296875 -75.84765625 -14.9296875 C-49.9088361 -22.53004072 -21.35815568 -15.84753541 0 0 Z " fill="#F38A34" transform="translate(140.56640625,33.96875)"/>
<path d="M0 0 C1.64773911 -0.01925285 1.64773911 -0.01925285 3.32876587 -0.03889465 C4.52657684 -0.04628159 5.72438782 -0.05366852 6.95849609 -0.0612793 C8.18345795 -0.06935104 9.4084198 -0.07742279 10.67050171 -0.08573914 C13.27153092 -0.09960354 15.8725785 -0.11031509 18.47363281 -0.11816406 C22.444129 -0.13134905 26.41400749 -0.17919776 30.38427734 -0.22338867 C32.90901079 -0.23351871 35.43375134 -0.24203384 37.95849609 -0.2487793 C39.73699448 -0.27504143 39.73699448 -0.27504143 41.55142212 -0.30183411 C48.21506614 -0.2843875 52.48904217 0.09598434 57.85693359 4.17700195 C63.56490058 11.38706551 63.41386727 18.24464264 62.85693359 27.17700195 C61.67711874 34.37387258 57.39226722 37.82865069 51.85693359 42.17700195 C51.19693359 42.83700195 50.53693359 43.49700195 49.85693359 44.17700195 C50.63037109 44.45672852 51.40380859 44.73645508 52.20068359 45.0246582 C62.62550853 49.03718364 69.7426272 54.08008804 74.85693359 64.17700195 C77.29252532 71.48377714 77.04294117 80.80213215 73.66943359 87.73950195 C72.77025531 89.24227229 71.83590608 90.72495059 70.85693359 92.17700195 C70.17630859 93.24950195 69.49568359 94.32200195 68.79443359 95.42700195 C64.27862268 100.50728923 56.42942617 103.81419558 49.85693359 105.17700195 C48.4889254 105.25408918 47.11769768 105.28503804 45.74755859 105.2746582 C44.99345703 105.27143555 44.23935547 105.26821289 43.46240234 105.26489258 C42.68509766 105.25651367 41.90779297 105.24813477 41.10693359 105.23950195 C40.31416016 105.23499023 39.52138672 105.23047852 38.70458984 105.22583008 C36.75533851 105.2140876 34.80612621 105.19615341 32.85693359 105.17700195 C34.30479714 95.91335646 36.96020667 88.18982782 41.85693359 80.17700195 C42.84693359 81.16700195 43.83693359 82.15700195 44.85693359 83.17700195 C47.33193359 77.23700195 47.33193359 77.23700195 49.85693359 71.17700195 C50.51693359 71.17700195 51.17693359 71.17700195 51.85693359 71.17700195 C52.24946614 75.6257041 51.00999317 78.31943689 48.85693359 82.17700195 C49.18693359 82.50700195 49.51693359 82.83700195 49.85693359 83.17700195 C53.4047833 77.79800401 54.5658119 73.59623526 54.85693359 67.17700195 C56.17693359 67.50700195 57.49693359 67.83700195 58.85693359 68.17700195 C59.35193359 73.12700195 59.35193359 73.12700195 59.85693359 78.17700195 C60.51693359 73.22700195 61.17693359 68.27700195 61.85693359 63.17700195 C59.87693359 62.84700195 57.89693359 62.51700195 55.85693359 62.17700195 C56.85693359 60.17700195 57.85693359 58.17700195 58.85693359 56.17700195 C57.20693359 56.83700195 55.55693359 57.49700195 53.85693359 58.17700195 C53.65068359 57.37262695 53.44443359 56.56825195 53.23193359 55.73950195 C52.77818359 54.89387695 52.32443359 54.04825195 51.85693359 53.17700195 C48.80420894 52.27869357 48.80420894 52.27869357 45.85693359 52.17700195 C45.85693359 52.83700195 45.85693359 53.49700195 45.85693359 54.17700195 C47.50693359 54.50700195 49.15693359 54.83700195 50.85693359 55.17700195 C50.85693359 56.16700195 50.85693359 57.15700195 50.85693359 58.17700195 C46.89693359 58.17700195 42.93693359 58.17700195 38.85693359 58.17700195 C40.47484801 55.48047793 42.11258987 52.79351755 43.85693359 50.17700195 C43.07318359 51.00200195 42.28943359 51.82700195 41.48193359 52.67700195 C38.85693359 55.17700195 38.85693359 55.17700195 36.85693359 55.17700195 C36.36193359 50.72200195 36.36193359 50.72200195 35.85693359 46.17700195 C33.51159409 45.40744059 33.51159409 45.40744059 30.85693359 45.17700195 C29.0214537 46.5107877 29.0214537 46.5107877 27.85693359 48.17700195 C30.82693359 47.68200195 30.82693359 47.68200195 33.85693359 47.17700195 C33.85693359 49.15700195 33.85693359 51.13700195 33.85693359 53.17700195 C32.53693359 53.83700195 31.21693359 54.49700195 29.85693359 55.17700195 C29.19693359 54.51700195 28.53693359 53.85700195 27.85693359 53.17700195 C24.8941005 53.57204637 22.47367119 54.77517824 19.85693359 56.17700195 C19.36193359 53.70200195 19.36193359 53.70200195 18.85693359 51.17700195 C17.37193359 51.67200195 17.37193359 51.67200195 15.85693359 52.17700195 C15.19693359 50.52700195 14.53693359 48.87700195 13.85693359 47.17700195 C11.95277901 47.29579472 11.95277901 47.29579472 9.85693359 48.17700195 C8.06830888 50.47201176 8.06830888 50.47201176 6.60693359 53.23950195 C6.08615234 54.15860352 5.56537109 55.07770508 5.02880859 56.0246582 C4.44873047 57.09006836 4.44873047 57.09006836 3.85693359 58.17700195 C4.59943359 57.39325195 5.34193359 56.60950195 6.10693359 55.80200195 C8.40126677 53.61195665 9.97852217 52.34968809 12.85693359 51.17700195 C13.18693359 52.82700195 13.51693359 54.47700195 13.85693359 56.17700195 C13.25365234 56.54051758 12.65037109 56.9040332 12.02880859 57.27856445 C7.03216772 60.42161274 3.70279129 62.98021834 0.85693359 68.17700195 C1.65357422 67.5447168 1.65357422 67.5447168 2.46630859 66.8996582 C3.17271484 66.35180664 3.87912109 65.80395508 4.60693359 65.23950195 C5.30302734 64.69422852 5.99912109 64.14895508 6.71630859 63.5871582 C8.81785488 62.20274542 10.40015159 61.61413209 12.85693359 61.17700195 C12.85693359 62.16700195 12.85693359 63.15700195 12.85693359 64.17700195 C11.77412109 64.48637695 11.77412109 64.48637695 10.66943359 64.80200195 C4.321277 67.90554518 1.70747765 74.05361103 -1.14306641 80.17700195 C-0.48306641 80.17700195 0.17693359 80.17700195 0.85693359 80.17700195 C1.10443359 79.64075195 1.35193359 79.10450195 1.60693359 78.55200195 C3.15390334 75.61275943 4.98707728 72.91945788 6.85693359 70.17700195 C7.85693359 73.17700195 7.85693359 73.17700195 6.41943359 76.36450195 C5.90380859 77.29262695 5.38818359 78.22075195 4.85693359 79.17700195 C5.51693359 79.17700195 6.17693359 79.17700195 6.85693359 79.17700195 C5.28037008 85.45762084 3.47456818 91.66114893 1.41943359 97.80200195 C1.02884766 98.99051758 0.63826172 100.1790332 0.23583984 101.40356445 C-1.14306641 104.17700195 -1.14306641 104.17700195 -3.24072266 105.13793945 C-4.18238281 105.15727539 -4.18238281 105.15727539 -5.14306641 105.17700195 C-6.67145571 103.64861265 -6.26898895 102.28464927 -6.27005005 100.15319824 C-6.27286987 99.28661087 -6.2756897 98.4200235 -6.27859497 97.5271759 C-6.27657074 96.56921616 -6.27454651 95.61125641 -6.27246094 94.62426758 C-6.27421326 93.62111008 -6.27596558 92.61795258 -6.277771 91.58439636 C-6.28219157 88.25066424 -6.2792508 84.91698467 -6.27587891 81.58325195 C-6.27655189 79.27779124 -6.27752186 76.97233059 -6.27877808 74.66687012 C-6.28025533 69.82795539 -6.27809962 64.98905908 -6.2734375 60.15014648 C-6.2677402 53.9320555 -6.27101906 47.71400767 -6.27700996 41.49591827 C-6.28061484 36.7331713 -6.27947733 31.97043465 -6.27688217 27.20768738 C-6.2762127 24.91424047 -6.27704203 22.62079264 -6.27936172 20.3273468 C-6.28188705 17.12811789 -6.27804935 13.92895993 -6.27246094 10.72973633 C-6.27448517 9.77177658 -6.2765094 8.81381683 -6.27859497 7.826828 C-6.27577515 6.96024063 -6.27295532 6.09365326 -6.27005005 5.20080566 C-6.26967302 4.44346886 -6.269296 3.68613205 -6.26890755 2.90584564 C-5.99461125 -0.86251995 -3.14408089 0.03185897 0 0 Z " fill="#FBFBF9" transform="translate(58.14306640625,49.822998046875)"/>
<path d="M0 0 C2.25 0.875 2.25 0.875 3.25 1.875 C3.32179964 3.39428038 3.33392007 4.91667482 3.3125 6.4375 C3.30347656 7.26378906 3.29445312 8.09007813 3.28515625 8.94140625 C3.27355469 9.57949219 3.26195312 10.21757813 3.25 10.875 C3.91 10.875 4.57 10.875 5.25 10.875 C5.518125 10.235625 5.78625 9.59625 6.0625 8.9375 C7.25 6.875 7.25 6.875 10.25 5.875 C9.04618552 8.36861571 7.79571278 10.55643083 6.25 12.875 C6.87648437 12.86339844 7.50296875 12.85179688 8.1484375 12.83984375 C8.96570313 12.83082031 9.78296875 12.82179688 10.625 12.8125 C11.43710938 12.80089844 12.24921875 12.78929688 13.0859375 12.77734375 C15.25 12.875 15.25 12.875 17.25 13.875 C16.755 12.39 16.755 12.39 16.25 10.875 C14.23491642 10.14176204 14.23491642 10.14176204 12.25 9.875 C12.25 9.215 12.25 8.555 12.25 7.875 C15.0625 7.5625 15.0625 7.5625 18.25 7.875 C20.125 10.375 20.125 10.375 21.25 12.875 C22.57 12.545 23.89 12.215 25.25 11.875 C23.75 14.875 23.75 14.875 22.25 17.875 C24.23 18.205 26.21 18.535 28.25 18.875 C28.46824777 24.8768137 27.7556904 30.06733704 26.25 35.875 C25.92 35.875 25.59 35.875 25.25 35.875 C24.755 29.935 24.755 29.935 24.25 23.875 C23.26 23.545 22.27 23.215 21.25 22.875 C21.37375 24.15375 21.4975 25.4325 21.625 26.75 C21.68322415 32.85383217 18.65669784 37.01842778 15.25 41.875 C14.22555312 38.69921466 14.12688568 38.13801696 15.625 34.9375 C16.16125 33.926875 16.6975 32.91625 17.25 31.875 C17.94907414 29.13927415 17.94907414 29.13927415 18.25 26.875 C15.99285056 27.72811602 15.99285056 27.72811602 15.25 30.34375 C14.92 31.3440625 14.59 32.344375 14.25 33.375 C13.63884072 35.22757656 12.98238797 37.0669172 12.25 38.875 C11.26 39.37 11.26 39.37 10.25 39.875 C9.92 38.885 9.59 37.895 9.25 36.875 C5.13531534 42.7041366 3.06895262 48.12470538 1.2421875 55.01953125 C0.27320617 57.80821374 -0.48583395 59.05215445 -2.75 60.875 C-2.75 59.555 -2.75 58.235 -2.75 56.875 C-6.37885324 56.72350702 -6.37885324 56.72350702 -9.75 57.875 C-9.17119026 53.42415267 -8.00893521 49.78183728 -6.1875 45.6875 C-4.24961284 41.43839475 -4.24961284 41.43839475 -3.75 36.875 C-6.8245356 37.6513932 -6.8245356 37.6513932 -8.75 39.875 C-8.75 35.875 -8.75 35.875 -6.25 33.125 C-5.425 32.3825 -4.6 31.64 -3.75 30.875 C-6.07502226 33.55771799 -7.40149997 34.77741999 -10.875 35.75 C-14.07266926 36.61137971 -14.07266926 36.61137971 -15.125 40 C-15.33125 40.94875 -15.5375 41.8975 -15.75 42.875 C-16.41 41.555 -17.07 40.235 -17.75 38.875 C-20.34592806 41.93242638 -21.35243495 44.48555145 -22.25 48.375 C-23.14756505 52.26444855 -24.15407194 54.81757362 -26.75 57.875 C-26.75 56.885 -26.75 55.895 -26.75 54.875 C-29.25965614 55.57839566 -29.25965614 55.57839566 -31.75 56.875 C-32.63693303 58.91605639 -32.63693303 58.91605639 -32.75 60.875 C-33.41 60.875 -34.07 60.875 -34.75 60.875 C-33.11231563 51.86773599 -29.88020303 43.44860642 -26.75 34.875 C-27.41 34.875 -28.07 34.875 -28.75 34.875 C-28.5025 33.699375 -28.5025 33.699375 -28.25 32.5 C-27.6876293 29.99291961 -27.6876293 29.99291961 -27.75 27.875 C-28.08773437 28.4525 -28.42546875 29.03 -28.7734375 29.625 C-29.44246094 30.73875 -29.44246094 30.73875 -30.125 31.875 C-30.56585938 32.6175 -31.00671875 33.36 -31.4609375 34.125 C-31.88632812 34.7025 -32.31171875 35.28 -32.75 35.875 C-33.41 35.875 -34.07 35.875 -34.75 35.875 C-34.11523852 32.47670379 -32.81160734 30.15960184 -30.875 27.3125 C-30.36195312 26.54808594 -29.84890625 25.78367187 -29.3203125 24.99609375 C-26.61463317 21.3414075 -26.61463317 21.3414075 -24.75 19.875 C-23.43 19.875 -22.11 19.875 -20.75 19.875 C-20.75 18.885 -20.75 17.895 -20.75 16.875 C-21.35328125 17.28492187 -21.9565625 17.69484375 -22.578125 18.1171875 C-23.37734375 18.65601562 -24.1765625 19.19484375 -25 19.75 C-26.18335937 20.55050781 -26.18335937 20.55050781 -27.390625 21.3671875 C-29.46555692 22.69322015 -31.52614972 23.82428175 -33.75 24.875 C-30.88561391 18.90752897 -27.48317691 15.26278636 -21.75 11.875 C-21.09 11.875 -20.43 11.875 -19.75 11.875 C-20.08 10.555 -20.41 9.235 -20.75 7.875 C-24.5452131 9.36597658 -26.36042731 11.63200849 -28.75 14.875 C-29.41 14.545 -30.07 14.215 -30.75 13.875 C-29.79532436 12.24784844 -28.83613152 10.62334654 -27.875 9 C-27.34132813 8.09507813 -26.80765625 7.19015625 -26.2578125 6.2578125 C-24.75 3.875 -24.75 3.875 -22.75 1.875 C-20.625 2.25 -20.625 2.25 -18.75 2.875 C-18.42 4.525 -18.09 6.175 -17.75 7.875 C-17.09 7.875 -16.43 7.875 -15.75 7.875 C-15.42 7.215 -15.09 6.555 -14.75 5.875 C-14.09 7.525 -13.43 9.175 -12.75 10.875 C-12.1725 10.359375 -11.595 9.84375 -11 9.3125 C-8.75 7.875 -8.75 7.875 -6.75 8.1875 C-6.09 8.414375 -5.43 8.64125 -4.75 8.875 C-3.43 8.875 -2.11 8.875 -0.75 8.875 C-0.42 6.895 -0.09 4.915 0.25 2.875 C-2.39 3.535 -5.03 4.195 -7.75 4.875 C-3.45437567 -0.15701708 -3.45437567 -0.15701708 0 0 Z " fill="#2B2B2C" transform="translate(91.75,94.125)"/>
<path d="M0 0 C0.66 0 1.32 0 2 0 C0.79618552 2.49361571 -0.45428722 4.68143083 -2 7 C-1.37351562 6.98839844 -0.74703125 6.97679688 -0.1015625 6.96484375 C0.71570313 6.95582031 1.53296875 6.94679688 2.375 6.9375 C3.18710938 6.92589844 3.99921875 6.91429688 4.8359375 6.90234375 C7 7 7 7 9 8 C8.67 7.01 8.34 6.02 8 5 C5.98491642 4.26676204 5.98491642 4.26676204 4 4 C4 3.34 4 2.68 4 2 C6.8125 1.6875 6.8125 1.6875 10 2 C11.875 4.5 11.875 4.5 13 7 C14.32 6.67 15.64 6.34 17 6 C16 8 15 10 14 12 C15.98 12.33 17.96 12.66 20 13 C20.21824777 19.0018137 19.5056904 24.19233704 18 30 C17.67 30 17.34 30 17 30 C16.505 24.06 16.505 24.06 16 18 C15.01 17.67 14.02 17.34 13 17 C13.12375 18.27875 13.2475 19.5575 13.375 20.875 C13.43322415 26.97883217 10.40669784 31.14342778 7 36 C5.97555312 32.82421466 5.87688568 32.26301696 7.375 29.0625 C7.91125 28.051875 8.4475 27.04125 9 26 C9.69907414 23.26427415 9.69907414 23.26427415 10 21 C7.74285056 21.85311602 7.74285056 21.85311602 7 24.46875 C6.67 25.4690625 6.34 26.469375 6 27.5 C5.38884072 29.35257656 4.73238797 31.1919172 4 33 C3.01 33.495 3.01 33.495 2 34 C1.67 33.01 1.34 32.02 1 31 C-3.11468466 36.8291366 -5.18104738 42.24970538 -7.0078125 49.14453125 C-7.97679383 51.93321374 -8.73583395 53.17715445 -11 55 C-11 53.68 -11 52.36 -11 51 C-14.62885324 50.84850702 -14.62885324 50.84850702 -18 52 C-17.42119026 47.54915267 -16.25893521 43.90683728 -14.4375 39.8125 C-12.49961284 35.56339475 -12.49961284 35.56339475 -12 31 C-15.0745356 31.7763932 -15.0745356 31.7763932 -17 34 C-17 30 -17 30 -15.1875 27.75 C-13 26 -13 26 -10 26 C-10 24.35 -10 22.7 -10 21 C-9.67 21.66 -9.34 22.32 -9 23 C-6.02934491 22.65772428 -6.02934491 22.65772428 -3 22 C-2.67 21.34 -2.34 20.68 -2 20 C-3.32 19.34 -4.64 18.68 -6 18 C-5.030625 17.7525 -4.06125 17.505 -3.0625 17.25 C-2.051875 16.8375 -1.04125 16.425 0 16 C0.96877057 13.96756452 0.96877057 13.96756452 1 12 C-0.134375 11.87625 -1.26875 11.7525 -2.4375 11.625 C-4.2009375 11.315625 -4.2009375 11.315625 -6 11 C-6.33 10.34 -6.66 9.68 -7 9 C-6.34 9 -5.68 9 -5 9 C-5.33 8.01 -5.66 7.02 -6 6 C-5.01 6 -4.02 6 -3 6 C-2.87625 5.38125 -2.7525 4.7625 -2.625 4.125 C-2 2 -2 2 0 0 Z " fill="#29292B" transform="translate(100,100)"/>
<path d="M0 0 C4.48080134 5.60100167 4.48080134 5.60100167 6.5078125 8.26171875 C6.93707031 8.82310547 7.36632812 9.38449219 7.80859375 9.96289062 C8.69472616 11.12380297 9.58012951 12.28527214 10.46484375 13.44726562 C12.22530457 15.74756564 13.94919277 17.94919277 16 20 C17.58454292 17.79252608 19.16766053 15.58405258 20.75 13.375 C21.1934375 12.75753906 21.636875 12.14007813 22.09375 11.50390625 C24.20869687 8.54920107 26.28473753 5.58561728 28.265625 2.5390625 C28.83796875 1.70117188 29.4103125 0.86328125 30 0 C30.33 0 30.66 0 31 0 C31 10.89 31 21.78 31 33 C28.69 33 26.38 33 24 33 C23.67 30.03 23.34 27.06 23 24 C20.69 26.97 18.38 29.94 16 33 C13.06799526 30.14723863 10.35684596 27.34920216 8 24 C7.67 26.97 7.34 29.94 7 33 C4.69 33 2.38 33 0 33 C0 22.11 0 11.22 0 0 Z " fill="#F28935" transform="translate(317,102)"/>
<path d="M0 0 C4.48080134 5.60100167 4.48080134 5.60100167 6.5078125 8.26171875 C6.93707031 8.82310547 7.36632812 9.38449219 7.80859375 9.96289062 C8.69472616 11.12380297 9.58012951 12.28527214 10.46484375 13.44726562 C12.22530457 15.74756564 13.94919277 17.94919277 16 20 C17.58454292 17.79252608 19.16766053 15.58405258 20.75 13.375 C21.1934375 12.75753906 21.636875 12.14007813 22.09375 11.50390625 C24.20869687 8.54920107 26.28473753 5.58561728 28.265625 2.5390625 C28.83796875 1.70117188 29.4103125 0.86328125 30 0 C30.33 0 30.66 0 31 0 C31 10.89 31 21.78 31 33 C28.69 33 26.38 33 24 33 C23.67 30.03 23.34 27.06 23 24 C20.69 26.97 18.38 29.94 16 33 C13.06799526 30.14723863 10.35684596 27.34920216 8 24 C7.67 26.97 7.34 29.94 7 33 C4.69 33 2.38 33 0 33 C0 22.11 0 11.22 0 0 Z " fill="#F08A36" transform="translate(327,54)"/>
<path d="M0 0 C4.17868174 3.58172721 8.02163626 6.91541241 11.8125 10.8125 C14.62013175 13.79918785 14.62013175 13.79918785 18 16 C18.33 11.05 18.66 6.1 19 1 C21.31 1 23.62 1 26 1 C26 11.89 26 22.78 26 34 C19.18372958 28.88779718 13.87537749 24.03858242 8 18 C7.67 22.95 7.34 27.9 7 33 C4.69 33 2.38 33 0 33 C0 22.11 0 11.22 0 0 Z " fill="#EF8A38" transform="translate(256,102)"/>
<path d="M0 0 C15 0 15 0 18.875 2.375 C22.1739642 6.45019108 22.35615167 8.74676294 22 14 C20.5625 16.75 20.5625 16.75 19 19 C18.67 19.99 18.34 20.98 18 22 C18.97769614 24.0471641 18.97769614 24.0471641 20.4375 26.0625 C23 29.8119891 23 29.8119891 23 32 C19.81176617 32.63764677 17.15600623 32.87239197 14 32 C11.36391376 28.96450676 9.66022399 25.64598209 8 22 C7.67 25.3 7.34 28.6 7 32 C4.69 32 2.38 32 0 32 C0 21.44 0 10.88 0 0 Z M7 7 C7 9.64 7 12.28 7 15 C9.37305578 15.41780879 9.37305578 15.41780879 12 15 C13.8624438 12.59141286 13.8624438 12.59141286 15 10 C14.34 9.01 13.68 8.02 13 7 C9.91634129 6.7497843 9.91634129 6.7497843 7 7 Z " fill="#F28935" transform="translate(425,55)"/>
<path d="M0 0 C15 0 15 0 18.875 2.375 C22.1739642 6.45019108 22.35615167 8.74676294 22 14 C20.5625 16.75 20.5625 16.75 19 19 C18.67 19.99 18.34 20.98 18 22 C18.97769614 24.0471641 18.97769614 24.0471641 20.4375 26.0625 C23 29.8119891 23 29.8119891 23 32 C19.81176617 32.63764677 17.15600623 32.87239197 14 32 C11.36391376 28.96450676 9.66022399 25.64598209 8 22 C7.67 25.3 7.34 28.6 7 32 C4.69 32 2.38 32 0 32 C0 21.44 0 10.88 0 0 Z M7 7 C7 9.64 7 12.28 7 15 C9.37305578 15.41780879 9.37305578 15.41780879 12 15 C13.8624438 12.59141286 13.8624438 12.59141286 15 10 C14.34 9.01 13.68 8.02 13 7 C9.91634129 6.7497843 9.91634129 6.7497843 7 7 Z " fill="#F08A36" transform="translate(264,55)"/>
<path d="M0 0 C4.29 0 8.58 0 13 0 C17.68085106 5.85106383 17.68085106 5.85106383 18 10 C17.5625 12.3125 17.5625 12.3125 17 14 C17.99 14.33 18.98 14.66 20 15 C21.77559146 18.01850549 22.00032634 19.98172471 21.9375 23.5 C21 27 21 27 16 32 C10.72 32 5.44 32 0 32 C0 21.44 0 10.88 0 0 Z M7 7 C7 8.65 7 10.3 7 12 C8.32 11.34 9.64 10.68 11 10 C10.67 9.01 10.34 8.02 10 7 C9.01 7 8.02 7 7 7 Z M7 18 C7 20.31 7 22.62 7 25 C8.98 25 10.96 25 13 25 C13.66 23.68 14.32 22.36 15 21 C13.81476003 19.39585785 13.81476003 19.39585785 12 18 C9.37429296 17.74930087 9.37429296 17.74930087 7 18 Z " fill="#F28934" transform="translate(181,55)"/>
<path d="M0 0 C2.31 0 4.62 0 7 0 C7 4.29 7 8.58 7 13 C9.97 13 12.94 13 16 13 C16 8.71 16 4.42 16 0 C18.31 0 20.62 0 23 0 C23 10.56 23 21.12 23 32 C20.69 32 18.38 32 16 32 C16 28.04 16 24.08 16 20 C13.03 20 10.06 20 7 20 C7 23.96 7 27.92 7 32 C4.69 32 2.38 32 0 32 C0 21.44 0 10.88 0 0 Z " fill="#F18A35" transform="translate(213,103)"/>
<path d="M0 0 C2.31 0 4.62 0 7 0 C7.01981934 0.65597168 7.03963867 1.31194336 7.06005859 1.98779297 C7.15512507 4.95061069 7.26487752 7.91270532 7.375 10.875 C7.4059375 11.90753906 7.436875 12.94007812 7.46875 14.00390625 C7.50742187 14.99003906 7.54609375 15.97617188 7.5859375 16.9921875 C7.6173584 17.90339355 7.6487793 18.81459961 7.68115234 19.75341797 C7.79882511 22.19931186 7.79882511 22.19931186 10 24 C13.58343976 24.16677282 13.58343976 24.16677282 17 24 C17.83371359 21.04491553 18.17889534 18.29890387 18.31640625 15.234375 C18.35830078 14.34492187 18.40019531 13.45546875 18.44335938 12.5390625 C18.48267578 11.61867188 18.52199219 10.69828125 18.5625 9.75 C18.60568359 8.81414063 18.64886719 7.87828125 18.69335938 6.9140625 C18.7991805 4.60951359 18.90126557 2.30486161 19 0 C21.31 0 23.62 0 26 0 C26.11674705 3.70806596 26.18743274 7.4156554 26.25 11.125 C26.28351563 12.17171875 26.31703125 13.2184375 26.3515625 14.296875 C26.4285432 20.37835036 26.29709499 24.2972352 22 29 C19.09354036 31.76055304 17.11375382 32.43128699 13.125 32.4375 C8.37622943 32.29041419 5.6034457 31.24310113 2 28 C-0.08048372 24.74830073 -0.23594735 22.17905134 -0.1953125 18.359375 C-0.18886719 17.28945312 -0.18242187 16.21953125 -0.17578125 15.1171875 C-0.15902344 14.00601563 -0.14226562 12.89484375 -0.125 11.75 C-0.11597656 10.62335938 -0.10695313 9.49671875 -0.09765625 8.3359375 C-0.07410658 5.55707635 -0.0412168 2.7786461 0 0 Z " fill="#F18A37" transform="translate(392,55)"/>
<path d="M0 0 C5.28 0 10.56 0 16 0 C22.18417047 6.18417047 22.18417047 6.18417047 22.3125 10.75 C22.27155231 14.33292297 22.10814753 15.80773772 20.3125 19 C16.03182033 22.70220945 12.58702548 23.25986165 7 23 C7 25.97 7 28.94 7 32 C4.69 32 2.38 32 0 32 C0 21.44 0 10.88 0 0 Z M7 7 C7 9.97 7 12.94 7 16 C9.80362763 16.22732116 11.46186517 16.34081872 13.875 14.8125 C15.26547392 12.98054156 15.26547392 12.98054156 14.75 10.375 C14.22254355 8.0687593 14.22254355 8.0687593 13 7 C11.00041636 6.95919217 8.99954746 6.95745644 7 7 Z " fill="#F28936" transform="translate(364,55)"/>
<path d="M0 0 C1.6328125 1.10546875 1.6328125 1.10546875 3.9453125 3.10546875 C2.57547747 6.26662651 1.9562487 7.09817795 -1.0546875 9.10546875 C-2.0446875 8.44546875 -3.0346875 7.78546875 -4.0546875 7.10546875 C-7.97726746 6.67755094 -10.16220158 6.47133402 -13.4296875 8.79296875 C-15.29157439 11.44257702 -15.97747649 12.86260622 -16.0546875 16.10546875 C-14.47511668 20.40346173 -14.47511668 20.40346173 -11.0546875 23.10546875 C-6.81497692 23.34100823 -3.69290448 23.43392761 -0.0546875 21.10546875 C1.2653125 22.42546875 2.5853125 23.74546875 3.9453125 25.10546875 C3.00239854 27.46275364 2.3744036 28.83223585 0.203125 30.21484375 C-4.0811307 31.90482697 -8.53573176 31.6367248 -13.0546875 31.10546875 C-17.50615001 28.92020533 -20.24353895 26.16601665 -23.0546875 22.10546875 C-24.72088137 17.10688715 -24.68291285 12.79175785 -22.8671875 7.91796875 C-17.71406024 -0.07826321 -9.32120484 -4.05809108 0 0 Z " fill="#F38935" transform="translate(203.0546875,103.89453125)"/>
<path d="M0 0 C3.43803208 1.93389305 4.69276462 2.9601264 5.8125 6.75 C5.874375 7.4925 5.93625 8.235 6 9 C2.625 9.625 2.625 9.625 -1 10 C-1.66 9.34 -2.32 8.68 -3 8 C-3.99 8 -4.98 8 -6 8 C-6 8.99 -6 9.98 -6 11 C-5.30132812 11.32613281 -4.60265625 11.65226562 -3.8828125 11.98828125 C-2.97273438 12.42527344 -2.06265625 12.86226562 -1.125 13.3125 C-0.22007812 13.74175781 0.68484375 14.17101562 1.6171875 14.61328125 C4 16 4 16 6 19 C6.3993489 22.09495395 6.6393387 24.03945865 6 27 C3.35807791 30.25159642 1.83066221 31.60817405 -2.2265625 32.4765625 C-6.54957391 32.75126891 -8.46257856 32.40306608 -12 29.75 C-13.75981787 27.33025043 -14.67467334 25.92793994 -15 23 C-11.625 22.375 -11.625 22.375 -8 22 C-7.34 22.66 -6.68 23.32 -6 24 C-4.68 24 -3.36 24 -2 24 C-2 23.01 -2 22.02 -2 21 C-2.92232422 20.63648438 -2.92232422 20.63648438 -3.86328125 20.265625 C-12.45758355 16.70179949 -12.45758355 16.70179949 -14 13 C-14.61910022 8.12458579 -14.7360976 6.13976402 -12.0625 2 C-7.95170197 -0.68460279 -4.78235782 -0.9356787 0 0 Z " fill="#F18934" transform="translate(430,103)"/>
<path d="M0 0 C3.31888302 4.97832453 5.56421961 10.5114103 8.0625 15.9375 C8.61744141 17.13052734 9.17238281 18.32355469 9.74414062 19.55273438 C10.27330078 20.69935547 10.80246094 21.84597656 11.34765625 23.02734375 C11.83242432 24.07656006 12.31719238 25.12577637 12.81665039 26.20678711 C13.78504893 28.49262324 14.50233331 30.57782821 15 33 C12.36 33 9.72 33 7 33 C6.77570313 32.35546875 6.55140625 31.7109375 6.3203125 31.046875 C5.17110544 28.75611148 5.17110544 28.75611148 2.6171875 28.390625 C1.25980469 28.32101563 1.25980469 28.32101563 -0.125 28.25 C-1.03507813 28.19328125 -1.94515625 28.1365625 -2.8828125 28.078125 C-3.93082031 28.03945312 -3.93082031 28.03945312 -5 28 C-5.99 30.475 -5.99 30.475 -7 33 C-9.64 33 -12.28 33 -15 33 C-13.44224338 29.37294397 -11.8779104 25.74875854 -10.3125 22.125 C-9.87744141 21.11179687 -9.44238281 20.09859375 -8.99414062 19.0546875 C-6.19792216 12.59231595 -3.2238267 6.26021153 0 0 Z M0 18 C-0.66 19.32 -1.32 20.64 -2 22 C-0.68 22 0.64 22 2 22 C1.34 20.68 0.68 19.36 0 18 Z " fill="#F28935" transform="translate(219,54)"/>
<path d="M0 0 C3.31888302 4.97832453 5.56421961 10.5114103 8.0625 15.9375 C8.61744141 17.13052734 9.17238281 18.32355469 9.74414062 19.55273438 C10.27330078 20.69935547 10.80246094 21.84597656 11.34765625 23.02734375 C11.83242432 24.07656006 12.31719238 25.12577637 12.81665039 26.20678711 C13.78504893 28.49262324 14.50233331 30.57782821 15 33 C12.36 33 9.72 33 7 33 C6.77570313 32.35546875 6.55140625 31.7109375 6.3203125 31.046875 C5.17110544 28.75611148 5.17110544 28.75611148 2.6171875 28.390625 C1.25980469 28.32101563 1.25980469 28.32101563 -0.125 28.25 C-1.03507812 28.19328125 -1.94515625 28.1365625 -2.8828125 28.078125 C-3.93082031 28.03945312 -3.93082031 28.03945312 -5 28 C-5.99 30.475 -5.99 30.475 -7 33 C-9.64 33 -12.28 33 -15 33 C-13.44224338 29.37294397 -11.8779104 25.74875854 -10.3125 22.125 C-9.87744141 21.11179687 -9.44238281 20.09859375 -8.99414062 19.0546875 C-6.19792216 12.59231595 -3.2238267 6.26021153 0 0 Z M0 18 C-0.66 19.32 -1.32 20.64 -2 22 C-0.68 22 0.64 22 2 22 C1.34 20.68 0.68 19.36 0 18 Z " fill="#F28936" transform="translate(306,54)"/>
<path d="M0 0 C0 3.52032428 -0.70351351 4.4385343 -3 7 C-3.66 7 -4.32 7 -5 7 C-4.67 7.66 -4.34 8.32 -4 9 C-2.68 8.34 -1.36 7.68 0 7 C1.4650113 11.50371428 -0.13630407 14.58005406 -1.9375 18.75 C-2.22818359 19.44738281 -2.51886719 20.14476562 -2.81835938 20.86328125 C-3.53551703 22.57975695 -4.26643402 24.29047232 -5 26 C-3.93354885 27.29633621 -3.93354885 27.29633621 -1.4375 27.0625 C-0.2309375 27.0315625 -0.2309375 27.0315625 1 27 C1 28.32 1 29.64 1 31 C0 32 0 32 -2.28515625 32.09765625 C-3.65994141 32.08025391 -3.65994141 32.08025391 -5.0625 32.0625 C-5.98160156 32.05347656 -6.90070313 32.04445312 -7.84765625 32.03515625 C-8.55792969 32.02355469 -9.26820312 32.01195312 -10 32 C-10 29.69 -10 27.38 -10 25 C-10.969375 25.185625 -11.93875 25.37125 -12.9375 25.5625 C-13.948125 25.706875 -14.95875 25.85125 -16 26 C-16.33 25.67 -16.66 25.34 -17 25 C-17.99 27.31 -18.98 29.62 -20 32 C-22.97 32 -25.94 32 -29 32 C-28.67 30.35 -28.34 28.7 -28 27 C-26.34385343 26.61781233 -24.67542976 26.28604898 -23 26 C-22.67 26.33 -22.34 26.66 -22 27 C-21.54625 25.80375 -21.0925 24.6075 -20.625 23.375 C-20.34785156 22.64539063 -20.07070312 21.91578125 -19.78515625 21.1640625 C-19.13924036 19.3837769 -18.5873975 17.56964468 -18.0625 15.75 C-16.87969649 12.68862621 -15.45922656 11.13132968 -13 9 C-12.67 9.33 -12.34 9.66 -12 10 C-11.608125 9.34 -11.21625 8.68 -10.8125 8 C-9 6 -9 6 -6.3125 5.75 C-5.549375 5.8325 -4.78625 5.915 -4 6 C-3.566875 5.071875 -3.566875 5.071875 -3.125 4.125 C-2 2 -2 2 0 0 Z " fill="#5D5D5E" transform="translate(88,123)"/>
<path d="M0 0 C2.31 0 4.62 0 7 0 C7 8.25 7 16.5 7 25 C11.29 25 15.58 25 20 25 C20 27.31 20 29.62 20 32 C13.4 32 6.8 32 0 32 C0 21.44 0 10.88 0 0 Z " fill="#EF8B36" transform="translate(392,103)"/>
<path d="M0 0 C2.31 0 4.62 0 7 0 C7 8.25 7 16.5 7 25 C11.29 25 15.58 25 20 25 C20 27.31 20 29.62 20 32 C13.4 32 6.8 32 0 32 C0 21.44 0 10.88 0 0 Z " fill="#F18A37" transform="translate(368,103)"/>
<path d="M0 0 C2.31 0 4.62 0 7 0 C7 8.25 7 16.5 7 25 C11.29 25 15.58 25 20 25 C20 27.31 20 29.62 20 32 C13.4 32 6.8 32 0 32 C0 21.44 0 10.88 0 0 Z " fill="#F18A37" transform="translate(240,55)"/>
<path d="M0 0 C0.99261337 0.00222061 1.98522675 0.00444122 3.00791931 0.00672913 C4.12900589 0.00680466 5.25009247 0.00688019 6.40515137 0.00695801 C8.2348069 0.01469994 8.2348069 0.01469994 10.10142517 0.02259827 C11.96377052 0.02472069 11.96377052 0.02472069 13.86373901 0.02688599 C17.16982383 0.03154861 20.47584039 0.04053955 23.78190613 0.05158997 C27.15338042 0.06180625 30.52486175 0.06638407 33.89634705 0.07142639 C40.51550667 0.08248056 47.13463385 0.09923715 53.75376892 0.12025452 C53.75376892 0.45025452 53.75376892 0.78025452 53.75376892 1.12025452 C35.93376892 1.45025452 18.11376892 1.78025452 -0.24623108 2.12025452 C-0.57623108 35.45025452 -0.90623108 68.78025452 -1.24623108 103.12025452 C-0.58623108 103.12025452 0.07376892 103.12025452 0.75376892 103.12025452 C0.75376892 103.78025452 0.75376892 104.44025452 0.75376892 105.12025452 C-0.56623108 104.79025452 -1.88623108 104.46025452 -3.24623108 104.12025452 C-3.26935177 90.70799658 -3.28714477 77.29574335 -3.29804325 63.88346958 C-3.30327268 57.65631979 -3.31037141 51.42918359 -3.32167053 45.20204163 C-3.33249729 39.19798587 -3.33850746 33.19394322 -3.34110832 27.18987846 C-3.34296295 24.89363842 -3.34658429 22.59739913 -3.35196114 20.30116463 C-3.35916876 17.09704638 -3.36022214 13.89298302 -3.35975647 10.68885803 C-3.36335175 9.72932724 -3.36694702 8.76979645 -3.37065125 7.78118896 C-3.36927658 6.91315643 -3.36790192 6.0451239 -3.3664856 5.15078735 C-3.36740739 4.39215173 -3.36832918 3.6335161 -3.36927891 2.85189152 C-3.1785656 0.16800654 -2.67617355 0.14327197 0 0 Z " fill="#FDE5CC" transform="translate(55.24623107910156,49.87974548339844)"/>
<path d="M0 0 C2.31 0 4.62 0 7 0 C7 10.56 7 21.12 7 32 C4.69 32 2.38 32 0 32 C0 21.44 0 10.88 0 0 Z " fill="#F08B36" transform="translate(243,103)"/>
<path d="M0 0 C2.31 0 4.62 0 7 0 C7 10.56 7 21.12 7 32 C4.69 32 2.38 32 0 32 C0 21.44 0 10.88 0 0 Z " fill="#F08A39" transform="translate(354,103)"/>
<path d="M0 0 C2.31 0 4.62 0 7 0 C7 10.56 7 21.12 7 32 C4.69 32 2.38 32 0 32 C0 21.44 0 10.88 0 0 Z " fill="#F08A36" transform="translate(289,103)"/>
<path d="M0 0 C0.99 0.33 1.98 0.66 3 1 C2.31583566 5.17576168 0.98634991 8.88080407 -0.5625 12.8125 C-1.01753906 13.97394531 -1.47257812 15.13539063 -1.94140625 16.33203125 C-2.29074219 17.21246094 -2.64007813 18.09289062 -3 19 C-1.93354885 20.29633621 -1.93354885 20.29633621 0.5625 20.0625 C1.7690625 20.0315625 1.7690625 20.0315625 3 20 C3 21.32 3 22.64 3 24 C2 25 2 25 -0.28515625 25.09765625 C-1.65994141 25.08025391 -1.65994141 25.08025391 -3.0625 25.0625 C-3.98160156 25.05347656 -4.90070313 25.04445312 -5.84765625 25.03515625 C-6.55792969 25.02355469 -7.26820312 25.01195312 -8 25 C-7.37875118 19.67401291 -6.18521174 14.79218212 -4.5625 9.6875 C-4.34529297 8.97271484 -4.12808594 8.25792969 -3.90429688 7.52148438 C-2.24973171 2.24973171 -2.24973171 2.24973171 0 0 Z " fill="#E9E8E8" transform="translate(86,130)"/>
<path d="M0 0 C2.64 0.33 5.28 0.66 8 1 C7.55643705 7.20988129 6.08467498 11.60540561 3 17 C2.67 15.68 2.34 14.36 2 13 C-1.62885324 12.84850702 -1.62885324 12.84850702 -5 14 C-4.46515599 8.65155992 -2.53309233 4.64203897 0 0 Z " fill="#1E1E1F" transform="translate(87,138)"/>
<path d="M0 0 C1.12490825 3.37472474 0.87742013 4.14472061 -0.1796875 7.4140625 C-0.44910156 8.25710937 -0.71851562 9.10015625 -0.99609375 9.96875 C-1.28613281 10.8453125 -1.57617188 11.721875 -1.875 12.625 C-2.15730469 13.50929687 -2.43960938 14.39359375 -2.73046875 15.3046875 C-4.84801942 21.84801942 -4.84801942 21.84801942 -6 23 C-7.51928038 23.07179964 -9.04167482 23.08392007 -10.5625 23.0625 C-11.38878906 23.05347656 -12.21507812 23.04445312 -13.06640625 23.03515625 C-14.02353516 23.01775391 -14.02353516 23.01775391 -15 23 C-14.67 21.35 -14.34 19.7 -14 18 C-12.34385343 17.61781233 -10.67542976 17.28604898 -9 17 C-8.67 17.33 -8.34 17.66 -8 18 C-5.87901101 12.4166988 -5.87901101 12.4166988 -4 6.75 C-3.01079271 4.02967995 -1.85924223 2.19728627 0 0 Z " fill="#DFDEE0" transform="translate(74,132)"/>
<path d="M0 0 C1.65 0 3.3 0 5 0 C5 0.99 5 1.98 5 3 C5.93199219 2.91621094 6.86398438 2.83242187 7.82421875 2.74609375 C16.35725808 2.06448596 24.45987758 2.06389889 33 3 C33 3.33 33 3.66 33 4 C27.29772722 4.80998193 21.75685271 5.18258801 16 5.1875 C15.24460937 5.19974609 14.48921875 5.21199219 13.7109375 5.22460938 C8.48726874 5.23807244 4.02191636 4.44380095 -1 3 C-0.67 2.01 -0.34 1.02 0 0 Z " fill="#DD975C" transform="translate(71,152)"/>
<path d="M0 0 C1.32 0.33 2.64 0.66 4 1 C4.06058594 1.68707031 4.12117188 2.37414062 4.18359375 3.08203125 C4.26738281 3.98308594 4.35117188 4.88414063 4.4375 5.8125 C4.51871094 6.70582031 4.59992188 7.59914063 4.68359375 8.51953125 C4.93489767 11.12743559 4.93489767 11.12743559 6 14 C5.0625 16.1875 5.0625 16.1875 4 18 C3.67 18 3.34 18 3 18 C2.67 15.69 2.34 13.38 2 11 C0.68 11.33 -0.64 11.66 -2 12 C-1.34 8.04 -0.68 4.08 0 0 Z " fill="#DFDEDF" transform="translate(113,117)"/>
<path d="M0 0 C1.2375 0.2475 1.2375 0.2475 2.5 0.5 C4.68810019 0.93762004 6.8405419 1.44014049 9 2 C9 2.66 9 3.32 9 4 C7.948125 3.979375 6.89625 3.95875 5.8125 3.9375 C-0.20759233 3.9000201 -0.20759233 3.9000201 -5 7 C-8 2.25 -8 2.25 -8 0 C-4.89377798 -0.99842851 -3.10026923 -0.93947552 0 0 Z " fill="#EB8B37" transform="translate(423,126)"/>
<path d="M0 0 C0.94875 0.04125 1.8975 0.0825 2.875 0.125 C3.5625 1.9375 3.5625 1.9375 3.875 4.125 C2.8125 5.875 2.8125 5.875 0.875 7.125 C-2.3125 7.3125 -2.3125 7.3125 -5.125 7.125 C-5.25 4.75 -5.25 4.75 -5.125 2.125 C-3.125 0.125 -3.125 0.125 0 0 Z " fill="#E7E7E9" transform="translate(98.125,110.875)"/>
<path d="M0 0 C0.66 0.66 1.32 1.32 2 2 C1.625 4.625 1.625 4.625 1 7 C2.94074861 6.72382467 2.94074861 6.72382467 5 6 C5.66 5.01 6.32 4.02 7 3 C8 6 8 6 6.5625 9.1875 C5.7890625 10.5796875 5.7890625 10.5796875 5 12 C4.67 11.01 4.34 10.02 4 9 C1.49034386 9.70339566 1.49034386 9.70339566 -1 11 C-1.88693303 13.04105639 -1.88693303 13.04105639 -2 15 C-2.66 15 -3.32 15 -4 15 C-2.9318153 9.88634986 -1.76892524 4.92772031 0 0 Z " fill="#322E2C" transform="translate(61,140)"/>
<path d="M0 0 C0 1.98 0 3.96 0 6 C-1.98 6.99 -1.98 6.99 -4 8 C-4.66 7.34 -5.32 6.68 -6 6 C-7.32 6 -8.64 6 -10 6 C-9.67 4.35 -9.34 2.7 -9 1 C-5.846632 0.29925156 -3.27275026 0 0 0 Z " fill="#F0F0F0" transform="translate(92,97)"/>
<path d="M0 0 C2.125 0.375 2.125 0.375 4 1 C4 1.99 4 2.98 4 4 C2.01399663 5.3540932 0.01182457 6.68457624 -2 8 C-4.32277416 10.6091387 -4.32277416 10.6091387 -6 13 C-6.66 12.67 -7.32 12.34 -8 12 C-7.04532436 10.37284844 -6.08613152 8.74834654 -5.125 7.125 C-4.59132813 6.22007813 -4.05765625 5.31515625 -3.5078125 4.3828125 C-2 2 -2 2 0 0 Z " fill="#3E3E3E" transform="translate(69,96)"/>
<path d="M0 0 C0.33 1.32 0.66 2.64 1 4 C-0.98 4.99 -0.98 4.99 -3 6 C-0.87219421 8.34058637 1.11562221 9.70700306 4 11 C4 11.66 4 12.32 4 13 C-0.72065967 11.45730076 -5.41664092 9.92205381 -10 8 C-9.195625 7.4121875 -9.195625 7.4121875 -8.375 6.8125 C-5.50791468 4.6244612 -2.76035432 2.32120704 0 0 Z " fill="#E19B58" transform="translate(116,86)"/>
<path d="M0 0 C2.00720923 0.28674418 4.0085944 0.61866701 6 1 C6 1.66 6 2.32 6 3 C6.66 3 7.32 3 8 3 C7.67 3.99 7.34 4.98 7 6 C4.03 6 1.06 6 -2 6 C-1.125 1.125 -1.125 1.125 0 0 Z " fill="#DBCEC5" transform="translate(61,149)"/>
<path d="M0 0 C0.78375 0.04125 1.5675 0.0825 2.375 0.125 C2.045 2.435 1.715 4.745 1.375 7.125 C-0.28114657 7.50718767 -1.94957024 7.83895102 -3.625 8.125 C-4.625 7.125 -4.625 7.125 -4.8125 4.6875 C-4.54653904 1.05270021 -3.63803315 0.17323967 0 0 Z " fill="#ECECEC" transform="translate(90.625,140.875)"/>
<path d="M0 0 C0.33 0.99 0.66 1.98 1 3 C3.31 2.34 5.62 1.68 8 1 C7.67 3.64 7.34 6.28 7 9 C6.34 9 5.68 9 5 9 C5 8.01 5 7.02 5 6 C1.06924356 6.57452746 1.06924356 6.57452746 -2 9 C-1.125 2.25 -1.125 2.25 0 0 Z " fill="#373433" transform="translate(71,146)"/>
<path d="M0 0 C0.721875 0.268125 1.44375 0.53625 2.1875 0.8125 C3.45014601 5.10549643 2.81700412 7.69081311 1.1875 11.8125 C0.8575 11.8125 0.5275 11.8125 0.1875 11.8125 C0.1875 8.8425 0.1875 5.8725 0.1875 2.8125 C-2.4525 3.4725 -5.0925 4.1325 -7.8125 4.8125 C-3.50480769 -0.23365385 -3.50480769 -0.23365385 0 0 Z " fill="#232323" transform="translate(91.8125,94.1875)"/>
<path d="M0 0 C1.32 0 2.64 0 4 0 C3.67 2.64 3.34 5.28 3 8 C1.35 8.33 -0.3 8.66 -2 9 C-2.25 3.375 -2.25 3.375 0 0 Z " fill="#E4E4E4" transform="translate(75,140)"/>
<path d="M0 0 C0.99 0 1.98 0 3 0 C3 0.66 3 1.32 3 2 C4.65 2.33 6.3 2.66 8 3 C8 3.99 8 4.98 8 6 C4.04 6 0.08 6 -4 6 C-1 1 -1 1 0 0 Z " fill="#D9D9D9" transform="translate(101,102)"/>
<path d="M0 0 C0 0.33 0 0.66 0 1 C-3.60409919 1.05800828 -7.20807851 1.09359869 -10.8125 1.125 C-12.34874023 1.15013672 -12.34874023 1.15013672 -13.91601562 1.17578125 C-14.89892578 1.18222656 -15.88183594 1.18867188 -16.89453125 1.1953125 C-17.80050049 1.20578613 -18.70646973 1.21625977 -19.63989258 1.22705078 C-22 1 -22 1 -25 -1 C-17.03357286 -3.65547571 -7.93719424 -2.15245945 0 0 Z " fill="#DD8D50" transform="translate(78,156)"/>
<path d="M0 0 C0.33 0 0.66 0 1 0 C1.21824777 6.0018137 0.5056904 11.19233704 -1 17 C-1.33 17 -1.66 17 -2 17 C-2.04898438 16.14535156 -2.09796875 15.29070312 -2.1484375 14.41015625 C-2.22320312 13.30542969 -2.29796875 12.20070313 -2.375 11.0625 C-2.44460937 9.96035156 -2.51421875 8.85820313 -2.5859375 7.72265625 C-2.72257812 6.82417969 -2.85921875 5.92570312 -3 5 C-3.66 4.67 -4.32 4.34 -5 4 C-5 3.34 -5 2.68 -5 2 C-3.68 2 -2.36 2 -1 2 C-0.67 1.34 -0.34 0.68 0 0 Z " fill="#2E2D2F" transform="translate(119,113)"/>
<path d="M0 0 C0.8353125 0.37125 0.8353125 0.37125 1.6875 0.75 C1.0275 1.41 0.3675 2.07 -0.3125 2.75 C-0.621875 3.389375 -0.93125 4.02875 -1.25 4.6875 C-2.36306436 6.84815435 -3.4507895 8.19857458 -5.3125 9.75 C-5.9725 9.75 -6.6325 9.75 -7.3125 9.75 C-7.625 7 -7.625 7 -7.3125 3.75 C-3.50153592 -0.37854442 -3.50153592 -0.37854442 0 0 Z " fill="#404040" transform="translate(85.3125,102.25)"/>
<path d="M0 0 C0.99 0.33 1.98 0.66 3 1 C3 2.32 3 3.64 3 5 C1.25 6.484375 1.25 6.484375 -1 7.75 C-2.11375 8.39195313 -2.11375 8.39195313 -3.25 9.046875 C-4.11625 9.51867187 -4.11625 9.51867187 -5 10 C-5.33 9.01 -5.66 8.02 -6 7 C-4.78515625 5.17578125 -4.78515625 5.17578125 -3.0625 3.3125 C-2.49660156 2.68988281 -1.93070312 2.06726563 -1.34765625 1.42578125 C-0.90292969 0.95527344 -0.45820312 0.48476562 0 0 Z " fill="#E6E6E6" transform="translate(69,101)"/>
<path d="M0 0 C1.32 0 2.64 0 4 0 C3.67 2.31 3.34 4.62 3 7 C1.35 7.33 -0.3 7.66 -2 8 C-1.125 1.125 -1.125 1.125 0 0 Z " fill="#E4E4E5" transform="translate(64,139)"/>
<path d="M0 0 C1.2065625 0.0309375 1.2065625 0.0309375 2.4375 0.0625 C1.6875 4.8125 1.6875 4.8125 -0.5625 7.0625 C-1.8825 7.0625 -3.2025 7.0625 -4.5625 7.0625 C-3.5234375 0.0859375 -3.5234375 0.0859375 0 0 Z " fill="#E8E8EA" transform="translate(69.5625,129.9375)"/>
<path d="M0 0 C0 0.99 0 1.98 0 3 C-0.33 3.33 -0.66 3.66 -1 4 C-0.34 4.33 0.32 4.66 1 5 C0.375 6.875 0.375 6.875 -1 9 C-4.125 10.25 -4.125 10.25 -7 11 C-5.22972246 6.39727838 -3.81300782 3.2870757 0 0 Z " fill="#EE893F" transform="translate(186,105)"/>
<path d="M0 0 C0.66 0.99 1.32 1.98 2 3 C1.34 3.66 0.68 4.32 0 5 C-1.67542976 4.71395102 -3.34385343 4.38218767 -5 4 C-5.33 4.33 -5.66 4.66 -6 5 C-8.18639453 5.07258946 -10.37500389 5.08373783 -12.5625 5.0625 C-14.35880859 5.04896484 -14.35880859 5.04896484 -16.19140625 5.03515625 C-17.11824219 5.02355469 -18.04507813 5.01195312 -19 5 C-19 4.67 -19 4.34 -19 4 C-17.87980469 3.79503906 -16.75960937 3.59007812 -15.60546875 3.37890625 C-14.13279176 3.10688311 -12.66013664 2.83474151 -11.1875 2.5625 C-10.44951172 2.42779297 -9.71152344 2.29308594 -8.95117188 2.15429688 C-5.88684924 1.58580263 -2.96071047 0.98690349 0 0 Z " fill="#E88E45" transform="translate(115,152)"/>
<path d="M0 0 C1.65 0 3.3 0 5 0 C5 1.32 5 2.64 5 4 C4 5 4 5 1.71484375 5.09765625 C0.34005859 5.08025391 0.34005859 5.08025391 -1.0625 5.0625 C-1.98160156 5.05347656 -2.90070313 5.04445312 -3.84765625 5.03515625 C-4.55792969 5.02355469 -5.26820312 5.01195312 -6 5 C-5.36578125 4.87753906 -4.7315625 4.75507813 -4.078125 4.62890625 C-1.80283433 4.19303909 -1.80283433 4.19303909 -0.75 1.9375 C-0.5025 1.298125 -0.255 0.65875 0 0 Z " fill="#EADED2" transform="translate(84,150)"/>
<path d="M0 0 C1.32 0 2.64 0 4 0 C4.125 5.75 4.125 5.75 3 8 C1.68 8 0.36 8 -1 8 C-1.04241723 5.66705225 -1.04092937 3.33297433 -1 1 C-0.67 0.67 -0.34 0.34 0 0 Z " fill="#E0E0E2" transform="translate(78,130)"/>
<path d="M0 0 C1.2065625 0.0309375 1.2065625 0.0309375 2.4375 0.0625 C2.1075 2.0425 1.7775 4.0225 1.4375 6.0625 C-0.5425 6.0625 -2.5225 6.0625 -4.5625 6.0625 C-3.48963568 0.08511307 -3.48963568 0.08511307 0 0 Z " fill="#E1E1E3" transform="translate(93.5625,132.9375)"/>
<path d="M0 0 C0.99 0.33 1.98 0.66 3 1 C2.34215037 4.29680965 1.10579427 6.84117922 -0.5625 9.75 C-1.01753906 10.54921875 -1.47257812 11.3484375 -1.94140625 12.171875 C-2.29074219 12.77515625 -2.64007813 13.3784375 -3 14 C-4.37095624 10.30962722 -3.60010967 8.29116165 -2.0625 4.75 C-1.68222656 3.85796875 -1.30195312 2.9659375 -0.91015625 2.046875 C-0.60980469 1.37140625 -0.30945313 0.6959375 0 0 Z " fill="#39393A" transform="translate(110,122)"/>
<path d="M0 0 C1.25664978 2.90600261 2 4.79604584 2 8 C2.66 8 3.32 8 4 8 C4 9.98 4 11.96 4 14 C3.7525 13.46375 3.505 12.9275 3.25 12.375 C1.03189239 8.16059555 -1.44064691 4.20341778 -5 1 C-3 0 -3 0 0 0 Z " fill="#E5934A" transform="translate(117,50)"/>
<path d="M0 0 C0.33 0 0.66 0 1 0 C0.979375 0.78375 0.95875 1.5675 0.9375 2.375 C0.81315937 4.98114961 0.81315937 4.98114961 2 7 C1.01 7.33 0.02 7.66 -1 8 C-1.80212628 9.87387216 -1.80212628 9.87387216 -2.1875 12.0625 C-2.34605469 12.79597656 -2.50460938 13.52945313 -2.66796875 14.28515625 C-2.77753906 14.85105469 -2.88710937 15.41695312 -3 16 C-5 13 -5 13 -4.609375 10.37109375 C-4.32578125 9.40300781 -4.0421875 8.43492187 -3.75 7.4375 C-3.47671875 6.46683594 -3.2034375 5.49617187 -2.921875 4.49609375 C-2 2 -2 2 0 0 Z " fill="#515152" transform="translate(76,133)"/>
<path d="M0 0 C0.66 0 1.32 0 2 0 C0.50163895 3.11198065 -1.19933758 6.0534615 -3 9 C-2.34 9.33 -1.68 9.66 -1 10 C-2.65 10.33 -4.3 10.66 -6 11 C-6.33 10.34 -6.66 9.68 -7 9 C-6.34 9 -5.68 9 -5 9 C-5.33 8.01 -5.66 7.02 -6 6 C-5.01 6 -4.02 6 -3 6 C-2.814375 5.071875 -2.814375 5.071875 -2.625 4.125 C-2 2 -2 2 0 0 Z " fill="#262626" transform="translate(100,100)"/>
<path d="M0 0 C2 3 2 3 2 5 C-0.93309567 7.70153548 -2.58327348 8.98102598 -6.625 9.03515625 C-9.10716362 8.77777281 -11.54519513 8.44632816 -14 8 C-14 7.67 -14 7.34 -14 7 C-13.32453125 6.99742188 -12.6490625 6.99484375 -11.953125 6.9921875 C-6.79458957 6.94928295 -6.79458957 6.94928295 -2.4453125 4.59765625 C-1.22165792 2.78133547 -1.22165792 2.78133547 0 0 Z " fill="#E98C3F" transform="translate(228,74)"/>
<path d="M0 0 C0.66 0.33 1.32 0.66 2 1 C1.73958333 3.01822917 1.47916667 5.03645833 1.21875 7.0546875 C0.9627515 9.00498344 0.9627515 9.00498344 1 11 C-0.65 11.66 -2.3 12.32 -4 13 C-3.40895235 8.15340923 -2.02055843 4.39251833 0 0 Z " fill="#383837" transform="translate(86,139)"/>
<path d="M0 0 C2.31 0.33 4.62 0.66 7 1 C6 4 6 4 4.15234375 5.16796875 C3.42144531 5.50441406 2.69054687 5.84085938 1.9375 6.1875 C1.20402344 6.53167969 0.47054687 6.87585938 -0.28515625 7.23046875 C-1.13400391 7.61138672 -1.13400391 7.61138672 -2 8 C-2 7.01 -2 6.02 -2 5 C-0.68 5 0.64 5 2 5 C2 4.01 2 3.02 2 2 C1.34 2 0.68 2 0 2 C0 1.34 0 0.68 0 0 Z " fill="#FEF0DD" transform="translate(118,144)"/>
<path d="M0 0 C0.042721 1.66611905 0.04063832 3.33382885 0 5 C-1 6 -1 6 -4.0625 6.0625 C-5.5165625 6.0315625 -5.5165625 6.0315625 -7 6 C-5.52522876 2.59668175 -4.14385429 0 0 0 Z " fill="#DDDDDF" transform="translate(84,112)"/>
<path d="M0 0 C0.886875 0.144375 1.77375 0.28875 2.6875 0.4375 C1.945 1.015 1.2025 1.5925 0.4375 2.1875 C-1.97337643 4.16003526 -4.15292701 6.19794282 -6.3125 8.4375 C-6.9725 8.1075 -7.6325 7.7775 -8.3125 7.4375 C-4.35626368 0.57535558 -4.35626368 0.57535558 0 0 Z " fill="#404040" transform="translate(66.3125,110.5625)"/>
<path d="M0 0 C0 0.99 0 1.98 0 3 C-0.721875 3.226875 -1.44375 3.45375 -2.1875 3.6875 C-5.53209313 5.24831013 -7.51603959 7.3031287 -10 10 C-10.33 9.01 -10.66 8.02 -11 7 C-9.87720538 6.01830524 -8.75168527 5.03972702 -7.625 4.0625 C-6.68527344 3.24458984 -6.68527344 3.24458984 -5.7265625 2.41015625 C-3.71547429 0.76761588 -2.62199195 0 0 0 Z " fill="#E1E1E1" transform="translate(71,111)"/>
<path d="M0 0 C0.66 0 1.32 0 2 0 C2.39253254 4.44870215 1.15305957 7.14243493 -1 11 C-2.1875 9.4375 -2.1875 9.4375 -3 7 C-1.625 3.25 -1.625 3.25 0 0 Z " fill="#DBDBDC" transform="translate(108,121)"/>
<path d="M0 0 C0.33 0 0.66 0 1 0 C1 2.64 1 5.28 1 8 C1.66 8 2.32 8 3 8 C2.67 9.65 2.34 11.3 2 13 C1.01 13 0.02 13 -1 13 C-0.67 8.71 -0.34 4.42 0 0 Z " fill="#ED9D5A" transform="translate(121,68)"/>
<path d="M0 0 C1 3 1 3 -0.4375 6.1875 C-1.2109375 7.5796875 -1.2109375 7.5796875 -2 9 C-1.34 9 -0.68 9 0 9 C-0.33 9.66 -0.66 10.32 -1 11 C-3.475 10.01 -3.475 10.01 -6 9 C-4.02 6.03 -2.04 3.06 0 0 Z " fill="#DBDBDC" transform="translate(65,120)"/>
<path d="M0 0 C0.66 0.33 1.32 0.66 2 1 C2.625 3.5625 2.625 3.5625 3 6 C1.02 6.33 -0.96 6.66 -3 7 C-2.38722388 4.03824877 -1.74627478 2.61941217 0 0 Z " fill="#E88A40" transform="translate(433,106)"/>
<path d="M0 0 C0.66 0 1.32 0 2 0 C1.42647107 3.87132028 -0.48704352 6.08172796 -3 9 C-3.66 8.67 -4.32 8.34 -5 8 C-4.21718695 6.66144944 -3.42348123 5.32926356 -2.625 4 C-2.18414062 3.2575 -1.74328125 2.515 -1.2890625 1.75 C-0.86367187 1.1725 -0.43828125 0.595 0 0 Z " fill="#343434" transform="translate(66,100)"/>
<path d="M0 0 C1.98 0.99 3.96 1.98 6 3 C6 5.31 6 7.62 6 10 C5.67 10 5.34 10 5 10 C5 8.02 5 6.04 5 4 C3.02 4.66 1.04 5.32 -1 6 C-0.67 4.02 -0.34 2.04 0 0 Z " fill="#1A1A1B" transform="translate(63,135)"/>
<path d="M0 0 C1.485 0.99 1.485 0.99 3 2 C5.0492094 2.45139459 5.0492094 2.45139459 7.1875 2.625 C8.445625 2.74875 9.70375 2.8725 11 3 C11 3.66 11 4.32 11 5 C7.7 5 4.4 5 1 5 C0.67 3.35 0.34 1.7 0 0 Z " fill="#E78C43" transform="translate(421,125)"/>
<path d="M0 0 C0.33 0 0.66 0 1 0 C1.32613618 4.67461851 0.70582788 7.16674383 -2 11 C-3.53445094 7.93109813 -2.54984289 5.29905734 -2 2 C-1.34 2 -0.68 2 0 2 C0 1.34 0 0.68 0 0 Z " fill="#333335" transform="translate(98,128)"/>
<path d="M0 0 C1.98 0 3.96 0 6 0 C6.66 1.65 7.32 3.3 8 5 C7.01 5 6.02 5 5 5 C4.67 4.34 4.34 3.68 4 3 C1.97536745 2.34786708 1.97536745 2.34786708 0 2 C0 1.34 0 0.68 0 0 Z " fill="#484847" transform="translate(104,102)"/>
<path d="M0 0 C0.66 0.99 1.32 1.98 2 3 C0.68 5.64 -0.64 8.28 -2 11 C-2.33 9.68 -2.66 8.36 -3 7 C-3.66 6.34 -4.32 5.68 -5 5 C-3.68 4.67 -2.36 4.34 -1 4 C-0.67 2.68 -0.34 1.36 0 0 Z " fill="#2B2826" transform="translate(92,144)"/>
<path d="M0 0 C0.66 0.99 1.32 1.98 2 3 C0.7260411 5.03833424 -0.61061923 7.03852126 -2 9 C-2.66 9 -3.32 9 -4 9 C-3.35455571 5.51460083 -1.89865603 2.97180943 0 0 Z " fill="#474747" transform="translate(61,121)"/>
<path d="M0 0 C0.99 0 1.98 0 3 0 C1.95125002 2.62187494 1.35068687 3.79371361 -1.125 5.25 C-1.74375 5.4975 -2.3625 5.745 -3 6 C-2.42655063 3.13275314 -2.1385485 2.1385485 0 0 Z " fill="#D2D2D2" transform="translate(81,106)"/>
<path d="M0 0 C1.36125 0.37125 1.36125 0.37125 2.75 0.75 C-0.25617269 3.75617269 -3.07381598 3.34585316 -7.25 3.75 C-4.05 -0.31153846 -4.05 -0.31153846 0 0 Z " fill="#E68D44" transform="translate(379.25,74.25)"/>
<path d="M0 0 C0.66 0.99 1.32 1.98 2 3 C1.34 3.66 0.68 4.32 0 5 C-2.31 4.34 -4.62 3.68 -7 3 C-4.66785852 1.79371992 -2.50357861 0.8345262 0 0 Z " fill="#E49757" transform="translate(115,152)"/>
<path d="M0 0 C0.66 0.99 1.32 1.98 2 3 C1.01 4.98 0.02 6.96 -1 9 C-1.103125 8.360625 -1.20625 7.72125 -1.3125 7.0625 C-1.539375 6.381875 -1.76625 5.70125 -2 5 C-2.99 4.67 -3.98 4.34 -5 4 C-4.0409375 3.8453125 -4.0409375 3.8453125 -3.0625 3.6875 C-2.381875 3.460625 -1.70125 3.23375 -1 3 C-0.67 2.01 -0.34 1.02 0 0 Z " fill="#3A3A3A" transform="translate(67,143)"/>
<path d="M0 0 C0.99 0 1.98 0 3 0 C3 1.98 3 3.96 3 6 C2.01 6 1.02 6 0 6 C0 4.02 0 2.04 0 0 Z " fill="#F9882C" transform="translate(384,129)"/>
<path d="M0 0 C2.97 0.495 2.97 0.495 6 1 C3.94766315 3.2477975 2.99332739 4.0022242 0 5 C0 3.35 0 1.7 0 0 Z " fill="#FDF5DF" transform="translate(107,88)"/>
<path d="M0 0 C0.66 0.33 1.32 0.66 2 1 C2 1.66 2 2.32 2 3 C-1 5 -1 5 -3.6875 4.625 C-4.450625 4.41875 -5.21375 4.2125 -6 4 C-5.38125 3.71125 -4.7625 3.4225 -4.125 3.125 C-1.86674235 2.06279958 -1.86674235 2.06279958 0 0 Z " fill="#E98B41" transform="translate(444,59)"/>
<path d="M0 0 C0.66 1.32 1.32 2.64 2 4 C-3.75 3.25 -3.75 3.25 -6 1 C-3 0 -3 0 0 0 Z " fill="#E88C42" transform="translate(64,178)"/>
<path d="M0 0 C1.65 0 3.3 0 5 0 C5 0.99 5 1.98 5 3 C3.02 3 1.04 3 -1 3 C-0.67 2.01 -0.34 1.02 0 0 Z " fill="#F1DDCD" transform="translate(71,152)"/>
<path d="M0 0 C1.09658936 3.28976808 0.79953138 4.71303767 0 8 C-0.66 8 -1.32 8 -2 8 C-2.33 6.35 -2.66 4.7 -3 3 C-2.34 3 -1.68 3 -1 3 C-0.67 2.01 -0.34 1.02 0 0 Z " fill="#332A25" transform="translate(78,147)"/>
<path d="M0 0 C1.32 0 2.64 0 4 0 C3.67 1.65 3.34 3.3 3 5 C1.68 4.67 0.36 4.34 -1 4 C-0.01 4 0.98 4 2 4 C1.01 3.01 0.02 2.02 -1 1 C-0.67 0.67 -0.34 0.34 0 0 Z " fill="#E3E3E3" transform="translate(88,144)"/>
<path d="M0 0 C0.33 0.66 0.66 1.32 1 2 C1.66 2 2.32 2 3 2 C3 1.34 3 0.68 3 0 C3.66 0.33 4.32 0.66 5 1 C4.34 2.65 3.68 4.3 3 6 C2.67 5.34 2.34 4.68 2 4 C1.01 4.33 0.02 4.66 -1 5 C-0.67 3.35 -0.34 1.7 0 0 Z " fill="#D6D6D3" transform="translate(82,138)"/>
<path d="M0 0 C1.98 0 3.96 0 6 0 C5.67 0.99 5.34 1.98 5 3 C3.35 3 1.7 3 0 3 C0 2.01 0 1.02 0 0 Z " fill="#C7C7C9" transform="translate(92,120)"/>
<path d="M0 0 C0.66 0 1.32 0 2 0 C2 1.98 2 3.96 2 6 C0.68 5.67 -0.64 5.34 -2 5 C-1.34 3.35 -0.68 1.7 0 0 Z " fill="#E98B42" transform="translate(300,66)"/>
<path d="M0 0 C0 0.99 0 1.98 0 3 C-0.99 3.495 -0.99 3.495 -2 4 C-1.34 2.68 -0.68 1.36 0 0 Z M-3 4 C-2.01 4.33 -1.02 4.66 0 5 C0 5.66 0 6.32 0 7 C-1.65 7.33 -3.3 7.66 -5 8 C-4.34 6.68 -3.68 5.36 -3 4 Z " fill="#EB8B41" transform="translate(22,49)"/>
<path d="M0 0 C-0.3125 1.9375 -0.3125 1.9375 -1 4 C-1.99 4.33 -2.98 4.66 -4 5 C-4 4.01 -4 3.02 -4 2 C-4.66 1.67 -5.32 1.34 -6 1 C-3.92446352 0.4465236 -2.15634036 0 0 0 Z " fill="#E88E47" transform="translate(68,19)"/>
</svg>
